<svg width="28" height="19" viewBox="0 0 28 19" fill="none" xmlns="http://www.w3.org/2000/svg">
<path d="M27.7097 3.24227L20.9531 0.712177C20.8992 0.690281 20.8407 0.682107 20.7826 0.688364C20.7246 0.694622 20.6688 0.715122 20.6201 0.748083L8.70668 8.38426L7.96915 6.84182C7.92577 6.75115 7.84843 6.68197 7.75414 6.6495C7.65984 6.61703 7.55631 6.62393 7.46631 6.66868L4.65908 8.06492C4.56909 8.1097 4.50001 8.18865 4.46703 8.28443C4.43406 8.3802 4.43988 8.48494 4.48323 8.57563L5.90674 11.5523L1.94085 13.5248C1.38916 13.8056 0.967243 14.2945 0.766892 14.8851C0.566541 15.4758 0.603966 16.1204 0.871026 16.6788C1.13809 17.2371 1.61317 17.664 2.19292 17.8665C2.77266 18.0691 3.41016 18.0309 3.9667 17.7603L7.93196 15.7881L9.35523 18.7646C9.3767 18.8096 9.40675 18.8497 9.44365 18.8827C9.48056 18.9157 9.5236 18.941 9.57032 18.9571C9.61704 18.9732 9.66652 18.9798 9.71593 18.9765C9.76535 18.9732 9.81373 18.96 9.85831 18.9379L12.6653 17.5415C12.7553 17.4968 12.8244 17.4178 12.8573 17.322C12.8903 17.2263 12.8845 17.1215 12.8412 17.0308L12.0641 15.4053L25.2999 10.5313C25.3518 10.5121 25.3991 10.4817 25.4384 10.4422C25.4776 10.4026 25.5079 10.355 25.5271 10.3025L27.9292 3.72913C27.9637 3.63446 27.96 3.53017 27.9189 3.43898C27.8778 3.34779 27.8026 3.27709 27.7097 3.24227ZM7.60497 15.1042L3.64012 17.0761C3.45323 17.1691 3.25042 17.2241 3.04327 17.238C2.83612 17.2519 2.62869 17.2244 2.43281 17.1571C2.23693 17.0897 2.05644 16.9838 1.90165 16.8455C1.74687 16.7071 1.62081 16.539 1.53068 16.3507C1.44054 16.1624 1.38811 15.9576 1.37635 15.748C1.3646 15.5384 1.39377 15.3282 1.46218 15.1292C1.5306 14.9303 1.63692 14.7465 1.77509 14.5885C1.91326 14.4305 2.08056 14.3013 2.26744 14.2082L6.23373 12.2361L6.91923 13.6701L7.60497 15.1042ZM9.8705 18.0853L5.32581 8.57999L7.45403 7.52147L10.2744 13.4198L11.2029 15.3617L11.999 17.0261L9.8705 18.0853ZM24.8821 9.87621L11.735 14.7175L10.9179 13.0087L10.5686 12.2781L21.3177 6.93215C21.4059 6.88634 21.4732 6.80745 21.5049 6.71247C21.5367 6.61749 21.5305 6.51402 21.4877 6.42436C21.4448 6.33469 21.3687 6.26599 21.2757 6.23306C21.1828 6.20014 21.0804 6.20561 20.9907 6.24831L10.2418 11.5943L9.03576 9.07206L20.8604 1.49283L27.0925 3.82724L24.8821 9.87621Z" fill="url(#paint0_linear_1195_793)"/>
<defs>
<linearGradient id="paint0_linear_1195_793" x1="17.6941" y1="-0.410522" x2="10.4248" y2="20.701" gradientUnits="userSpaceOnUse">
<stop stop-color="#A4945E"/>
<stop offset="1" stop-color="#E2D07C"/>
</linearGradient>
</defs>
</svg>
