<svg width="23" height="25" viewBox="0 0 23 25" fill="none" xmlns="http://www.w3.org/2000/svg">
<path d="M20.46 17.5138C19.9961 17.1496 19.4426 16.9356 18.8664 16.8978H18.6814C17.9914 16.9001 17.3231 17.1533 16.788 17.6151C16.2529 18.0769 15.8833 18.7194 15.741 19.4352C15.6997 19.6496 15.6791 19.8679 15.6793 20.0866C15.6746 20.7638 15.8766 21.4245 16.255 21.97C16.5132 22.3343 16.8422 22.6356 17.2197 22.8535C17.5972 23.0713 18.0144 23.2007 18.4431 23.2329C18.8718 23.265 19.3021 23.1992 19.7047 23.0398C20.1074 22.8805 20.4731 22.6313 20.7771 22.3091C21.0811 21.987 21.3163 21.5993 21.4668 21.1725C21.6174 20.7456 21.6797 20.2894 21.6497 19.8348C21.6196 19.3801 21.4978 18.9377 21.2926 18.5372C21.0874 18.1368 20.8034 17.7878 20.46 17.5138ZM18.6814 22.7249C18.29 22.7226 17.9046 22.6228 17.5563 22.4334C17.2081 22.244 16.9067 21.9704 16.6765 21.6347C16.3602 21.1832 16.1898 20.6355 16.1908 20.073C16.1906 19.8899 16.2078 19.7073 16.2422 19.5279C16.3609 18.9347 16.6678 18.4026 17.1116 18.0202C17.5555 17.6378 18.1095 17.4283 18.6814 17.4265H18.8356C19.3124 17.4572 19.7706 17.6343 20.1542 17.9362C20.5765 18.2654 20.8901 18.7276 21.0501 19.257C21.21 19.7863 21.2083 20.3557 21.045 20.8839C20.8817 21.4121 20.5652 21.8722 20.1408 22.1984C19.7163 22.5246 19.2056 22.7003 18.6814 22.7004V22.7249Z" fill="url(#paint0_linear_1195_748)"/>
<path d="M18.9379 17.7455H18.4238V20.0104C18.4237 20.0511 18.4322 20.0914 18.4486 20.1282C18.4651 20.165 18.4891 20.1974 18.5189 20.223L19.5727 21.1143L19.894 20.6891L18.9379 19.8714V17.7455Z" fill="url(#paint1_linear_1195_748)"/>
<path d="M21.39 16.454V8.02396V3.93569C21.39 3.71092 21.3482 3.48835 21.2671 3.28068C21.186 3.07302 21.0671 2.88433 20.9172 2.72539C20.7673 2.56645 20.5894 2.44037 20.3935 2.35436C20.1977 2.26834 19.9878 2.22407 19.7758 2.22407H18.2593V1.23471C18.2593 1.07234 18.2291 0.911566 18.1705 0.761593C18.1118 0.611619 18.0258 0.47539 17.9174 0.360706C17.809 0.246022 17.6804 0.155134 17.5388 0.0932475C17.3972 0.0313606 17.2455 -0.000310289 17.0924 4.81377e-05H16.82C16.6669 -0.000310289 16.5152 0.0313606 16.3736 0.0932475C16.2321 0.155134 16.1034 0.246022 15.995 0.360706C15.8866 0.47539 15.8006 0.611619 15.7419 0.761593C15.6833 0.911566 15.6531 1.07234 15.6531 1.23471V2.21589H11.9904V1.23471C11.9904 0.907254 11.8677 0.593214 11.6494 0.361671C11.431 0.130128 11.1349 4.81377e-05 10.8261 4.81377e-05H10.569C10.2602 4.81377e-05 9.96408 0.130128 9.74572 0.361671C9.52736 0.593214 9.40469 0.907254 9.40469 1.23471V2.21589H5.72918V1.23471C5.72918 1.07165 5.69873 0.910202 5.63957 0.759691C5.58042 0.609181 5.49373 0.472586 5.38452 0.357794C5.27531 0.243002 5.14574 0.152286 5.00329 0.0908832C4.86083 0.0294808 4.70832 -0.00139168 4.55455 4.81377e-05H4.29752C4.1444 -0.000310289 3.99272 0.0313606 3.85116 0.0932475C3.7096 0.155134 3.58094 0.246022 3.47255 0.360706C3.36416 0.47539 3.27816 0.611619 3.21949 0.761593C3.16081 0.911566 3.13061 1.07234 3.13061 1.23471V2.21589H1.61414C1.18605 2.21589 0.775482 2.39622 0.472771 2.71721C0.170061 3.03821 0 3.47356 0 3.92751V8.01579V20.9783C0.000679729 21.4321 0.170959 21.867 0.473522 22.1878C0.776085 22.5087 1.18625 22.6892 1.61414 22.69H15.5091C15.8744 23.1857 16.3348 23.5935 16.8598 23.8864C17.3849 24.1793 17.9626 24.3506 18.5548 24.389C19.1469 24.4273 19.74 24.3319 20.2948 24.109C20.8496 23.8862 21.3534 23.5409 21.7729 23.096C22.1924 22.6512 22.518 22.117 22.7282 21.5287C22.9384 20.9404 23.0284 20.3115 22.9922 19.6835C22.956 19.0556 22.7944 18.443 22.5182 17.8863C22.242 17.3295 21.8574 16.8413 21.39 16.454ZM0.506347 6.50858H20.8759V7.75141H0.506347V6.50858ZM16.1671 2.48844V1.23471C16.1678 1.05157 16.2369 0.87619 16.3592 0.746951C16.4816 0.617712 16.6473 0.54515 16.82 0.545151H17.0924C17.2651 0.54515 17.4308 0.617712 17.5532 0.746951C17.6755 0.87619 17.7446 1.05157 17.7453 1.23471V4.42901H16.1671V2.48844ZM9.9059 2.48844V1.23471C9.90657 1.05205 9.9753 0.877071 10.0971 0.74791C10.2189 0.618749 10.3839 0.545869 10.5562 0.545151H10.8132C10.9855 0.545869 11.1505 0.618749 11.2723 0.74791C11.3941 0.877071 11.4628 1.05205 11.4635 1.23471V4.42901H9.9059V2.48844ZM3.63696 2.48844V1.23471C3.63729 1.14333 3.65468 1.05293 3.68812 0.968719C3.72157 0.884506 3.7704 0.808146 3.83181 0.744043C3.89321 0.67994 3.96598 0.629362 4.04591 0.595226C4.12585 0.56109 4.21136 0.544071 4.29752 0.545151H4.55455C4.72726 0.54515 4.89292 0.617712 5.01528 0.746951C5.13764 0.87619 5.20673 1.05157 5.20741 1.23471V4.42901H3.63696V2.48844ZM0.506347 3.92751C0.506347 3.61813 0.622248 3.32143 0.828554 3.10266C1.03486 2.8839 1.31467 2.76099 1.60643 2.76099H3.1229V4.70156C3.1229 4.77385 3.14998 4.84317 3.19818 4.89428C3.24639 4.9454 3.31176 4.97411 3.37993 4.97411H5.47215C5.54032 4.97411 5.60569 4.9454 5.65389 4.89428C5.7021 4.84317 5.72918 4.77385 5.72918 4.70156V2.76099H9.39184V4.70156C9.39184 4.77385 9.41892 4.84317 9.46712 4.89428C9.51532 4.9454 9.5807 4.97411 9.64887 4.97411H11.7334C11.8015 4.97411 11.8669 4.9454 11.9151 4.89428C11.9633 4.84317 11.9904 4.77385 11.9904 4.70156V2.76099H15.6531V4.70156C15.6531 4.77385 15.6801 4.84317 15.7283 4.89428C15.7766 4.9454 15.8419 4.97411 15.9101 4.97411H18.0023C18.0705 4.97411 18.1359 4.9454 18.1841 4.89428C18.2323 4.84317 18.2593 4.77385 18.2593 4.70156V2.76099H19.7758C20.0676 2.76099 20.3474 2.8839 20.5537 3.10266C20.76 3.32143 20.8759 3.61813 20.8759 3.92751V5.96347H0.506347V3.92751ZM1.60643 22.1449C1.31467 22.1449 1.03486 22.022 0.828554 21.8032C0.622248 21.5844 0.506347 21.2877 0.506347 20.9783V8.29651H20.8759V16.0833L20.8425 16.067C20.7217 15.9936 20.5973 15.9272 20.4698 15.868L20.403 15.8407C20.2873 15.789 20.1665 15.7426 20.0457 15.7017L19.9763 15.6799C19.8452 15.639 19.7193 15.6063 19.5728 15.5791L19.4828 15.5627L19.2977 15.5328V10.2371C19.2977 10.1648 19.2707 10.0955 19.2225 10.0444C19.1743 9.99324 19.1089 9.96453 19.0407 9.96453H2.33382C2.26566 9.96453 2.20028 9.99324 2.15208 10.0444C2.10387 10.0955 2.07679 10.1648 2.07679 10.2371V19.095C2.07679 19.1673 2.10387 19.2366 2.15208 19.2877C2.20028 19.3388 2.26566 19.3676 2.33382 19.3676H14.6455C14.619 19.5598 14.6053 19.7538 14.6044 19.9481C14.6044 20.0571 14.6044 20.1661 14.6172 20.2752V20.3787C14.6172 20.4523 14.6327 20.5259 14.6429 20.5995C14.6532 20.6731 14.6558 20.6785 14.6609 20.7167C14.6661 20.7548 14.6866 20.8557 14.7021 20.9265L14.7252 21.0356C14.7432 21.1146 14.7663 21.1936 14.7869 21.27L14.81 21.3463C14.8409 21.4471 14.8768 21.548 14.9154 21.6461C14.9154 21.6733 14.9385 21.7006 14.9514 21.7278C14.9797 21.7987 15.0105 21.8668 15.0439 21.9377C15.0773 22.0086 15.0799 22.0086 15.0979 22.0467C15.1159 22.0849 15.1287 22.1121 15.1467 22.1449H1.60643ZM6.25866 14.3935H2.59599V10.5096H6.25866V14.3935ZM2.59599 14.9386H6.25866V18.8225H2.59599V14.9386ZM10.4354 14.3935H6.77271V10.5096H10.4354V14.3935ZM6.77271 14.9386H10.4354V18.8225H6.77271V14.9386ZM18.7888 14.3935H15.1262V10.5096H18.7888V14.3935ZM14.6121 14.3935H10.9494V10.5096H14.6121V14.3935ZM10.9494 14.9386H14.6095V18.8225H10.9494V14.9386ZM15.1262 17.8113V14.9386H18.7888V15.5C18.6783 15.5 18.5703 15.5 18.4624 15.5164H18.3699C18.2876 15.5164 18.2079 15.5273 18.1308 15.5491L18.0203 15.5709C17.9432 15.5709 17.8661 15.6036 17.789 15.6254L17.699 15.65C17.5936 15.6799 17.4908 15.7126 17.388 15.7508L17.352 15.7671C17.2612 15.8035 17.1755 15.8416 17.095 15.8816L16.9999 15.9307C16.9331 15.9634 16.8662 15.9988 16.7994 16.0397L16.7069 16.0942C16.6349 16.1378 16.5655 16.1842 16.4961 16.2332L16.4293 16.285C16.3419 16.3477 16.2545 16.4158 16.1723 16.4867L16.1209 16.5575C16.0592 16.6121 16.0001 16.6693 15.9409 16.7293L15.8613 16.8083L15.707 16.98L15.6376 17.0618C15.576 17.1381 15.5143 17.2198 15.4552 17.3016L15.4372 17.3261C15.3729 17.4188 15.3138 17.5115 15.2572 17.5987C15.2392 17.6259 15.2238 17.6587 15.2058 17.6886C15.1878 17.7186 15.1467 17.7677 15.1262 17.8113ZM18.8042 23.8483C18.3129 23.8621 17.8239 23.7713 17.3661 23.5815C16.9084 23.3916 16.4911 23.1064 16.139 22.7427C15.7869 22.3791 15.507 21.9443 15.3159 21.4641C15.1248 20.9839 15.0263 20.4679 15.0263 19.9467C15.0263 19.4255 15.1248 18.9096 15.3159 18.4293C15.507 17.9491 15.7869 17.5144 16.139 17.1507C16.4911 16.7871 16.9084 16.5019 17.3661 16.312C17.8239 16.1221 18.3129 16.0314 18.8042 16.0452C18.8814 16.0452 18.9559 16.0452 19.0279 16.0452C19.1307 16.0452 19.2335 16.0642 19.3363 16.0806C19.9319 16.1711 20.4966 16.4184 20.9787 16.8001C21.6036 17.2862 22.0676 17.9693 22.3043 18.7518C22.5411 19.5343 22.5386 20.3762 22.2971 21.1571C22.0556 21.9379 21.5876 22.6179 20.9598 23.0998C20.332 23.5816 19.5767 23.8408 18.8017 23.8401L18.8042 23.8483Z" fill="url(#paint2_linear_1195_748)"/>
<defs>
<linearGradient id="paint0_linear_1195_748" x1="18.6681" y1="16.8978" x2="18.6681" y2="23.2408" gradientUnits="userSpaceOnUse">
<stop stop-color="#A4945E"/>
<stop offset="1" stop-color="#E2D07C"/>
</linearGradient>
<linearGradient id="paint1_linear_1195_748" x1="19.1589" y1="17.7455" x2="19.1589" y2="21.1143" gradientUnits="userSpaceOnUse">
<stop stop-color="#A4945E"/>
<stop offset="1" stop-color="#E2D07C"/>
</linearGradient>
<linearGradient id="paint2_linear_1195_748" x1="11.5" y1="0" x2="11.5" y2="24.3972" gradientUnits="userSpaceOnUse">
<stop stop-color="#A4945E"/>
<stop offset="1" stop-color="#E2D07C"/>
</linearGradient>
</defs>
</svg>
