<svg width="25" height="25" viewBox="0 0 25 25" fill="none" xmlns="http://www.w3.org/2000/svg">
<path fill-rule="evenodd" clip-rule="evenodd" d="M21.5909 0C23.4737 0 25 1.52631 25 3.40909V21.5909C25 23.4737 23.4737 25 21.5909 25H3.40909C1.52631 25 0 23.4737 0 21.5909V3.40909C0 1.52631 1.52631 0 3.40909 0H21.5909ZM21.5909 2.27273C22.2185 2.27273 22.7273 2.7815 22.7273 3.40909V21.5909C22.7273 22.2185 22.2185 22.7273 21.5909 22.7273H15.9091V14.7726H18.2684C18.7575 14.7726 19.1917 14.4597 19.3465 13.9956L19.8499 12.4853C20.0339 11.9334 19.6231 11.3635 19.0414 11.3635H15.9091V9.09082C15.9091 8.52264 16.4773 7.95445 17.0455 7.95445H19.3182C19.9458 7.95445 20.4545 7.44568 20.4545 6.81809V6.03856C20.4545 5.67149 20.2201 5.34239 19.8651 5.24872C18.3756 4.85562 17.0455 4.85563 17.0455 4.85563C14.2045 4.85563 12.5 6.81809 12.5 8.52264V11.3635H10.2273C9.59968 11.3635 9.09091 11.8723 9.09091 12.4999V13.6362C9.09091 14.2639 9.59967 14.7726 10.2273 14.7726H12.5V22.7273H3.40909C2.7815 22.7273 2.27273 22.2185 2.27273 21.5909V3.40909C2.27273 2.7815 2.7815 2.27273 3.40909 2.27273H21.5909Z" fill="url(#paint0_linear_1195_219)"/>
<defs>
<linearGradient id="paint0_linear_1195_219" x1="12.5" y1="0" x2="12.5" y2="25" gradientUnits="userSpaceOnUse">
<stop stop-color="#180B23"/>
<stop offset="1" stop-color="#4D194D"/>
</linearGradient>
</defs>
</svg>
