<svg
          xmlns="http://www.w3.org/2000/svg"
          width="25"
          height="25"
          viewBox="0 0 25 25"
          fill="none"
        >
          <path
            d="M24.8527 10.5737L24.7241 10.0385H12.8675V14.9615H19.9516C19.2162 18.3878 15.8032 20.1914 13.0154 20.1914C10.9869 20.1914 8.84869 19.3544 7.43345 18.0089C6.68676 17.2877 6.09241 16.4291 5.68441 15.4823C5.27641 14.5355 5.06278 13.519 5.05575 12.4911C5.05575 10.4174 6.00569 8.34319 7.38794 6.97879C8.77019 5.6144 10.8578 4.851 12.9334 4.851C15.3106 4.851 17.0142 6.08929 17.6513 6.65402L21.2173 3.17411C20.1712 2.27232 17.2975 0 12.8185 0C9.36291 0 6.04949 1.29855 3.62742 3.66685C1.2372 5.99888 0 9.37109 0 12.5C0 15.6289 1.17065 18.8326 3.48692 21.183C5.96189 23.6897 9.46701 25 13.0762 25C16.3601 25 19.4727 23.7377 21.6911 21.4475C23.872 19.1931 25 16.0737 25 12.8036C25 11.4269 24.8589 10.6094 24.8527 10.5737Z"
            fill="url(#paint0_linear_39_116)"
          />
          <defs>
            <linearGradient
              id="paint0_linear_39_116"
              x1="12.5"
              y1="0"
              x2="12.5"
              y2="25"
              gradientUnits="userSpaceOnUse"
            >
              <stop stopColor="#180B23" />
              <stop offset="1" stopColor="#4D194D" />
            </linearGradient>
          </defs>
        </svg>