<svg width="28" height="17" viewBox="0 0 28 17" fill="none" xmlns="http://www.w3.org/2000/svg">
<path fill-rule="evenodd" clip-rule="evenodd" d="M6.66685 6.67799C7.77212 6.67799 8.66686 5.55768 8.66686 4.17375C8.66686 2.78982 7.77212 1.6695 6.66685 1.6695C5.56157 1.6695 4.66684 2.78982 4.66684 4.17375C4.66684 5.55768 5.56157 6.67799 6.66685 6.67799ZM6.66685 8.34749C8.50852 8.34749 10.0002 6.47974 10.0002 4.17375C10.0002 1.86775 8.50852 0 6.66685 0C4.82517 0 3.3335 1.86775 3.3335 4.17375C3.3335 6.47974 4.82517 8.34749 6.66685 8.34749Z" fill="url(#paint0_linear_1195_766)"/>
<path fill-rule="evenodd" clip-rule="evenodd" d="M1.74768 13.1797C1.42369 13.5882 1.33334 13.9176 1.33334 14.191V15.0257H13.3334V14.191C13.3334 13.9176 13.2431 13.5882 12.9191 13.1797C12.5829 12.7559 12.0594 12.3371 11.3839 11.9675C10.0259 11.2243 8.37438 10.852 7.33337 10.852C6.29237 10.852 4.64092 11.2243 3.2828 11.9675C2.60733 12.3371 2.08385 12.7559 1.74768 13.1797ZM7.33337 9.18246C4.88589 9.18246 0 10.8603 0 14.191V16.6952H14.6667V14.191C14.6667 10.8603 9.78092 9.18246 7.33337 9.18246Z" fill="url(#paint1_linear_1195_766)"/>
<path fill-rule="evenodd" clip-rule="evenodd" d="M21.3334 6.67799C22.4386 6.67799 23.3334 5.55768 23.3334 4.17375C23.3334 2.78982 22.4386 1.6695 21.3334 1.6695C20.2281 1.6695 19.3333 2.78982 19.3333 4.17375C19.3333 5.55768 20.2281 6.67799 21.3334 6.67799ZM21.3334 8.34749C23.175 8.34749 24.6667 6.47974 24.6667 4.17375C24.6667 1.86775 23.175 0 21.3334 0C19.4917 0 18 1.86775 18 4.17375C18 6.47974 19.4917 8.34749 21.3334 8.34749Z" fill="url(#paint2_linear_1195_766)"/>
<path fill-rule="evenodd" clip-rule="evenodd" d="M14.0002 5.0085C14.7371 5.0085 15.3335 4.26173 15.3335 3.339C15.3335 2.41627 14.7371 1.6695 14.0002 1.6695C13.2632 1.6695 12.6668 2.41627 12.6668 3.339C12.6668 4.26173 13.2632 5.0085 14.0002 5.0085ZM14.0002 6.678C15.4735 6.678 16.6669 5.18379 16.6669 3.339C16.6669 1.4942 15.4735 0 14.0002 0C12.5268 0 11.3335 1.4942 11.3335 3.339C11.3335 5.18379 12.5268 6.678 14.0002 6.678Z" fill="url(#paint3_linear_1195_766)"/>
<path fill-rule="evenodd" clip-rule="evenodd" d="M15.0812 13.18C14.7572 13.5884 14.6668 13.9178 14.6668 14.1912V15.0259H26.6669V14.1912C26.6669 13.9178 26.5766 13.5884 26.2526 13.18C25.9164 12.7561 25.3929 12.3374 24.7174 11.9677C23.3594 11.2246 21.7079 10.8522 20.6669 10.8522C19.6259 10.8522 17.9744 11.2246 16.6163 11.9677C15.9408 12.3374 15.4174 12.7561 15.0812 13.18ZM20.6669 9.18267C18.2194 9.18267 13.3335 10.8605 13.3335 14.1912V16.6954H28.0002V14.1912C28.0002 10.8605 23.1144 9.18267 20.6669 9.18267Z" fill="url(#paint4_linear_1195_766)"/>
<path fill-rule="evenodd" clip-rule="evenodd" d="M14 9.18226C11.7938 9.18226 10.2478 10.4699 9.80469 11.0246L8.86182 9.84414C9.52989 9.00772 11.4061 7.51276 14 7.51276C16.5938 7.51276 18.47 9.00772 19.1381 9.84414L18.1952 11.0246C17.7521 10.4699 16.2061 9.18226 14 9.18226Z" fill="url(#paint5_linear_1195_766)"/>
<defs>
<linearGradient id="paint0_linear_1195_766" x1="6.66685" y1="0" x2="6.66685" y2="8.34749" gradientUnits="userSpaceOnUse">
<stop stop-color="#A4945E"/>
<stop offset="1" stop-color="#E2D07C"/>
</linearGradient>
<linearGradient id="paint1_linear_1195_766" x1="7.33337" y1="9.18246" x2="7.33337" y2="16.6952" gradientUnits="userSpaceOnUse">
<stop stop-color="#A4945E"/>
<stop offset="1" stop-color="#E2D07C"/>
</linearGradient>
<linearGradient id="paint2_linear_1195_766" x1="21.3334" y1="0" x2="21.3334" y2="8.34749" gradientUnits="userSpaceOnUse">
<stop stop-color="#A4945E"/>
<stop offset="1" stop-color="#E2D07C"/>
</linearGradient>
<linearGradient id="paint3_linear_1195_766" x1="14.0002" y1="0" x2="14.0002" y2="6.678" gradientUnits="userSpaceOnUse">
<stop stop-color="#A4945E"/>
<stop offset="1" stop-color="#E2D07C"/>
</linearGradient>
<linearGradient id="paint4_linear_1195_766" x1="20.6669" y1="9.18267" x2="20.6669" y2="16.6954" gradientUnits="userSpaceOnUse">
<stop stop-color="#A4945E"/>
<stop offset="1" stop-color="#E2D07C"/>
</linearGradient>
<linearGradient id="paint5_linear_1195_766" x1="13.9999" y1="7.51276" x2="13.9999" y2="11.0246" gradientUnits="userSpaceOnUse">
<stop stop-color="#A4945E"/>
<stop offset="1" stop-color="#E2D07C"/>
</linearGradient>
</defs>
</svg>
