<svg width="17" height="24" viewBox="0 0 17 24" fill="none" xmlns="http://www.w3.org/2000/svg">
<path d="M8.5 4C6.57895 4 5 5.79105 5 8C5 10.209 6.57895 12 8.5 12C10.4211 12 12 10.209 12 8C12 5.79105 10.4211 4 8.5 4ZM8.5 9.91045C7.57895 9.91045 6.84211 9.04478 6.84211 8C6.84211 6.95522 7.57895 6.08955 8.5 6.08955C9.42105 6.08955 10.1579 6.95522 10.1579 8C10.1579 9.04478 9.42105 9.91045 8.5 9.91045Z" fill="url(#paint0_linear_1339_4)"/>
<path d="M8.49968 0C4.04802 0 0.328915 3.76296 0.0189893 8.56296C-0.121886 10.6963 0.52614 12.8593 1.79402 14.6667L7.6826 23.5556C7.87983 23.8222 8.16158 24 8.49968 24C8.83778 24 9.11953 23.8222 9.31675 23.5556L15.2053 14.6667C16.5014 12.8593 17.1212 10.6667 16.9804 8.56296C16.6704 3.76296 12.9513 0 8.49968 0ZM13.6275 13.4519C13.5994 13.4519 13.5994 13.4519 13.6275 13.4519L8.49968 21.1556L3.39999 13.4815C3.39999 13.4815 3.39999 13.4519 3.37182 13.4519C2.35752 12.0296 1.85037 10.3407 1.96307 8.71111C2.16029 5.45185 4.66787 2.1037 8.4715 2.1037C12.2751 2.1037 14.7827 5.48148 14.9799 8.71111C15.1208 10.3407 14.6137 12.0296 13.6275 13.4519Z" fill="url(#paint1_linear_1339_4)"/>
<defs>
<linearGradient id="paint0_linear_1339_4" x1="8.5" y1="4" x2="8.5" y2="12" gradientUnits="userSpaceOnUse">
<stop stop-color="#A4945E"/>
<stop offset="1" stop-color="#E2D07C"/>
</linearGradient>
<linearGradient id="paint1_linear_1339_4" x1="8.5" y1="0" x2="8.5" y2="24" gradientUnits="userSpaceOnUse">
<stop stop-color="#A4945E"/>
<stop offset="1" stop-color="#E2D07C"/>
</linearGradient>
</defs>
</svg>
