<svg width="24" height="23" viewBox="0 0 24 23" fill="none" xmlns="http://www.w3.org/2000/svg">
<path d="M12.0005 15.3235C14.7137 15.3235 16.921 13.2286 16.921 10.654C16.921 8.07939 14.7137 5.98484 12.0005 5.98484C9.28735 5.98484 7.08008 8.07966 7.08008 10.654C7.08008 13.2286 9.28735 15.3235 12.0005 15.3235ZM12.0005 7.20613C14.0037 7.20613 15.634 8.75284 15.634 10.654C15.634 12.5552 14.0037 14.1019 12.0005 14.1019C9.99732 14.1019 8.36709 12.5552 8.36709 10.654C8.36709 8.75284 9.99732 7.20613 12.0005 7.20613Z" fill="url(#paint0_linear_1195_745)"/>
<path d="M12 22.7738C18.6167 22.7738 24 17.6657 24 11.3869C24 5.1081 18.6167 0 12 0C5.38328 0 0 5.1081 0 11.3869C0 17.6657 5.38328 22.7738 12 22.7738ZM12 21.5525C9.56231 21.5525 7.31365 20.7745 5.51138 19.4685C7.37147 18.1221 9.64677 17.3858 12 17.3858C14.3532 17.3858 16.628 18.1224 18.4881 19.4687C16.6861 20.7745 14.4374 21.5525 12 21.5525ZM12 1.22128C17.907 1.22128 22.7127 5.78154 22.7127 11.3869C22.7127 14.1775 21.5212 16.7086 19.5962 18.5473C19.586 18.5573 19.5758 18.5675 19.5653 18.5775C19.5384 18.603 19.5101 18.6272 19.4826 18.6522C17.3609 17.0442 14.7265 16.1645 12.0003 16.1645C9.27407 16.1645 6.63968 17.0442 4.518 18.6522C4.48994 18.6264 4.46075 18.6017 4.43297 18.5756C4.42674 18.5694 4.42022 18.5632 4.41398 18.5567C2.48276 16.7172 1.28729 14.1823 1.28729 11.3869C1.28729 5.78154 6.09296 1.22128 12 1.22128Z" fill="url(#paint1_linear_1195_745)"/>
<defs>
<linearGradient id="paint0_linear_1195_745" x1="12.0005" y1="5.98484" x2="12.0005" y2="15.3235" gradientUnits="userSpaceOnUse">
<stop stop-color="#E2D07C"/>
<stop offset="1" stop-color="#A4945E"/>
</linearGradient>
<linearGradient id="paint1_linear_1195_745" x1="12" y1="0" x2="12" y2="22.7738" gradientUnits="userSpaceOnUse">
<stop stop-color="#E2D07C"/>
<stop offset="1" stop-color="#A4945E"/>
</linearGradient>
</defs>
</svg>
