 <svg
          xmlns="http://www.w3.org/2000/svg"
          width="25"
          height="25"
          viewBox="0 0 25 25"
          fill="none"
        >
          <path
            d="M24.4334 2.88518C24.0407 3.09794 23.6369 3.2775 23.2243 3.42328C23.7128 2.74856 24.0852 1.95464 24.3125 1.08587C24.3635 0.891133 24.3107 0.677978 24.1796 0.550617C24.0487 0.423158 23.8669 0.40789 23.7228 0.512202C22.8466 1.14694 21.9012 1.60309 20.91 1.86983C19.9116 0.678176 18.5554 0 17.1535 0C14.1942 0 11.7867 2.94053 11.7867 6.55491C11.7867 6.83957 11.8014 7.12266 11.8306 7.40181C8.15846 7.00801 4.74452 4.80347 2.40017 1.29104C2.31662 1.16585 2.18791 1.09838 2.05614 1.11128C1.92429 1.12389 1.80582 1.21471 1.73921 1.35428C1.26372 2.35081 1.01235 3.49056 1.01235 4.6502C1.01235 6.22966 1.47404 7.72824 2.28961 8.89922C2.04162 8.79431 1.80098 8.66321 1.5713 8.50748C1.448 8.42366 1.29751 8.42494 1.17501 8.51073C1.05243 8.59653 0.975578 8.75432 0.972353 8.9268C0.971788 8.95586 0.971788 8.98491 0.971788 9.01436C0.971788 11.372 2.01066 13.4946 3.59896 14.6514C3.46251 14.6348 3.32614 14.6107 3.19065 14.579C3.05097 14.5464 2.90735 14.6062 2.81315 14.7364C2.7188 14.8664 2.68759 15.0476 2.73106 15.2131C3.31896 17.455 4.83258 19.104 6.66241 19.6067C5.14476 20.7677 3.4092 21.3759 1.58727 21.3759C1.20711 21.3759 0.824772 21.3486 0.45058 21.2945C0.264694 21.2675 0.0869523 21.4016 0.0236461 21.6175C-0.0396602 21.8335 0.0274364 22.0743 0.185581 22.1982C2.52614 24.0311 5.2325 25 8.01193 25C13.4759 25 16.8941 21.8529 18.7993 19.2128C21.1751 15.9208 22.5377 11.5635 22.5377 7.2581C22.5377 7.07824 22.5354 6.89661 22.5309 6.71556C23.4682 5.85299 24.2753 4.80909 24.932 3.60925C25.0317 3.42703 25.0209 3.18619 24.9053 3.01845C24.7899 2.8506 24.5976 2.79633 24.4334 2.88518Z"
            fill="url(#paint0_linear_39_117)"
          />
          <defs>
            <linearGradient
              id="paint0_linear_39_117"
              x1="12.5"
              y1="0"
              x2="12.5"
              y2="25"
              gradientUnits="userSpaceOnUse"
            >
              <stop stopColor="#180B23" />
              <stop offset="1" stopColor="#4D194D" />
            </linearGradient>
          </defs>
        </svg>