<svg
              xmlns="http://www.w3.org/2000/svg"
              width="35"
              height="30"
              viewBox="0 0 35 30"
              fill="none"
            >
              <path
                fillRule="evenodd"
                clipRule="evenodd"
                d="M23.9167 23.027C24.2387 23.027 24.5 22.8053 24.5 22.532V22.037H25.0833C25.4053 22.037 25.6667 21.8152 25.6667 21.542C25.6667 21.2687 25.4053 21.0469 25.0833 21.0469H24.5V20.5519C24.5 20.2787 24.2387 20.0569 23.9167 20.0569C23.5947 20.0569 23.3333 20.2787 23.3333 20.5519V21.0469H22.75C22.428 21.0469 22.1667 21.2687 22.1667 21.542C22.1667 21.8152 22.428 22.037 22.75 22.037H23.3333V22.532C23.3333 22.8053 23.5947 23.027 23.9167 23.027ZM32.0833 3.72119C32.0833 3.99444 32.3447 4.21621 32.6667 4.21621C32.9887 4.21621 33.25 3.99444 33.25 3.72119C33.572 3.72119 33.8333 3.49942 33.8333 3.22617C33.8333 2.95292 33.572 2.73115 33.25 2.73115C33.25 2.4579 32.9887 2.23613 32.6667 2.23613C32.3447 2.23613 32.0833 2.4579 32.0833 2.73115C31.7613 2.73115 31.5 2.95292 31.5 3.22617C31.5 3.49942 31.7613 3.72119 32.0833 3.72119ZM17.5 6.1963C12.9967 6.1963 9.33333 9.30503 9.33333 13.1266C9.33333 13.3998 9.59467 13.6216 9.91667 13.6216C10.2387 13.6216 10.5 13.3998 10.5 13.1266C10.5 9.85104 13.6401 7.18634 17.5 7.18634C21.3599 7.18634 24.5 9.85104 24.5 13.1266C24.5 13.3998 24.7613 13.6216 25.0833 13.6216C25.4053 13.6216 25.6667 13.3998 25.6667 13.1266C25.6667 9.30503 22.0033 6.1963 17.5 6.1963ZM27.4167 13.6216C27.7387 13.6216 28 13.3998 28 13.1266C28 8.21351 23.2896 4.21621 17.5 4.21621C11.7104 4.21621 7 8.21351 7 13.1266C7 13.3998 7.26133 13.6216 7.58333 13.6216C7.90533 13.6216 8.16667 13.3998 8.16667 13.1266C8.16667 8.75952 12.3538 5.20626 17.5 5.20626C22.6462 5.20626 26.8333 8.75952 26.8333 13.1266C26.8333 13.3998 27.0947 13.6216 27.4167 13.6216ZM5.25 13.6216C5.572 13.6216 5.83333 13.3998 5.83333 13.1266C5.83333 7.6675 11.067 3.22617 17.5 3.22617C23.933 3.22617 29.1667 7.6675 29.1667 13.1266C29.1667 13.3998 29.428 13.6216 29.75 13.6216C30.072 13.6216 30.3333 13.3998 30.3333 13.1266C30.3333 7.12149 24.5764 2.23613 17.5 2.23613C10.4236 2.23613 4.66667 7.12149 4.66667 13.1266C4.66667 13.3998 4.928 13.6216 5.25 13.6216ZM11.6089 18.5718L11.5523 18.5619C11.3213 18.5228 11.1411 18.3699 11.095 18.1738L11.0833 18.1258L11.0717 18.1738C11.0256 18.3699 10.8453 18.5228 10.6143 18.5619L10.5577 18.5718L10.6143 18.5817C10.8453 18.6208 11.0256 18.7738 11.0717 18.9698L11.0833 19.0178L11.095 18.9698C11.1411 18.7738 11.3213 18.6208 11.5523 18.5817L11.6089 18.5718ZM14.6977 18.0867C14.9707 18.1327 15.1667 18.3357 15.1667 18.5718C15.1667 18.808 14.9707 19.0109 14.6977 19.057L12.1625 19.4876L11.655 21.639C11.6007 21.8707 11.3616 22.037 11.0833 22.037C10.8051 22.037 10.5659 21.8707 10.5117 21.639L10.0042 19.4876L7.469 19.057C7.196 19.0109 7 18.808 7 18.5718C7 18.3357 7.196 18.1327 7.469 18.0867L10.0042 17.656L10.5117 15.5047C10.5659 15.273 10.8051 15.1067 11.0833 15.1067C11.3616 15.1067 11.6007 15.273 11.655 15.5047L12.1625 17.656L14.6977 18.0867ZM22.75 1.74111C22.75 2.01436 23.0113 2.23613 23.3333 2.23613C23.6553 2.23613 23.9167 2.01436 23.9167 1.74111C24.2387 1.74111 24.5 1.51934 24.5 1.24609C24.5 0.972833 24.2387 0.751064 23.9167 0.751064C23.9167 0.477812 23.6553 0.256042 23.3333 0.256042C23.0113 0.256042 22.75 0.477812 22.75 0.751064C22.428 0.751064 22.1667 0.972833 22.1667 1.24609C22.1667 1.51934 22.428 1.74111 22.75 1.74111ZM5.25 2.23613H5.83333V2.73115C5.83333 3.0044 6.09467 3.22617 6.41667 3.22617C6.73867 3.22617 7 3.0044 7 2.73115V2.23613H7.58333C7.90533 2.23613 8.16667 2.01436 8.16667 1.74111C8.16667 1.46785 7.90533 1.24609 7.58333 1.24609H7V0.751064C7 0.477812 6.73867 0.256042 6.41667 0.256042C6.09467 0.256042 5.83333 0.477812 5.83333 0.751064V1.24609H5.25C4.928 1.24609 4.66667 1.46785 4.66667 1.74111C4.66667 2.01436 4.928 2.23613 5.25 2.23613ZM16.9167 8.67141V25.5021C16.9167 25.7754 17.178 25.9972 17.5 25.9972C17.822 25.9972 18.0833 25.7754 18.0833 25.5021V8.67141C18.0833 8.39815 17.822 8.17638 17.5 8.17638C17.178 8.17638 16.9167 8.39815 16.9167 8.67141ZM35 8.17638V27.4822C35 28.847 33.6916 29.9573 32.0833 29.9573H2.91667C1.30842 29.9573 0 28.847 0 27.4822V8.17638C0 7.90313 0.261333 7.68136 0.583333 7.68136C0.905333 7.68136 1.16667 7.90313 1.16667 8.17638V27.4822C1.16667 28.301 1.95183 28.9673 2.91667 28.9673H16.9167V27.8035C16.205 27.5505 14.3827 26.9872 12.25 26.9872C7.1505 26.9872 3.11675 27.9485 3.0765 27.9579C3.024 27.9708 2.97033 27.9772 2.91667 27.9772C2.79125 27.9772 2.66758 27.9431 2.56492 27.8772C2.41908 27.7837 2.33333 27.6372 2.33333 27.4822V5.70128C2.33333 5.4805 2.506 5.28595 2.75625 5.22556C2.81225 5.2117 4.15275 4.88944 6.29067 4.61075C6.60567 4.56768 6.90608 4.7543 6.95567 5.02458C7.00467 5.29487 6.78592 5.54733 6.46742 5.58891C5.09192 5.7686 4.046 5.96958 3.5 6.08393V26.8451C4.92158 26.5595 8.232 25.9972 12.25 25.9972C14.7607 25.9972 16.8362 26.6882 17.5227 26.9456C18.2951 26.7055 20.7917 25.9972 23.3333 25.9972C27.2428 25.9972 30.1782 26.5303 31.5 26.8243V6.05274C31.0077 5.92305 30.0037 5.70573 28.5011 5.5998C28.1803 5.57703 27.9417 5.33793 27.9685 5.06518C27.9953 4.79291 28.273 4.58797 28.5979 4.61322C31.0205 4.7845 32.2612 5.22754 32.3132 5.24635C32.5278 5.32407 32.6667 5.50327 32.6667 5.70128V27.4822C32.6667 27.6411 32.5762 27.7906 32.4246 27.8837C32.2723 27.9762 32.0763 28.002 31.8996 27.952C31.8646 27.9421 28.4142 26.9872 23.3333 26.9872C21.1487 26.9872 18.9338 27.5758 18.0833 27.8282V28.9673H32.0833C33.0482 28.9673 33.8333 28.301 33.8333 27.4822V8.17638C33.8333 7.90313 34.0947 7.68136 34.4167 7.68136C34.7387 7.68136 35 7.90313 35 8.17638Z"
                fill="url(#paint0_linear_1_973)"
              />
              <defs>
                <linearGradient
                  id="paint0_linear_1_973"
                  x1="17.5"
                  y1="0.256042"
                  x2="17.5"
                  y2="29.9573"
                  gradientUnits="userSpaceOnUse"
                >
                  <stop stopColor="#A4945E" />
                  <stop offset="1" stopColor="#180B23" />
                </linearGradient>
              </defs>
            </svg>