<svg xmlns="http://www.w3.org/2000/svg" width="26" height="37" viewBox="0 0 26 37" fill="none">
<path d="M12.9997 8.1455C9.85403 8.1455 7.26855 10.8008 7.26855 14.0756C7.26855 17.3505 9.85403 20.0058 12.9997 20.0058C16.1454 20.0058 18.7308 17.3505 18.7308 14.0756C18.7308 10.8008 16.1454 8.1455 12.9997 8.1455ZM12.9997 16.9079C11.4915 16.9079 10.2849 15.6246 10.2849 14.0756C10.2849 12.5267 11.4915 11.2433 12.9997 11.2433C14.5079 11.2433 15.7144 12.5267 15.7144 14.0756C15.7144 15.6246 14.5079 16.9079 12.9997 16.9079Z" fill="url(#paint0_linear_1_978)"/>
<path d="M12.9995 0.489319C6.19109 0.489319 0.503046 6.10968 0.0290425 13.279C-0.186414 16.4653 0.804685 19.6959 2.74379 22.3954L11.7499 35.6719C12.0515 36.0702 12.4824 36.3357 12.9995 36.3357C13.5166 36.3357 13.9475 36.0702 14.2492 35.6719L23.2552 22.3954C25.2374 19.6959 26.1854 16.421 25.97 13.279C25.496 6.10968 19.8079 0.489319 12.9995 0.489319ZM20.8421 20.581C20.799 20.581 20.799 20.581 20.8421 20.581L12.9995 32.0872L5.19999 20.6252C5.19999 20.6252 5.19999 20.581 5.1569 20.581C3.60562 18.4568 2.82997 15.9342 3.00234 13.5002C3.30398 8.6322 7.1391 3.63141 12.9564 3.63141C18.7737 3.63141 22.6089 8.67645 22.9105 13.5002C23.1259 15.9342 22.3503 18.4568 20.8421 20.581Z" fill="url(#paint1_linear_1_978)"/>
<defs>
<linearGradient id="paint0_linear_1_978" x1="12.9997" y1="8.1455" x2="12.9997" y2="20.0058" gradientUnits="userSpaceOnUse">
<stop stop-color="#A4945E"/>
<stop offset="1" stop-color="#180B23"/>
</linearGradient>
<linearGradient id="paint1_linear_1_978" x1="13" y1="0.489319" x2="13" y2="36.3357" gradientUnits="userSpaceOnUse">
<stop stop-color="#A4945E"/>
<stop offset="1" stop-color="#180B23"/>
</linearGradient>
</defs>
</svg>