<svg xmlns="http://www.w3.org/2000/svg" width="32" height="34" viewBox="0 0 32 34" fill="none">
  <path d="M15.9996 22.9197C19.6171 22.9197 22.5602 19.9051 22.5602 16.1999C22.5602 12.4948 19.6171 9.48051 15.9996 9.48051C12.382 9.48051 9.43896 12.4952 9.43896 16.1999C9.43896 19.9051 12.382 22.9197 15.9996 22.9197ZM15.9996 11.2381C18.6705 11.2381 20.8442 13.4639 20.8442 16.1999C20.8442 18.9359 18.6705 21.1618 15.9996 21.1618C13.3286 21.1618 11.155 18.9359 11.155 16.1999C11.155 13.4639 13.3286 11.2381 15.9996 11.2381Z" fill="url(#paint0_linear_1_970)"/>
  <path d="M16 33.6415C24.8223 33.6415 32 26.2905 32 17.2546C32 8.21877 24.8223 0.867706 16 0.867706C7.1777 0.867706 0 8.21877 0 17.2546C0 26.2905 7.1777 33.6415 16 33.6415ZM16 31.884C12.7497 31.884 9.75154 30.7643 7.34851 28.8848C9.82863 26.9473 12.8624 25.8876 16 25.8876C19.1376 25.8876 22.1706 26.9477 24.6507 28.8852C22.2481 30.7643 19.2499 31.884 16 31.884ZM16 2.62526C23.8761 2.62526 30.2836 9.18792 30.2836 17.2546C30.2836 21.2706 28.6949 24.913 26.1283 27.5592C26.1147 27.5735 26.1011 27.5882 26.0871 27.6025C26.0512 27.6393 26.0134 27.6741 25.9768 27.7101C23.1479 25.396 19.6353 24.13 16.0004 24.13C12.3654 24.13 8.85291 25.396 6.024 27.7101C5.98659 27.673 5.94766 27.6374 5.91063 27.5998C5.90232 27.5909 5.89362 27.582 5.88531 27.5727C3.31034 24.9254 1.71639 21.2775 1.71639 17.2546C1.71639 9.18792 8.12395 2.62526 16 2.62526Z" fill="url(#paint1_linear_1_970)"/>
  <defs>
    <linearGradient id="paint0_linear_1_970" x1="15.9996" y1="9.48051" x2="15.9996" y2="22.9197" gradientUnits="userSpaceOnUse">
      <stop stop-color="#180B23"/>
      <stop offset="1" stop-color="#A4945E"/>
    </linearGradient>
    <linearGradient id="paint1_linear_1_970" x1="16" y1="0.867706" x2="16" y2="33.6415" gradientUnits="userSpaceOnUse">
      <stop stop-color="#180B23"/>
      <stop offset="1" stop-color="#A4945E"/>
    </linearGradient>
  </defs>
</svg>