<svg
              xmlns="http://www.w3.org/2000/svg"
              width="34"
              height="38"
              viewBox="0 0 34 38"
              fill="none"
            >
              <path
                d="M30.2445 27.0052C29.5587 26.447 28.7405 26.1191 27.8888 26.0611H27.6152C26.5953 26.0647 25.6074 26.4528 24.8164 27.1606C24.0253 27.8685 23.479 28.8533 23.2686 29.9506C23.2076 30.2792 23.177 30.6137 23.1774 30.9491C23.1705 31.9871 23.469 32.9997 24.0285 33.8359C24.4102 34.3944 24.8965 34.8562 25.4545 35.1902C26.0125 35.5242 26.6293 35.7225 27.2631 35.7718C27.8968 35.8211 28.5328 35.7202 29.128 35.4759C29.7233 35.2316 30.2639 34.8496 30.7132 34.3558C31.1626 33.862 31.5104 33.2678 31.7329 32.6135C31.9554 31.9591 32.0476 31.2599 32.0032 30.563C31.9587 29.8661 31.7787 29.1879 31.4753 28.5741C31.1719 27.9603 30.7522 27.4253 30.2445 27.0052ZM27.6152 34.9932C27.0367 34.9897 26.467 34.8366 25.9522 34.5463C25.4373 34.256 24.9918 33.8366 24.6516 33.3221C24.184 32.63 23.9321 31.7904 23.9335 30.9282C23.9332 30.6476 23.9587 30.3676 24.0095 30.0926C24.185 29.1833 24.6386 28.3677 25.2947 27.7815C25.9509 27.1954 26.7699 26.8742 27.6152 26.8715H27.8432C28.5481 26.9185 29.2253 27.19 29.7924 27.6528C30.4168 28.1574 30.8803 28.8659 31.1168 29.6773C31.3533 30.4887 31.3506 31.3615 31.1093 32.1712C30.8679 32.9808 30.4001 33.686 29.7726 34.186C29.1452 34.686 28.3902 34.9554 27.6152 34.9556V34.9932Z"
                fill="url(#paint0_linear_1_974)"
              />
              <path
                d="M27.9953 27.3605H27.2354V30.8323C27.2352 30.8947 27.2477 30.9564 27.272 31.0128C27.2963 31.0692 27.3319 31.1188 27.3759 31.1582L28.9338 32.5243L29.4087 31.8726L27.9953 30.6192V27.3605Z"
                fill="url(#paint1_linear_1_974)"
              />
              <path
                d="M31.6199 25.3807V12.4588V6.19211C31.6199 5.84757 31.5582 5.5064 31.4383 5.18809C31.3184 4.86977 31.1426 4.58054 30.921 4.33691C30.6995 4.09328 30.4364 3.90002 30.1469 3.76817C29.8574 3.63632 29.5472 3.56846 29.2338 3.56846H26.9921V2.05192C26.9921 1.80303 26.9474 1.55659 26.8607 1.32671C26.774 1.09682 26.6468 0.888003 26.4866 0.712209C26.3264 0.536416 26.1362 0.397099 25.9269 0.302236C25.7176 0.207373 25.4934 0.158826 25.2671 0.159376H24.8643C24.638 0.158826 24.4137 0.207373 24.2045 0.302236C23.9952 0.397099 23.805 0.536416 23.6448 0.712209C23.4846 0.888003 23.3574 1.09682 23.2707 1.32671C23.184 1.55659 23.1393 1.80303 23.1393 2.05192V3.55592H17.7249V2.05192C17.7249 1.54998 17.5436 1.06861 17.2208 0.713688C16.898 0.358768 16.4602 0.159376 16.0037 0.159376H15.6238C15.1673 0.159376 14.7295 0.358768 14.4067 0.713688C14.0839 1.06861 13.9026 1.54998 13.9026 2.05192V3.55592H8.46922V2.05192C8.46922 1.80197 8.42421 1.5545 8.33676 1.32379C8.24931 1.09308 8.12117 0.883704 7.95973 0.707745C7.79829 0.531786 7.60674 0.392732 7.39616 0.298612C7.18558 0.204491 6.96012 0.157169 6.73282 0.159376H6.35286C6.12651 0.158826 5.90228 0.207373 5.69302 0.302236C5.48376 0.397099 5.29356 0.536416 5.13333 0.712209C4.9731 0.888003 4.84598 1.09682 4.75924 1.32671C4.67251 1.55659 4.62786 1.80303 4.62786 2.05192V3.55592H2.38612C1.75328 3.55592 1.14636 3.83235 0.698879 4.32438C0.251394 4.81641 0 5.48374 0 6.17958V12.4463V32.3159C0.00100482 33.0114 0.252722 33.6781 0.699989 34.1699C1.14726 34.6617 1.75359 34.9384 2.38612 34.9395H22.9265C23.4665 35.6994 24.1471 36.3245 24.9232 36.7734C25.6994 37.2224 26.5534 37.485 27.4288 37.5438C28.3042 37.6027 29.1809 37.4564 30.001 37.1148C30.8211 36.7731 31.5659 36.2439 32.186 35.562C32.8062 34.8801 33.2875 34.0612 33.5982 33.1595C33.909 32.2577 34.042 31.2937 33.9885 30.3312C33.9349 29.3687 33.6961 28.4296 33.2878 27.5762C32.8795 26.7228 32.311 25.9745 31.6199 25.3807ZM0.748513 10.136H30.86V12.041H0.748513V10.136ZM23.8992 3.9737V2.05192C23.9002 1.7712 24.0024 1.50237 24.1832 1.30426C24.3641 1.10616 24.609 0.994933 24.8643 0.994935H25.2671C25.5224 0.994933 25.7673 1.10616 25.9481 1.30426C26.129 1.50237 26.2311 1.7712 26.2322 2.05192V6.9483H23.8992V3.9737ZM14.6435 3.9737V2.05192C14.6445 1.77193 14.7461 1.50372 14.9262 1.30573C15.1062 1.10775 15.3501 0.996035 15.6048 0.994935H15.9847C16.2394 0.996035 16.4833 1.10775 16.6634 1.30573C16.8434 1.50372 16.945 1.77193 16.946 2.05192V6.9483H14.6435V3.9737ZM5.37638 3.9737V2.05192C5.37687 1.91185 5.40257 1.77329 5.45201 1.6442C5.50144 1.51511 5.57363 1.39807 5.66441 1.29981C5.75519 1.20155 5.86276 1.12402 5.98092 1.07169C6.09908 1.01937 6.22549 0.99328 6.35286 0.994935H6.73282C6.98812 0.994933 7.23302 1.10616 7.4139 1.30426C7.59478 1.50237 7.6969 1.7712 7.69791 2.05192V6.9483H5.37638V3.9737ZM0.748513 6.17958C0.748513 5.70535 0.919845 5.25054 1.22482 4.91521C1.52979 4.57987 1.94343 4.39148 2.37472 4.39148H4.61646V7.36608C4.61646 7.47688 4.65649 7.58314 4.72775 7.66149C4.79901 7.73984 4.89565 7.78386 4.99642 7.78386H8.08926C8.19003 7.78386 8.28667 7.73984 8.35793 7.66149C8.42919 7.58314 8.46922 7.47688 8.46922 7.36608V4.39148H13.8836V7.36608C13.8836 7.47688 13.9236 7.58314 13.9949 7.66149C14.0661 7.73984 14.1628 7.78386 14.2635 7.78386H17.345C17.4458 7.78386 17.5424 7.73984 17.6137 7.66149C17.6849 7.58314 17.7249 7.47688 17.7249 7.36608V4.39148H23.1393V7.36608C23.1393 7.47688 23.1793 7.58314 23.2506 7.66149C23.3219 7.73984 23.4185 7.78386 23.5193 7.78386H26.6121C26.7129 7.78386 26.8095 7.73984 26.8808 7.66149C26.952 7.58314 26.9921 7.47688 26.9921 7.36608V4.39148H29.2338C29.6651 4.39148 30.0787 4.57987 30.3837 4.91521C30.6887 5.25054 30.86 5.70535 30.86 6.17958V9.3004H0.748513V6.17958ZM2.37472 34.104C1.94343 34.104 1.52979 33.9156 1.22482 33.5803C0.919845 33.2449 0.748513 32.7901 0.748513 32.3159V12.8766H30.86V24.8126L30.8106 24.7875C30.6321 24.6751 30.4482 24.5732 30.2597 24.4825L30.1609 24.4407C29.9899 24.3614 29.8113 24.2903 29.6328 24.2277L29.5302 24.1942C29.3364 24.1316 29.1502 24.0814 28.9336 24.0397L28.8007 24.0146L28.5271 23.9686V15.8512C28.5271 15.7404 28.4871 15.6341 28.4158 15.5558C28.3445 15.4774 28.2479 15.4334 28.1471 15.4334H3.45C3.34923 15.4334 3.25259 15.4774 3.18133 15.5558C3.11007 15.6341 3.07004 15.7404 3.07004 15.8512V29.429C3.07004 29.5398 3.11007 29.6461 3.18133 29.7244C3.25259 29.8028 3.34923 29.8468 3.45 29.8468H21.6499C21.6108 30.1415 21.5904 30.4389 21.5891 30.7367C21.5891 30.9038 21.5891 31.0709 21.6081 31.238V31.3968C21.6081 31.5096 21.6309 31.6224 21.6461 31.7352C21.6613 31.848 21.6651 31.8563 21.6727 31.9148C21.6803 31.9733 21.7107 32.1279 21.7335 32.2365L21.7677 32.4036C21.7943 32.5248 21.8285 32.6459 21.8589 32.7629L21.8931 32.8799C21.9387 33.0345 21.9918 33.189 22.0488 33.3394C22.0488 33.3812 22.083 33.423 22.102 33.4648C22.1438 33.5734 22.1894 33.6778 22.2388 33.7865C22.2882 33.8951 22.292 33.8951 22.3186 33.9536C22.3452 34.0121 22.3642 34.0538 22.3908 34.104H2.37472ZM9.25193 22.2223H3.83755V16.269H9.25193V22.2223ZM3.83755 23.0579H9.25193V29.0112H3.83755V23.0579ZM15.4262 22.2223H10.0118V16.269H15.4262V22.2223ZM10.0118 23.0579H15.4262V29.0112H10.0118V23.0579ZM27.7748 22.2223H22.3604V16.269H27.7748V22.2223ZM21.6005 22.2223H16.1861V16.269H21.6005V22.2223ZM16.1861 23.0579H21.5967V29.0112H16.1861V23.0579ZM22.3604 27.4613V23.0579H27.7748V23.9185C27.6114 23.9185 27.4518 23.9185 27.2922 23.9436H27.1554C27.0339 23.9436 26.9161 23.9603 26.8021 23.9937L26.6387 24.0271C26.5247 24.0271 26.4107 24.0773 26.2967 24.1107L26.1638 24.1483C26.008 24.1942 25.856 24.2444 25.704 24.3029L25.6508 24.3279C25.5166 24.3836 25.3899 24.4421 25.2709 24.5034L25.1303 24.5786C25.0315 24.6287 24.9327 24.683 24.8339 24.7457L24.6971 24.8293C24.5907 24.8961 24.4882 24.9671 24.3856 25.0423L24.2868 25.1217C24.1576 25.2178 24.0284 25.3222 23.9068 25.4309L23.8308 25.5395C23.7396 25.623 23.6523 25.7108 23.5649 25.8027L23.4471 25.9238L23.2191 26.1871L23.1165 26.3124C23.0253 26.4294 22.9341 26.5547 22.8468 26.68L22.8202 26.7176C22.7252 26.8597 22.6378 27.0017 22.5542 27.1354C22.5276 27.1772 22.5048 27.2273 22.4782 27.2733C22.4516 27.3192 22.3908 27.3944 22.3604 27.4613ZM27.7976 36.7151C27.0712 36.7362 26.3484 36.5971 25.6717 36.3061C24.995 36.015 24.3782 35.5779 23.8576 35.0205C23.3371 34.463 22.9234 33.7966 22.6409 33.0605C22.3584 32.3244 22.2128 31.5335 22.2128 30.7346C22.2128 29.9356 22.3584 29.1448 22.6409 28.4087C22.9234 27.6726 23.3371 27.0061 23.8576 26.4487C24.3782 25.8913 24.995 25.4541 25.6717 25.1631C26.3484 24.872 27.0712 24.733 27.7976 24.7541C27.9116 24.7541 28.0217 24.7541 28.1281 24.7541C28.2801 24.7541 28.4321 24.7833 28.5841 24.8084C29.4645 24.9471 30.2993 25.3263 31.012 25.9113C31.9357 26.6564 32.6216 27.7035 32.9716 28.903C33.3217 30.1024 33.3179 31.3929 32.961 32.5898C32.604 33.7868 31.9121 34.8291 30.984 35.5677C30.056 36.3064 28.9394 36.7036 27.7938 36.7026L27.7976 36.7151Z"
                fill="url(#paint2_linear_1_974)"
              />
              <defs>
                <linearGradient
                  id="paint0_linear_1_974"
                  x1="27.5956"
                  y1="26.0611"
                  x2="27.5956"
                  y2="35.784"
                  gradientUnits="userSpaceOnUse"
                >
                  <stop stopColor="#A4945E" />
                  <stop offset="1" stopColor="#180B23" />
                </linearGradient>
                <linearGradient
                  id="paint1_linear_1_974"
                  x1="28.322"
                  y1="27.3605"
                  x2="28.322"
                  y2="32.5243"
                  gradientUnits="userSpaceOnUse"
                >
                  <stop stopColor="#A4945E" />
                  <stop offset="1" stopColor="#180B23" />
                </linearGradient>
                <linearGradient
                  id="paint2_linear_1_974"
                  x1="17"
                  y1="0.159302"
                  x2="17"
                  y2="37.5565"
                  gradientUnits="userSpaceOnUse"
                >
                  <stop stopColor="#A4945E" />
                  <stop offset="1" stopColor="#180B23" />
                </linearGradient>
              </defs>
            </svg>