<svg width="55" height="53" viewBox="0 0 55 53" fill="none" xmlns="http://www.w3.org/2000/svg">
<path d="M55 26.0376C55 11.6909 42.6525 0 27.5 0C12.3475 0 0 11.6909 0 26.0376C0 33.5885 3.4375 40.3843 8.8825 45.1491C8.8825 45.1752 8.8825 45.1752 8.855 45.2012C9.13 45.4616 9.46 45.6699 9.735 45.9042C9.9 46.0344 10.0375 46.1646 10.2025 46.2688C10.6975 46.6593 11.2475 47.0238 11.77 47.3884C11.9625 47.5186 12.1275 47.6227 12.32 47.7529C12.8425 48.0914 13.3925 48.4038 13.97 48.6902C14.1625 48.7944 14.3825 48.9246 14.575 49.0287C15.125 49.3151 15.7025 49.5755 16.3075 49.8099C16.5275 49.914 16.7475 50.0182 16.9675 50.0963C17.5725 50.3306 18.1775 50.5389 18.7825 50.7212C19.0025 50.7993 19.2225 50.8774 19.4425 50.9295C20.1025 51.1117 20.7625 51.268 21.4225 51.4242C21.615 51.4763 21.8075 51.5283 22.0275 51.5544C22.7975 51.7106 23.5675 51.8148 24.365 51.8929C24.475 51.8929 24.585 51.9189 24.695 51.9449C25.63 52.0231 26.565 52.0751 27.5 52.0751C28.435 52.0751 29.37 52.0231 30.2775 51.9449C30.3875 51.9449 30.4975 51.9189 30.6075 51.8929C31.405 51.8148 32.175 51.7106 32.945 51.5544C33.1375 51.5283 33.33 51.4502 33.55 51.4242C34.21 51.268 34.8975 51.1378 35.53 50.9295C35.75 50.8514 35.97 50.7733 36.19 50.7212C36.795 50.5129 37.4275 50.3306 38.005 50.0963C38.225 50.0182 38.445 49.914 38.665 49.8099C39.2425 49.5755 39.82 49.3151 40.3975 49.0287C40.6175 48.9246 40.81 48.7944 41.0025 48.6902C41.5525 48.3778 42.1025 48.0914 42.6525 47.7529C42.845 47.6487 43.01 47.5186 43.2025 47.3884C43.7525 47.0238 44.275 46.6593 44.77 46.2688C44.935 46.1386 45.0725 46.0084 45.2375 45.9042C45.54 45.6699 45.8425 45.4356 46.1175 45.2012C46.1175 45.1752 46.1175 45.1752 46.09 45.1491C51.5625 40.3843 55 33.5885 55 26.0376ZM41.085 38.9782C33.6325 34.2394 21.4225 34.2394 13.915 38.9782C12.705 39.7333 11.715 40.6186 10.89 41.582C6.71 37.5722 4.125 32.0783 4.125 26.0376C4.125 13.8259 14.6025 3.90563 27.5 3.90563C40.3975 3.90563 50.875 13.8259 50.875 26.0376C50.875 32.0783 48.29 37.5722 44.11 41.582C43.3125 40.6186 42.295 39.7333 41.085 38.9782Z" fill="#A4945E"/>
<path d="M27.5 12.8356C21.8075 12.8356 17.1875 17.21 17.1875 22.5998C17.1875 27.8854 21.56 32.1816 27.3625 32.3378H27.61H27.8025H27.8575C33.4125 32.1555 37.785 27.8854 37.8125 22.5998C37.8125 17.21 33.1925 12.8356 27.5 12.8356Z" fill="#A4945E"/>
</svg>
