<svg width="67" height="63" viewBox="0 0 67 63" fill="none" xmlns="http://www.w3.org/2000/svg">
<path d="M65.3051 39.0701L59.3702 35.9455C59.9693 32.9988 59.9693 29.9758 59.3702 27.029L65.3051 23.9045C65.9877 23.5488 66.2942 22.8121 66.0713 22.1262C64.5249 17.6045 61.8919 13.5146 58.4508 10.1106C57.9214 9.5898 57.0576 9.46279 56.3889 9.81843L50.454 12.943C47.9603 10.987 45.0904 9.47549 41.9836 8.48477V2.2483C41.9836 1.53701 41.4403 0.914632 40.6741 0.762213C35.5612 -0.279315 30.3229 -0.228509 25.4608 0.762213C24.6946 0.914632 24.1512 1.53701 24.1512 2.2483V8.49747C21.0584 9.50089 18.1885 11.0124 15.6808 12.9557L9.75992 9.83113C9.07727 9.47549 8.22744 9.5898 7.69805 10.1233C4.25695 13.5146 1.62388 17.6045 0.0774762 22.1389C-0.159361 22.8248 0.161066 23.5615 0.843713 23.9172L6.77856 27.0418C6.1795 29.9885 6.1795 33.0115 6.77856 35.9583L0.843713 39.0828C0.161066 39.4385 -0.145429 40.1752 0.0774762 40.8611C1.62388 45.3828 4.25695 49.4727 7.69805 52.8767C8.22744 53.3975 9.0912 53.5245 9.75992 53.1689L15.6948 50.0443C18.1885 52.0003 21.0584 53.5118 24.1652 54.5025V60.7517C24.1652 61.463 24.7085 62.0854 25.4747 62.2378C30.5876 63.2793 35.8259 63.2285 40.688 62.2378C41.4542 62.0854 41.9976 61.463 41.9976 60.7517V54.5025C45.0904 53.4991 47.9603 51.9876 50.468 50.0443L56.4028 53.1689C57.0855 53.5245 57.9353 53.4102 58.4647 52.8767C61.9058 49.4854 64.5389 45.3955 66.0853 40.8611C66.2942 40.1625 65.9877 39.4258 65.3051 39.0701ZM33.0674 41.6486C26.9236 41.6486 21.9222 37.0887 21.9222 31.4873C21.9222 25.8859 26.9236 21.326 33.0674 21.326C39.2113 21.326 44.2127 25.8859 44.2127 31.4873C44.2127 37.0887 39.2113 41.6486 33.0674 41.6486Z" fill="url(#paint0_linear_1195_1223)"/>
<defs>
<linearGradient id="paint0_linear_1195_1223" x1="33.075" y1="0" x2="33.075" y2="63" gradientUnits="userSpaceOnUse">
<stop stop-color="#A4945E"/>
<stop offset="1" stop-color="#E2D07C"/>
</linearGradient>
</defs>
</svg>
