<svg width="17" height="23" viewBox="0 0 17 23" fill="none" xmlns="http://www.w3.org/2000/svg">
<path d="M8.50021 4.8796C6.44343 4.8796 4.75293 6.57193 4.75293 8.65913C4.75293 10.7463 6.44343 12.4387 8.50021 12.4387C10.557 12.4387 12.2475 10.7463 12.2475 8.65913C12.2475 6.57193 10.557 4.8796 8.50021 4.8796ZM8.50021 10.4643C7.51408 10.4643 6.72518 9.64632 6.72518 8.65913C6.72518 7.67194 7.51408 6.85398 8.50021 6.85398C9.48634 6.85398 10.2752 7.67194 10.2752 8.65913C10.2752 9.64632 9.48634 10.4643 8.50021 10.4643Z" fill="url(#paint0_linear_1195_1127)"/>
<path d="M8.49968 0C4.04802 0 0.328915 3.58209 0.0189893 8.15136C-0.121886 10.1821 0.52614 12.2411 1.79402 13.9617L7.6826 22.4233C7.87983 22.6771 8.16158 22.8464 8.49968 22.8464C8.83778 22.8464 9.11953 22.6771 9.31675 22.4233L15.2053 13.9617C16.5014 12.2411 17.1212 10.1539 16.9804 8.15136C16.6704 3.58209 12.9513 0 8.49968 0ZM13.6275 12.8053C13.5994 12.8053 13.5994 12.8053 13.6275 12.8053L8.49968 20.1387L3.39999 12.8335C3.39999 12.8335 3.39999 12.8053 3.37182 12.8053C2.35752 11.4514 1.85037 9.84369 1.96307 8.29239C2.16029 5.18979 4.66787 2.00258 8.4715 2.00258C12.2751 2.00258 14.7827 5.218 14.9799 8.29239C15.1208 9.84369 14.6137 11.4514 13.6275 12.8053Z" fill="url(#paint1_linear_1195_1127)"/>
<defs>
<linearGradient id="paint0_linear_1195_1127" x1="8.50021" y1="4.8796" x2="8.50021" y2="12.4387" gradientUnits="userSpaceOnUse">
<stop stop-color="#F6F6E9"/>
<stop offset="1" stop-color="#E2D07C"/>
</linearGradient>
<linearGradient id="paint1_linear_1195_1127" x1="8.5" y1="0" x2="8.5" y2="22.8464" gradientUnits="userSpaceOnUse">
<stop stop-color="#F6F6E9"/>
<stop offset="1" stop-color="#E2D07C"/>
</linearGradient>
</defs>
</svg>
