<svg width="77" height="77" viewBox="0 0 77 77" fill="none" xmlns="http://www.w3.org/2000/svg">
<mask id="mask0_358_200" style="mask-type:luminance" maskUnits="userSpaceOnUse" x="0" y="0" width="77" height="77">
<path d="M76.8828 58.0568L58.019 5.12772e-05L0.00459876 18.8501L18.8684 76.9068L76.8828 58.0568Z" fill="white"/>
</mask>
<g mask="url(#mask0_358_200)">
<path d="M-50.0371 36.4337C-50.011 36.4292 -25.9873 39.3711 -25.9637 39.3714C-25.1719 39.4685 -24.5614 40.253 -24.6554 41.0582L-27.1047 65.4354C-27.1193 65.6203 -27.1682 65.8083 -27.2544 65.9845C-27.5456 66.5875 -28.1801 66.9018 -28.8026 66.8118L-52.8163 63.8946C-53.005 63.8519 -53.1943 63.7893 -53.3705 63.7124C-53.9033 63.4151 -54.201 62.8072 -54.1536 62.2032L-51.7041 37.778C-51.6547 37.3376 -51.4195 36.9369 -51.0633 36.685C-50.7687 36.4852 -50.3915 36.3887 -50.0371 36.4337ZM-48.8976 61.2942L-36.9727 62.7424L-45.3981 58.4556L-48.8976 61.2942ZM-29.8841 62.9454L-28.0167 44.3644L-42.8187 56.3643L-29.8841 62.9454ZM-44.7133 53.9672L-29.9102 41.9649L-48.2211 39.7311L-44.7133 53.9672ZM-84.4608 83.567C-84.0665 83.541 -69.9283 82.7627 -69.9587 83.1469C-69.4497 83.4679 -62.809 86.591 -62.7146 87.0688C-62.714 87.0706 -56.4523 96.6085 -56.4523 96.6085C-56.2723 96.8843 -56.1913 97.1943 -56.2001 97.4995C-56.2115 97.5552 -55.6785 104.891 -55.6868 104.938C-55.5866 105.415 -61.6562 118.506 -62.0963 118.687C-62.0957 118.688 -62.0981 118.687 -62.0975 118.689C-62.0993 118.69 -62.1005 118.692 -62.1005 118.692C-62.1022 118.693 -62.1022 118.693 -62.104 118.693C-62.107 118.696 -62.1117 118.7 -62.1165 118.703C-62.1182 118.704 -62.1182 118.704 -62.12 118.704C-62.1218 118.705 -62.1212 118.707 -62.123 118.707C-62.1248 118.708 -62.1248 118.708 -62.1265 118.708L-62.1259 118.71L-62.1277 118.711C-62.4719 118.837 -69.1739 123.693 -69.3816 123.326L-81.314 123.928C-81.5502 123.939 -81.7851 123.893 -82.0033 123.796L-88.8199 120.724C-89.4477 120.902 -96.3336 109.443 -96.7975 109.049C-97.2167 109.125 -97.3249 100.685 -97.4154 100.358C-97.4274 100.103 -97.3754 99.8521 -97.2684 99.6252L-92.0868 88.7413C-92.3791 88.4099 -85.2969 84.0469 -85.0809 83.7865C-84.8836 83.6864 -84.6851 83.5839 -84.4608 83.567ZM-59.1841 97.9285L-64.9779 89.1054L-68.0224 87.5463L-65.2992 95.6676L-58.9488 101.367L-59.1841 97.9285ZM-84.1363 119.504L-81.1381 120.854L-69.974 120.293L-66.9519 118.265L-75.8341 116.628L-84.1363 119.504ZM-63.8602 115.731L-59.0371 105.345L-66.7104 98.4582L-75.076 104.071L-74.5322 113.767L-63.8602 115.731ZM-93.6721 108.33L-87.6617 117.481L-77.5335 113.974L-78.0778 104.258L-86.8484 100.045L-93.6721 108.33ZM-85.5237 97.3145L-76.7632 101.52L-68.3899 95.9011L-71.6816 86.0848L-83.0331 86.5463L-85.5237 97.3145ZM-136.689 56.1108C-136.499 56.0671 -136.306 56.1105 -136.114 56.1383L-117.698 61.1745C-117.168 61.3185 -116.754 61.7447 -116.618 62.2868L-111.899 80.9499C-111.83 81.2038 -111.826 81.4785 -111.897 81.7498C-111.898 81.7503 -111.896 81.7516 -111.898 81.7522L-111.897 81.754L-111.899 81.7545C-111.898 81.7564 -111.898 81.7564 -111.898 81.7564C-111.974 82.0372 -112.12 82.2768 -112.314 82.4599L-125.443 95.4058C-125.821 95.7787 -126.367 95.9199 -126.878 95.7779L-145.371 90.6644C-145.949 90.4938 -146.394 89.9879 -146.491 89.3809C-147.563 85.145 -149.955 75.2487 -151.048 70.8936C-151.18 70.366 -151.025 69.811 -150.644 69.4351L-137.546 56.5135C-137.302 56.304 -137.015 56.1287 -136.689 56.1108ZM-142.042 88.4257L-126.944 92.6004L-116.285 82.0886L-131.289 77.8214C-131.622 78.1499 -141.42 87.8114 -142.042 88.4257ZM-130.496 74.8813L-115.451 79.1593L-119.31 63.8903L-134.384 59.77C-134.047 61.0779 -130.916 73.2423 -130.496 74.8813ZM-24.0664 -19.8539L-2.12378 -16.0256C-1.86343 -15.9861 -1.60914 -15.8746 -1.38931 -15.6937C-1.17599 -15.5148 -1.02195 -15.2886 -0.930697 -15.044L7.66851 6.73008C7.87229 7.24239 7.7847 7.83737 7.43879 8.26605C7.12703 8.47944 -6.91431 26.1696 -7.24847 26.3382C-7.56514 26.6453 -8.03592 26.7562 -8.46668 26.688L-30.4815 22.8311C-31.4216 24.4658 -39.9066 -0.00384099 -40.2321 -0.0502347C-40.4388 -0.565588 -40.3258 -1.16082 -39.9964 -1.58612C-39.5179 -1.71557 -24.7588 -21.4286 -24.0664 -19.8539ZM-7.76351 22.1897L4.54399 6.99862L-2.77425 -11.5344L-14.8945 3.56779L-7.76351 22.1897ZM-36.0022 -1.65681L-17.2364 1.62025L-5.1386 -13.4546L-23.6909 -16.691L-36.0022 -1.65681ZM-107.395 -1.40655L-68.761 -1.58036C-68.1182 -1.59705 -67.4982 -1.16996 -67.2875 -0.545771C-66.776 0.593197 -70.5092 38.153 -70.3034 39.1971C-70.3482 39.6701 -70.587 40.102 -70.9846 40.3593C-71.249 40.5433 -71.5919 40.6307 -71.9168 40.5981L-107.821 38.2116C-108.394 38.1474 -108.921 37.7943 -109.134 37.2368C-109.584 36.2621 -108.689 1.00165 -108.875 0.0893484C-108.871 -0.404578 -108.613 -0.874689 -108.209 -1.14214C-107.975 -1.32412 -107.674 -1.36399 -107.395 -1.40655ZM-93.94 8.64464L-89.9107 19.8848L-79.4181 24.5608L-71.1616 2.23437L-93.94 8.64464ZM-71.0694 10.7101L-76.9081 26.4997L-72.9115 33.891L-71.0694 10.7101ZM-104.142 35.3886L-74.4431 37.3693L-79.6251 27.7929L-90.7884 22.8183L-103.387 34.6769L-104.142 35.3886ZM-95.6784 5.94852L-79.9746 1.53066L-102.293 1.62994L-95.6784 5.94852ZM-193.901 115.837C-190.732 125.071 -187.398 134.281 -183.732 143.295C-181.176 149.101 -178.937 155.66 -175.073 160.552C-171.606 163.785 -169.86 159.466 -170.365 156.856C-172.246 141.14 -177.451 125.592 -181.908 110.363C-182.205 109.401 -182.508 108.432 -182.815 107.455C-183.419 105.535 -184.032 103.607 -184.656 101.681C-188.307 90.4084 -192.188 79.1702 -196.445 68.1362C-199.643 60.3752 -202.504 51.8663 -207.203 45.0215C-223.262 31.0843 -195.07 111.861 -193.901 115.837ZM-29.5286 81.3546C-29.0957 81.8465 6.82667 108.217 7.15463 108.797C7.70421 109.539 7.42556 110.671 6.6074 111.061L-33.6241 130.701C-34.613 131.212 -35.904 130.334 -35.7881 129.198C-35.8129 129.194 -33.7296 105.842 -33.742 105.828C-33.75 105.677 -33.7633 105.551 -33.7055 105.348L-31.9107 82.4449C-31.8702 82.0073 -31.6492 81.5992 -31.3024 81.3424C-30.7885 80.9592 -30.0475 80.9727 -29.5286 81.3546ZM-30.7481 125.889L0.411077 110.678L-21.1076 108.583L-21.5361 108.541L-30.7481 125.889ZM-21.2821 105.495L0.663313 107.633L-27.4893 86.6454L-21.2821 105.495ZM26.9888 11.2903L54.971 11.8751C55.5469 11.8521 56.111 12.1433 56.3941 12.6698C56.4801 12.8441 70.2429 37.6807 70.307 37.848C70.4819 38.3077 70.4572 38.8302 70.2048 39.2505L55.9383 63.6598C55.6657 64.1267 55.1662 64.4091 54.6282 64.3978L26.5194 63.8101C25.982 63.8005 25.489 63.4983 25.223 63.0182L11.386 37.9895C11.1236 37.5203 11.1313 36.9152 11.4009 36.4573L25.6787 12.0283C25.946 11.5631 26.4597 11.2821 26.9888 11.2903ZM35.1984 14.5202L49.409 20.2943L52.4945 14.8817L35.1984 14.5202ZM55.0725 16.4923L51.968 21.937L63.576 31.8717L55.0725 16.4923ZM66.5156 38.3613L51.543 25.5503L51.3235 50.0796L66.5156 38.3613ZM34.1421 60.9109L52.162 61.2875L49.0314 55.0802L34.1421 60.9109ZM54.7322 59.7058L63.6637 44.4206L51.6828 53.6642L54.7322 59.7058ZM27.7969 60.106L46.3581 52.838L25.0411 40.2707L27.7969 60.106ZM48.3095 50.4704L48.5413 24.77L26.3097 37.5004L48.3095 50.4704ZM15.3152 35.778L21.8494 35.9129L24.2539 20.4844L15.3152 35.778ZM25.0984 34.6671L46.5182 22.4006L28.1707 14.9459L25.0984 34.6671Z" fill="url(#paint0_linear_358_200)"/>
</g>
<defs>
<linearGradient id="paint0_linear_358_200" x1="64.7323" y1="20.6838" x2="-197.218" y2="105.797" gradientUnits="userSpaceOnUse">
<stop stop-color="#A4945E"/>
<stop offset="0.523558" stop-color="#E2D07C"/>
</linearGradient>
</defs>
</svg>
