<svg width="17" height="24" viewBox="0 0 17 24" fill="none" xmlns="http://www.w3.org/2000/svg">
<path d="M8.5 5C6.57895 5 5 6.79105 5 9C5 11.209 6.57895 13 8.5 13C10.4211 13 12 11.209 12 9C12 6.79105 10.4211 5 8.5 5ZM8.5 10.9104C7.57895 10.9104 6.84211 10.0448 6.84211 9C6.84211 7.95522 7.57895 7.08955 8.5 7.08955C9.42105 7.08955 10.1579 7.95522 10.1579 9C10.1579 10.0448 9.42105 10.9104 8.5 10.9104Z" fill="url(#paint0_linear_1282_2)"/>
<path d="M8.49968 0C4.04802 0 0.328915 3.76296 0.0189893 8.56296C-0.121886 10.6963 0.52614 12.8593 1.79402 14.6667L7.6826 23.5556C7.87983 23.8222 8.16158 24 8.49968 24C8.83778 24 9.11953 23.8222 9.31675 23.5556L15.2053 14.6667C16.5014 12.8593 17.1212 10.6667 16.9804 8.56296C16.6704 3.76296 12.9513 0 8.49968 0ZM13.6275 13.4519C13.5994 13.4519 13.5994 13.4519 13.6275 13.4519L8.49968 21.1556L3.39999 13.4815C3.39999 13.4815 3.39999 13.4519 3.37182 13.4519C2.35752 12.0296 1.85037 10.3407 1.96307 8.71111C2.16029 5.45185 4.66787 2.1037 8.4715 2.1037C12.2751 2.1037 14.7827 5.48148 14.9799 8.71111C15.1208 10.3407 14.6137 12.0296 13.6275 13.4519Z" fill="url(#paint1_linear_1282_2)"/>
<defs>
<linearGradient id="paint0_linear_1282_2" x1="8.5" y1="5" x2="8.5" y2="13" gradientUnits="userSpaceOnUse">
<stop stop-color="#180B23"/>
<stop offset="1" stop-color="#752B75"/>
</linearGradient>
<linearGradient id="paint1_linear_1282_2" x1="8.5" y1="0" x2="8.5" y2="24" gradientUnits="userSpaceOnUse">
<stop stop-color="#180B23"/>
<stop offset="1" stop-color="#752B75"/>
</linearGradient>
</defs>
</svg>
