<svg width="46" height="45" viewBox="0 0 46 45" fill="none" xmlns="http://www.w3.org/2000/svg">
<path d="M45.9156 22.4578C45.9156 10.0835 35.6075 0 22.9578 0C10.308 0 0 10.0835 0 22.4578C0 28.9706 2.86972 34.832 7.41537 38.9418C7.41537 38.9643 7.41537 38.9643 7.39241 38.9867C7.62199 39.2113 7.89748 39.391 8.12706 39.5931C8.26481 39.7054 8.37959 39.8177 8.51734 39.9075C8.93058 40.2444 9.38974 40.5588 9.82594 40.8732C9.98664 40.9855 10.1244 41.0753 10.2851 41.1876C10.7213 41.4795 11.1804 41.749 11.6626 41.9961C11.8233 42.0859 12.0069 42.1982 12.1676 42.288C12.6268 42.5351 13.1089 42.7596 13.614 42.9618C13.7976 43.0516 13.9813 43.1414 14.165 43.2088C14.67 43.4109 15.1751 43.5906 15.6802 43.7478C15.8638 43.8152 16.0475 43.8825 16.2312 43.9274C16.7821 44.0847 17.3331 44.2194 17.8841 44.3541C18.0448 44.3991 18.2055 44.444 18.3892 44.4664C19.032 44.6012 19.6748 44.691 20.3406 44.7584C20.4324 44.7584 20.5243 44.7808 20.6161 44.8033C21.3967 44.8707 22.1772 44.9156 22.9578 44.9156C23.7384 44.9156 24.5189 44.8707 25.2765 44.8033C25.3684 44.8033 25.4602 44.7808 25.552 44.7584C26.2178 44.691 26.8606 44.6012 27.5034 44.4664C27.6641 44.444 27.8248 44.3766 28.0085 44.3541C28.5595 44.2194 29.1334 44.1071 29.6615 43.9274C29.8451 43.8601 30.0288 43.7927 30.2125 43.7478C30.7175 43.5681 31.2456 43.4109 31.7277 43.2088C31.9113 43.1414 32.095 43.0516 32.2787 42.9618C32.7608 42.7596 33.2429 42.5351 33.725 42.288C33.9087 42.1982 34.0694 42.0859 34.2301 41.9961C34.6892 41.7266 35.1484 41.4795 35.6075 41.1876C35.7682 41.0978 35.906 40.9855 36.0667 40.8732C36.5258 40.5588 36.9621 40.2444 37.3753 39.9075C37.513 39.7952 37.6278 39.6829 37.7656 39.5931C38.0181 39.391 38.2706 39.1889 38.5002 38.9867C38.5002 38.9643 38.5002 38.9643 38.4773 38.9418C43.0459 34.832 45.9156 28.9706 45.9156 22.4578ZM34.2989 33.6193C28.0774 29.532 17.8841 29.532 11.6166 33.6193C10.6065 34.2706 9.78002 35.0342 9.09129 35.8651C5.6017 32.4066 3.44367 27.668 3.44367 22.4578C3.44367 11.9251 12.1906 3.36867 22.9578 3.36867C33.725 3.36867 42.4719 11.9251 42.4719 22.4578C42.4719 27.668 40.3139 32.4066 36.8243 35.8651C36.1585 35.0342 35.3091 34.2706 34.2989 33.6193Z" fill="url(#paint0_linear_1195_2822)"/>
<path d="M22.9578 11.0712C18.2055 11.0712 14.3486 14.8441 14.3486 19.4929C14.3486 24.0518 17.9989 27.7573 22.843 27.8921H23.0496H23.2103H23.2563C27.8937 27.7349 31.544 24.0518 31.567 19.4929C31.567 14.8441 27.7101 11.0712 22.9578 11.0712Z" fill="url(#paint1_linear_1195_2822)"/>
<defs>
<linearGradient id="paint0_linear_1195_2822" x1="22.9578" y1="0" x2="22.9578" y2="44.9156" gradientUnits="userSpaceOnUse">
<stop stop-color="#4D194D"/>
<stop offset="1" stop-color="#180B23"/>
</linearGradient>
<linearGradient id="paint1_linear_1195_2822" x1="22.9578" y1="11.0712" x2="22.9578" y2="27.8921" gradientUnits="userSpaceOnUse">
<stop stop-color="#4D194D"/>
<stop offset="1" stop-color="#180B23"/>
</linearGradient>
</defs>
</svg>
