<svg width="26" height="24" viewBox="0 0 26 24" fill="none" xmlns="http://www.w3.org/2000/svg">
<path fill-rule="evenodd" clip-rule="evenodd" d="M17.7667 18.4C18.0059 18.4 18.2 18.2208 18.2 18V17.6H18.6333C18.8725 17.6 19.0667 17.4208 19.0667 17.2C19.0667 16.9792 18.8725 16.8 18.6333 16.8H18.2V16.4C18.2 16.1792 18.0059 16 17.7667 16C17.5275 16 17.3333 16.1792 17.3333 16.4V16.8H16.9C16.6608 16.8 16.4667 16.9792 16.4667 17.2C16.4667 17.4208 16.6608 17.6 16.9 17.6H17.3333V18C17.3333 18.2208 17.5275 18.4 17.7667 18.4ZM23.8333 2.8C23.8333 3.0208 24.0275 3.2 24.2667 3.2C24.5059 3.2 24.7 3.0208 24.7 2.8C24.9392 2.8 25.1333 2.6208 25.1333 2.4C25.1333 2.1792 24.9392 2 24.7 2C24.7 1.7792 24.5059 1.6 24.2667 1.6C24.0275 1.6 23.8333 1.7792 23.8333 2C23.5941 2 23.4 2.1792 23.4 2.4C23.4 2.6208 23.5941 2.8 23.8333 2.8ZM13 4.8C9.65467 4.8 6.93333 7.312 6.93333 10.4C6.93333 10.6208 7.12747 10.8 7.36667 10.8C7.60587 10.8 7.8 10.6208 7.8 10.4C7.8 7.7532 10.1326 5.6 13 5.6C15.8674 5.6 18.2 7.7532 18.2 10.4C18.2 10.6208 18.3941 10.8 18.6333 10.8C18.8725 10.8 19.0667 10.6208 19.0667 10.4C19.0667 7.312 16.3453 4.8 13 4.8ZM20.3667 10.8C20.6059 10.8 20.8 10.6208 20.8 10.4C20.8 6.43 17.3008 3.2 13 3.2C8.69917 3.2 5.2 6.43 5.2 10.4C5.2 10.6208 5.39413 10.8 5.63333 10.8C5.87253 10.8 6.06667 10.6208 6.06667 10.4C6.06667 6.8712 9.17713 4 13 4C16.8229 4 19.9333 6.8712 19.9333 10.4C19.9333 10.6208 20.1275 10.8 20.3667 10.8ZM3.9 10.8C4.1392 10.8 4.33333 10.6208 4.33333 10.4C4.33333 5.9888 8.2212 2.4 13 2.4C17.7788 2.4 21.6667 5.9888 21.6667 10.4C21.6667 10.6208 21.8608 10.8 22.1 10.8C22.3392 10.8 22.5333 10.6208 22.5333 10.4C22.5333 5.5476 18.2568 1.6 13 1.6C7.74323 1.6 3.46667 5.5476 3.46667 10.4C3.46667 10.6208 3.6608 10.8 3.9 10.8ZM8.62377 14.8L8.58173 14.792C8.41013 14.7604 8.27623 14.6368 8.242 14.4784L8.23333 14.4396L8.22467 14.4784C8.19043 14.6368 8.05653 14.7604 7.88493 14.792L7.8429 14.8L7.88493 14.808C8.05653 14.8396 8.19043 14.9632 8.22467 15.1216L8.23333 15.1604L8.242 15.1216C8.27623 14.9632 8.41013 14.8396 8.58173 14.808L8.62377 14.8ZM10.9183 14.408C11.1211 14.4452 11.2667 14.6092 11.2667 14.8C11.2667 14.9908 11.1211 15.1548 10.9183 15.192L9.035 15.54L8.658 17.2784C8.6177 17.4656 8.44003 17.6 8.23333 17.6C8.02663 17.6 7.84897 17.4656 7.80867 17.2784L7.43167 15.54L5.5484 15.192C5.3456 15.1548 5.2 14.9908 5.2 14.8C5.2 14.6092 5.3456 14.4452 5.5484 14.408L7.43167 14.06L7.80867 12.3216C7.84897 12.1344 8.02663 12 8.23333 12C8.44003 12 8.6177 12.1344 8.658 12.3216L9.035 14.06L10.9183 14.408ZM16.9 1.2C16.9 1.4208 17.0941 1.6 17.3333 1.6C17.5725 1.6 17.7667 1.4208 17.7667 1.2C18.0059 1.2 18.2 1.0208 18.2 0.8C18.2 0.5792 18.0059 0.4 17.7667 0.4C17.7667 0.1792 17.5725 0 17.3333 0C17.0941 0 16.9 0.1792 16.9 0.4C16.6608 0.4 16.4667 0.5792 16.4667 0.8C16.4667 1.0208 16.6608 1.2 16.9 1.2ZM3.9 1.6H4.33333V2C4.33333 2.2208 4.52747 2.4 4.76667 2.4C5.00587 2.4 5.2 2.2208 5.2 2V1.6H5.63333C5.87253 1.6 6.06667 1.4208 6.06667 1.2C6.06667 0.9792 5.87253 0.8 5.63333 0.8H5.2V0.4C5.2 0.1792 5.00587 0 4.76667 0C4.52747 0 4.33333 0.1792 4.33333 0.4V0.8H3.9C3.6608 0.8 3.46667 0.9792 3.46667 1.2C3.46667 1.4208 3.6608 1.6 3.9 1.6ZM12.5667 6.8V20.4C12.5667 20.6208 12.7608 20.8 13 20.8C13.2392 20.8 13.4333 20.6208 13.4333 20.4V6.8C13.4333 6.5792 13.2392 6.4 13 6.4C12.7608 6.4 12.5667 6.5792 12.5667 6.8ZM26 6.4V22C26 23.1028 25.028 24 23.8333 24H2.16667C0.971967 24 0 23.1028 0 22V6.4C0 6.1792 0.194133 6 0.433333 6C0.672533 6 0.866667 6.1792 0.866667 6.4V22C0.866667 22.6616 1.44993 23.2 2.16667 23.2H12.5667V22.2596C12.038 22.0552 10.6843 21.6 9.1 21.6C5.3118 21.6 2.3153 22.3768 2.2854 22.3844C2.2464 22.3948 2.20653 22.4 2.16667 22.4C2.0735 22.4 1.98163 22.3724 1.90537 22.3192C1.79703 22.2436 1.73333 22.1252 1.73333 22V4.4C1.73333 4.2216 1.8616 4.0644 2.0475 4.0156C2.0891 4.0044 3.0849 3.744 4.67307 3.5188C4.90707 3.484 5.13023 3.6348 5.16707 3.8532C5.20347 4.0716 5.04097 4.2756 4.80437 4.3092C3.78257 4.4544 3.0056 4.6168 2.6 4.7092V21.4852C3.65603 21.2544 6.1152 20.8 9.1 20.8C10.9651 20.8 12.5069 21.3584 13.0169 21.5664C13.5906 21.3724 15.4453 20.8 17.3333 20.8C20.2375 20.8 22.4181 21.2308 23.4 21.4684V4.684C23.0343 4.5792 22.2885 4.4036 21.1722 4.318C20.9339 4.2996 20.7567 4.1064 20.7766 3.886C20.7965 3.666 21.0028 3.5004 21.2442 3.5208C23.0438 3.6592 23.9655 4.0172 24.0041 4.0324C24.1635 4.0952 24.2667 4.24 24.2667 4.4V22C24.2667 22.1284 24.1995 22.2492 24.0868 22.3244C23.9737 22.3992 23.8281 22.42 23.6968 22.3796C23.6708 22.3716 21.1077 21.6 17.3333 21.6C15.7105 21.6 14.0651 22.0756 13.4333 22.2796V23.2H23.8333C24.5501 23.2 25.1333 22.6616 25.1333 22V6.4C25.1333 6.1792 25.3275 6 25.5667 6C25.8059 6 26 6.1792 26 6.4Z" fill="url(#paint0_linear_1195_2611)"/>
<defs>
<linearGradient id="paint0_linear_1195_2611" x1="13" y1="0" x2="13" y2="24" gradientUnits="userSpaceOnUse">
<stop stop-color="#4D194D"/>
<stop offset="1" stop-color="#180B23"/>
</linearGradient>
</defs>
</svg>
