<svg width="60" height="60" viewBox="0 0 60 60" fill="none" xmlns="http://www.w3.org/2000/svg">
<circle cx="30" cy="30" r="30" transform="matrix(-1 0 0 1 60 0)" fill="white"/>
<g clip-path="url(#clip0_1581_6)">
<path d="M35.78 33.4035C37.6176 30.904 38.4745 27.7696 38.177 24.6359C37.8795 21.5022 36.45 18.6036 34.1781 16.528C31.9063 14.4525 28.9623 13.3552 25.943 13.4587C22.9238 13.5622 20.0553 14.8587 17.9192 17.0855C15.7831 19.3122 14.5393 22.3024 14.44 25.4497C14.3407 28.597 15.3934 31.6659 17.3845 34.0342C19.3756 36.4024 22.1562 37.8926 25.1624 38.2027C28.1686 38.5128 31.1754 37.6195 33.5731 35.704L43.8856 46.454C44.1757 46.756 44.5688 46.9256 44.9788 46.9256C45.3887 46.9256 45.7818 46.756 46.0719 46.454C46.3616 46.1516 46.5243 45.7418 46.5243 45.3145C46.5243 44.8872 46.3616 44.4773 46.0719 44.175L35.78 33.4035ZM26.375 35.0375C24.6413 35.0375 22.9466 34.5016 21.5051 33.4975C20.0636 32.4935 18.9401 31.0664 18.2766 29.3968C17.6132 27.7271 17.4396 25.8899 17.7778 24.1174C18.116 22.3449 18.9509 20.7167 20.1768 19.4388C21.4027 18.1609 22.9646 17.2906 24.6649 16.9381C26.3653 16.5855 28.1278 16.7664 29.7295 17.458C31.3312 18.1496 32.7002 19.3208 33.6634 20.8235C34.6265 22.3261 35.1406 24.0928 35.1406 25.9C35.1352 28.3217 34.2099 30.6425 32.5672 32.3549C30.9245 34.0673 28.6981 35.0318 26.375 35.0375Z" fill="#180B23"/>
</g>
<defs>
<clipPath id="clip0_1581_6">
<rect width="33" height="43" fill="white" transform="translate(14 13)"/>
</clipPath>
</defs>
</svg>
