<svg xmlns="http://www.w3.org/2000/svg" width="20" height="12" viewBox="0 0 20 12" fill="none">
  <path d="M14.0785 0.586296C11.6129 1.35379 10.12 2.63879 9.23731 3.4304C7.88197 4.64523 6.77169 6.08812 6.07152 7.67573C6.05651 7.7152 6.04151 7.74152 6.02651 7.78318C5.85896 7.55732 5.66142 7.35558 5.44886 7.16919C4.82371 6.66264 4.04851 6.28767 3.15079 6.16706C2.94324 6.13855 2.64816 6.08593 2.25556 6.0947C1.17529 6.1232 0.380095 6.55958 0 6.80737C1.5804 7.50907 2.63066 8.30946 3.26082 8.87082C4.15854 9.66902 4.83871 10.5418 5.17629 10.9716C5.49637 11.3816 5.74644 11.7369 5.92148 12C6.10403 11.7215 6.37409 11.318 6.71418 10.8378C7.08177 10.3181 9.13228 7.40382 11.4179 5.2965C13.8185 3.08174 16.8017 1.41299 20 0.145536C18.8322 -0.0255053 16.6042 -0.198739 14.0785 0.586296Z" fill="white"/>
</svg>