<svg xmlns="http://www.w3.org/2000/svg" width="45" height="47" viewBox="0 0 45 47" fill="none">
  <path d="M27.6937 15.6299L22.2234 21.3571L16.753 15.6299C16.5112 15.3768 16.1832 15.2345 15.8413 15.2345C15.4993 15.2345 15.1714 15.3768 14.9295 15.6299C14.6877 15.8831 14.5519 16.2264 14.5519 16.5844C14.5519 16.9425 14.6877 17.2858 14.9295 17.539L20.3999 23.2661L14.9295 28.9933C14.6877 29.2464 14.5519 29.5898 14.5519 29.9478C14.5519 30.3058 14.6877 30.6491 14.9295 30.9023C15.1714 31.1555 15.4993 31.2977 15.8413 31.2977C16.1832 31.2977 16.5112 31.1555 16.753 30.9023L22.2234 25.1752L27.6937 30.9023C27.9355 31.1555 28.2635 31.2977 28.6054 31.2977C28.9474 31.2977 29.2754 31.1555 29.5172 30.9023C29.759 30.6491 29.8948 30.3058 29.8948 29.9478C29.8948 29.5898 29.759 29.2464 29.5172 28.9933L24.0468 23.2661L29.5172 17.539C29.759 17.2858 29.8948 16.9425 29.8948 16.5844C29.8948 16.2264 29.759 15.8831 29.5172 15.6299C29.2754 15.3768 28.9474 15.2345 28.6054 15.2345C28.2635 15.2345 27.9355 15.3768 27.6937 15.6299Z" fill="#E2D07C"/>
</svg>