<svg xmlns="http://www.w3.org/2000/svg" width="38" height="39" viewBox="0 0 38 39" fill="none">
  <path d="M23.1924 12.9235L18.543 17.7911L13.9233 12.9545C13.719 12.7407 13.4416 12.6212 13.1518 12.6221C12.8621 12.6231 12.5839 12.7445 12.3784 12.9597C12.1729 13.1749 12.0569 13.4661 12.056 13.7695C12.055 14.0728 12.1692 14.3633 12.3735 14.5771L16.9932 19.4137L12.3438 24.2813C12.1383 24.4965 12.0223 24.7878 12.0214 25.0911C12.0205 25.3944 12.1347 25.6849 12.3389 25.8987C12.5431 26.1125 12.8206 26.2321 13.1103 26.2311C13.4 26.2301 13.6782 26.1087 13.8837 25.8935L18.5331 21.0259L23.1529 25.8625C23.3571 26.0763 23.6346 26.1958 23.9243 26.1949C24.214 26.1939 24.4922 26.0725 24.6977 25.8573C24.9032 25.6422 25.0192 25.3509 25.0201 25.0476C25.0211 24.7442 24.9069 24.4537 24.7027 24.2399L20.0829 19.4033L24.7323 14.5357C24.9378 14.3205 25.0538 14.0292 25.0547 13.7259C25.0557 13.4226 24.9415 13.1321 24.7373 12.9183C24.533 12.7045 24.2556 12.585 23.9659 12.5859C23.6761 12.5869 23.3979 12.7083 23.1924 12.9235Z" fill="white"/>
</svg>