<svg width="45" height="48" viewBox="0 0 45 48" fill="none" xmlns="http://www.w3.org/2000/svg">
<ellipse cx="22.5" cy="23.5562" rx="22.5" ry="23.5562" transform="matrix(-1 0 0 1 45 0.701294)" fill="#180B23"/>
<path d="M27.6937 16.3311L22.2234 22.0582L16.753 16.3311C16.5112 16.0779 16.1832 15.9357 15.8413 15.9357C15.4993 15.9357 15.1714 16.0779 14.9295 16.3311C14.6877 16.5843 14.5519 16.9276 14.5519 17.2856C14.5519 17.6436 14.6877 17.987 14.9295 18.2401L20.3999 23.9673L14.9295 29.6944C14.6877 29.9476 14.5519 30.2909 14.5519 30.649C14.5519 31.007 14.6877 31.3503 14.9295 31.6035C15.1714 31.8566 15.4993 31.9989 15.8413 31.9989C16.1832 31.9989 16.5112 31.8566 16.753 31.6035L22.2234 25.8763L27.6937 31.6035C27.9355 31.8566 28.2635 31.9989 28.6054 31.9989C28.9474 31.9989 29.2754 31.8566 29.5172 31.6035C29.759 31.3503 29.8948 31.007 29.8948 30.649C29.8948 30.2909 29.759 29.9476 29.5172 29.6944L24.0468 23.9673L29.5172 18.2401C29.759 17.987 29.8948 17.6436 29.8948 17.2856C29.8948 16.9276 29.759 16.5843 29.5172 16.3311C29.2754 16.0779 28.9474 15.9357 28.6054 15.9357C28.2635 15.9357 27.9355 16.0779 27.6937 16.3311Z" fill="#E2D07C"/>
</svg>
