<svg width="64" height="65" viewBox="0 0 64 65" fill="none" xmlns="http://www.w3.org/2000/svg">
<mask id="mask0_1195_362" style="mask-type:luminance" maskUnits="userSpaceOnUse" x="0" y="0" width="64" height="65">
<path d="M64 0H0V64.9788H64V0Z" fill="white"/>
</mask>
<g mask="url(#mask0_1195_362)">
<path d="M1.31988 121.462C1.32387 121.434 12.0404 98.0647 12.0484 98.0408C12.4017 97.2706 13.3818 96.9104 14.1542 97.2706L37.6672 107.776C37.8468 107.852 38.0185 107.963 38.1662 108.109C38.6732 108.602 38.781 109.349 38.4895 109.95L27.8009 133.317C27.6971 133.494 27.5734 133.666 27.4396 133.819C26.9706 134.261 26.268 134.362 25.6812 134.115L2.12028 123.594C1.69712 123.399 1.37376 123.029 1.23804 122.585C1.13425 122.221 1.16019 121.807 1.31988 121.462ZM26.4776 128.491L31.7849 116.887L24.781 124.012L26.4776 128.491ZM34.2839 109.772L16.3618 101.764L23.5314 120.71L34.2839 109.772ZM20.5275 121.84L13.3558 102.893L5.19612 120.708L20.5275 121.84ZM37.1642 171.852C37.266 171.444 41.0704 156.864 41.4436 157.021C41.9287 156.611 47.1941 150.912 47.7011 150.974C47.7031 150.974 59.242 147.769 59.242 147.769C59.5754 147.678 59.9107 147.698 60.2121 147.807C60.264 147.837 67.751 149.712 67.7949 149.736C68.3039 149.791 79.3897 160.249 79.4277 160.755C79.4297 160.755 79.4277 160.757 79.4297 160.757C79.4297 160.759 79.4317 160.761 79.4317 160.761C79.4317 160.763 79.4317 160.763 79.4317 160.765C79.4336 160.769 79.4356 160.775 79.4376 160.781C79.4376 160.783 79.4376 160.783 79.4376 160.785C79.4376 160.787 79.4396 160.787 79.4396 160.789C79.4396 160.791 79.4396 160.791 79.4396 160.793H79.4416V160.795C79.4556 161.185 82.1263 169.573 81.6931 169.663L78.4277 181.949C78.3618 182.192 78.24 182.415 78.0724 182.604L72.8009 188.499C72.775 189.193 59.1183 192.397 58.5754 192.738C58.5155 193.188 50.0644 190.519 49.7091 190.503C49.4516 190.431 49.2181 190.296 49.0265 190.113L39.8528 181.281C39.4277 181.468 37.3718 172.857 37.1822 172.552C37.1462 172.319 37.1083 172.085 37.1642 171.852ZM59.6732 150.972L48.9985 153.937L46.4576 156.508L55.4376 156.422L63.1782 151.865L59.6732 150.972ZM73.1023 183.352L75.4197 180.759L78.4776 169.265L77.4336 165.535L72.9247 173.995L73.1023 183.352ZM75.9087 161.569L67.1163 153.264L57.763 158.771L60.6492 169.093L70.4935 171.734L75.9087 161.569ZM58.8708 189.335L69.9426 186.258L69.7271 174.843L59.8628 172.196L52.8209 179.695L58.8708 189.335ZM50.5275 177.454L57.5594 169.963L54.6692 159.63L43.8149 159.734L40.5973 171.386L50.5275 177.454ZM-7.13322 215.725C-7.11526 215.518 -7.00947 215.337 -6.91965 215.152L4.06837 198.153C4.38375 197.663 4.94263 197.385 5.52746 197.424L25.6652 198.788C25.9406 198.802 26.2161 198.887 26.4636 199.048C26.4636 199.05 26.4656 199.048 26.4656 199.05H26.4676V199.052C26.4696 199.052 26.4696 199.052 26.4696 199.052C26.7251 199.222 26.9167 199.448 27.0364 199.705L35.6911 217.268C35.9406 217.773 35.9047 218.372 35.5973 218.844L24.5075 235.895C24.1502 236.425 23.5015 236.709 22.8648 236.608C18.2939 236.299 7.65121 235.465 2.95461 235.139C2.38574 235.099 1.88275 234.759 1.63126 234.249L-7.00947 216.726C-7.13921 216.41 -7.22105 216.062 -7.13322 215.725ZM23.3538 231.786L32.4077 217.865L25.3798 203.606L16.264 217.401C16.4836 217.847 22.9426 230.954 23.3538 231.786ZM13.5893 215.63L22.7291 201.797L6.25401 200.68L-2.73801 214.595C-1.32484 214.685 11.8189 215.517 13.5893 215.63ZM-46.3907 76.6233L-35.4646 55.6536C-35.3408 55.4029 -35.1472 55.1819 -34.8957 55.0188C-34.6482 54.8615 -34.3727 54.7799 -34.0993 54.768L-9.60228 53.2237C-9.02544 53.1859 -8.46056 53.4705 -8.1452 53.962C-8.03342 54.3481 5.0564 74.3964 5.11628 74.7904C5.31988 75.2123 5.27796 75.7258 5.07037 76.1397L-5.90767 97.1731C-4.58232 98.6637 -31.73 99.205 -31.8817 99.5194C-32.4626 99.5592 -33.0194 99.2488 -33.3368 98.7751C-33.3109 98.2477 -48.1851 76.8064 -46.3907 76.6233ZM0.812889 73.9466L-10.3468 56.4775L-31.1971 57.791L-20.0654 75.0412L0.812889 73.9466ZM-32.1133 94.7054L-22.766 76.7726L-33.8777 59.5542L-43.1152 77.284L-32.1133 94.7054ZM-54.9935 167.115L-42.6502 127.918C-42.4586 127.261 -41.8318 126.774 -41.1412 126.766C-39.8398 126.623 -3.59829 142.768 -2.4905 142.904C-2.03342 143.105 -1.68012 143.489 -1.55238 143.976C-1.45457 144.305 -1.47853 144.681 -1.61625 144.999L-15.6282 180.588C-15.8777 181.147 -16.4007 181.565 -17.0254 181.597C-18.1432 181.733 -53.0115 169.219 -53.9815 169.107C-54.4725 168.94 -54.8578 168.524 -54.9935 168.027C-55.0993 167.73 -55.0414 167.412 -54.9935 167.115ZM-40.6123 156.793L-28.0993 156.41L-20.0374 147.32L-39.6242 131.606L-40.6123 156.793ZM-31.1432 134.302L-17.2909 145.415L-8.62624 143.799L-31.1432 134.302ZM-17.251 175.931L-5.65417 146.496L-16.8817 148.593L-25.4586 158.265L-17.7161 174.932L-17.251 175.931ZM-43.8638 157.666L-43.1811 140.303L-50.3129 162.946L-43.8638 157.666ZM33.8847 293.347C44.1183 293.176 54.3818 292.83 64.5574 292.084C71.1742 291.405 78.4396 291.296 84.5694 288.991C88.9167 286.543 85.1762 283.353 82.4097 283.005C66.1303 279.737 48.9406 279.892 32.3119 279.395C31.256 279.379 30.1921 279.367 29.1183 279.357C27.0085 279.337 24.8867 279.323 22.765 279.321C10.3418 279.309 -2.12125 279.542 -14.5025 280.223C-23.2769 280.907 -32.6881 281.005 -41.0354 283.512C-60.1352 295.194 29.5414 293.222 33.8847 293.347ZM52.755 115.472C53.3857 115.195 91.3179 87.4833 92.0025 87.342C92.9207 87.0295 93.9586 87.6843 94.0824 88.6415L100.631 135.865C100.821 137.035 99.5275 138.054 98.4317 137.562C98.4197 137.586 75.8109 127.789 75.7929 127.797C75.6392 127.755 75.5095 127.727 75.3259 127.602L53.0704 118.244C52.6472 118.059 52.3119 117.701 52.1682 117.265C51.9526 116.618 52.2061 115.872 52.755 115.472ZM96.765 131.367L91.6931 94.7929L82.6332 115.904L82.4516 116.324L96.765 131.367ZM79.4975 115.064L88.739 93.5352L58.6911 115.148L79.4975 115.064ZM1.20411 35.1516L10.8528 6.99561C11.0165 6.40455 11.4895 5.92891 12.1063 5.81548C12.3079 5.78563 41.5315 0.0183112 41.7191 0.00836077C42.234 -0.0175104 42.747 0.179509 43.0843 0.57355L62.8009 23.0617C63.1782 23.4916 63.2979 24.0906 63.1123 24.6319L53.4197 52.9152C53.236 53.4565 52.775 53.8565 52.2101 53.968L22.771 59.7472C22.2181 59.8587 21.6173 59.6517 21.248 59.2278L1.51548 36.7218C1.13824 36.2979 1.02447 35.6849 1.20411 35.1516ZM7.08434 27.8976L17.4456 15.4018L13.0484 10.4942L7.08434 27.8976ZM15.4895 8.41256L19.9127 13.35L33.5794 4.86023L15.4895 8.41256ZM41.0025 4.01842L23.3778 14.9699L47.765 23.2667L41.0025 4.01842ZM52.9985 44.2384L59.2121 26.1066L52.0085 27.2349L52.9985 44.2384ZM58.4676 22.9821L46.1203 8.90213L51.4556 24.0826L58.4676 22.9821ZM50.1402 50.4017L48.9067 29.2051L29.4696 46.6643L50.1402 50.4017ZM47.1782 26.4489L21.6273 17.7541L27.1183 44.4672L47.1782 26.4489ZM21.8388 55.0387L24.0903 48.4634L9.48554 40.9487L21.8388 55.0387ZM23.9007 44.7618L18.6093 19.0238L5.23205 35.1575L23.9007 44.7618Z" fill="url(#paint0_linear_1195_362)"/>
</g>
<defs>
<linearGradient id="paint0_linear_1195_362" x1="22.7984" y1="0.00610352" x2="22.7984" y2="293.402" gradientUnits="userSpaceOnUse">
<stop stop-color="#A4945E"/>
<stop offset="0.523558" stop-color="#E2D07C"/>
</linearGradient>
</defs>
</svg>
