<svg width="18" height="18" viewBox="0 0 18 18" fill="none" xmlns="http://www.w3.org/2000/svg">
<path d="M4.90705 10.0262L12.1827 2.75L15.2502 5.8175L7.97393 13.0931L4.52393 13.4763L4.90705 10.0262Z" fill="white"/>
<path d="M13.1118 1.82L14.3662 0.56625C14.57 0.36374 14.8457 0.250083 15.1331 0.250083C15.4204 0.250083 15.6961 0.36374 15.8999 0.56625L17.4331 2.1C17.636 2.30361 17.75 2.57938 17.75 2.86687C17.75 3.15437 17.636 3.43014 17.4331 3.63375L16.1793 4.8875L13.1118 1.82Z" fill="white"/>
<path d="M16.5 9.625C16.3342 9.625 16.1753 9.69085 16.0581 9.80806C15.9408 9.92527 15.875 10.0842 15.875 10.25V15.875C15.875 16.0408 15.8092 16.1997 15.6919 16.3169C15.5747 16.4342 15.4158 16.5 15.25 16.5H2.125C1.95924 16.5 1.80027 16.4342 1.68306 16.3169C1.56585 16.1997 1.5 16.0408 1.5 15.875V2.75C1.5 2.58424 1.56585 2.42527 1.68306 2.30806C1.80027 2.19085 1.95924 2.125 2.125 2.125H7.75C7.91576 2.125 8.07473 2.05915 8.19194 1.94194C8.30915 1.82473 8.375 1.66576 8.375 1.5C8.375 1.33424 8.30915 1.17527 8.19194 1.05806C8.07473 0.940848 7.91576 0.875 7.75 0.875H2.125C1.62772 0.875 1.15081 1.07254 0.799175 1.42417C0.447544 1.77581 0.25 2.25272 0.25 2.75V15.875C0.25 16.3723 0.447544 16.8492 0.799175 17.2008C1.15081 17.5525 1.62772 17.75 2.125 17.75H15.25C15.7473 17.75 16.2242 17.5525 16.5758 17.2008C16.9275 16.8492 17.125 16.3723 17.125 15.875V10.25C17.125 10.0842 17.0592 9.92527 16.9419 9.80806C16.8247 9.69085 16.6658 9.625 16.5 9.625Z" fill="white"/>
</svg>
