<svg xmlns="http://www.w3.org/2000/svg" width="22" height="12" viewBox="0 0 22 12" fill="none">
<path d="M21.9896 5.65032C21.997 5.64305 17.0623 -0.0648828 10.8665 0.00055844C4.84666 0.0659997 0 5.62851 0 5.62851C0.00733232 5.63578 0.0073321 5.64305 0.0146644 5.64305C0.0073321 5.65032 4.83933 11.2274 10.8665 11.2928C17.0623 11.3583 21.997 5.65759 21.997 5.65759C22.0043 5.65759 21.997 5.65759 21.9896 5.65032ZM11.0058 10.1876C8.50549 10.1876 6.48177 8.18072 6.48177 5.70122C6.48177 3.22172 8.50549 1.21486 11.0058 1.21486C13.5061 1.21486 15.5299 3.22172 15.5299 5.70122C15.5299 8.18072 13.5061 10.1876 11.0058 10.1876Z" fill="white"/>
<path d="M11.0057 8.45703C12.5365 8.45703 13.7774 7.22647 13.7774 5.70849C13.7774 4.19052 12.5365 2.95996 11.0057 2.95996C9.47503 2.95996 8.23413 4.19052 8.23413 5.70849C8.23413 7.22647 9.47503 8.45703 11.0057 8.45703Z" fill="white"/>
</svg>