<svg width="182" height="140" viewBox="0 0 182 140" fill="none" xmlns="http://www.w3.org/2000/svg">
<path d="M71.371 110.711C71.371 109.837 70.1666 109.122 68.6945 109.122C67.2225 109.122 66.0181 109.837 66.0181 110.711V110.727C66.0181 111.601 67.2225 112.316 68.6945 112.316C70.1666 112.316 71.371 111.585 71.371 110.711Z" fill="#180B23"/>
<path d="M71.371 69.1847C71.371 68.3106 70.1666 67.5955 68.6945 67.5955C67.2225 67.5955 66.0181 68.3106 66.0181 69.1847V69.2006C66.0181 70.0746 67.2225 70.7898 68.6945 70.7898C70.1666 70.7898 71.371 70.0588 71.371 69.1847Z" fill="#180B23"/>
<path d="M153.563 47.1648V49.6714C152.198 49.8725 150.889 50.1046 149.667 50.3676C148.586 50.5997 147.875 51.1722 147.875 51.8066V56.4483H79.3122C76.9234 56.4483 74.6769 56.9589 72.9991 57.8718L67.7097 60.7497C66.4584 61.4305 64.3825 61.4305 63.1313 60.7497L57.8419 57.8718C56.1641 56.9589 53.9175 56.4483 51.5288 56.4483H34.125V51.8066C34.125 51.1722 33.4141 50.5997 32.3334 50.3676C31.1106 50.1046 29.8025 49.8725 28.4375 49.6714V47.1648C28.4375 43.7454 23.3472 40.9758 17.0625 40.9758C10.7778 40.9758 5.6875 43.7454 5.6875 47.1648L5.6875 49.6714C4.3225 49.8725 2.98594 50.1046 1.79156 50.3676C0.710938 50.5997 0 51.1722 0 51.8066L0 64.1846L0 73.4681L0 109.055L0 118.338L0 129.169C0 129.804 0.710938 130.376 1.79156 130.608C2.98594 130.871 4.3225 131.088 5.6875 131.304V133.811C5.6875 137.23 10.7778 140 17.0625 140C23.3472 140 28.4375 137.23 28.4375 133.811V131.304C29.8025 131.088 31.1391 130.871 32.3334 130.608C33.4141 130.376 34.125 129.804 34.125 129.169V124.527H51.5003C53.8891 124.527 56.1356 124.017 57.8134 123.104L63.1028 120.226C63.7284 119.901 64.5247 119.716 65.4063 119.716C66.2878 119.716 67.0841 119.901 67.7097 120.226L72.9991 123.104C74.6769 124.017 76.9234 124.527 79.3122 124.527H147.875V129.169C147.875 129.804 148.586 130.376 149.667 130.608C150.861 130.871 152.198 131.088 153.563 131.304V133.811C153.563 137.23 158.653 140 164.938 140C171.222 140 176.313 137.23 176.313 133.811V131.304C177.678 131.088 179.014 130.871 180.208 130.608C181.289 130.376 182 129.804 182 129.169V51.8066C182 51.1722 181.289 50.5997 180.208 50.3676C178.986 50.1046 177.678 49.8725 176.313 49.6714V47.1648C176.313 43.7454 171.222 40.9758 164.938 40.9758C158.653 40.9758 153.563 43.7454 153.563 47.1648ZM11.375 47.1648C11.375 45.4628 13.9344 44.0703 17.0625 44.0703C20.1906 44.0703 22.75 45.4628 22.75 47.1648V49.006C22.4941 48.9906 22.2666 48.9751 22.0106 48.9596C21.7547 48.9442 21.4703 48.9287 21.2144 48.9132C18.4559 48.7585 15.6691 48.7585 12.9106 48.9132C12.6547 48.9287 12.3988 48.9442 12.1428 48.9596C11.8869 48.9751 11.6309 48.9906 11.375 49.006V47.1648ZM5.6875 65.7318H11.375C14.5031 65.7318 17.0625 67.1244 17.0625 68.8264C17.0625 70.5283 14.5031 71.9209 11.375 71.9209H5.6875V65.7318ZM5.6875 110.602H11.375C14.5031 110.602 17.0625 111.995 17.0625 113.697C17.0625 115.399 14.5031 116.791 11.375 116.791H5.6875V110.602ZM22.75 133.811C22.75 135.513 20.1906 136.905 17.0625 136.905C13.9344 136.905 11.375 135.513 11.375 133.811V131.97C11.6025 131.985 11.8584 131.985 12.0859 132.001C12.3703 132.016 12.6547 132.032 12.9106 132.047C14.3041 132.124 15.6691 132.186 17.0625 132.186C18.4559 132.186 19.8209 132.14 21.1859 132.063C21.4703 132.047 21.7547 132.032 22.0391 132.016C22.2666 131.985 22.5225 131.985 22.75 131.97V133.811ZM24.9681 128.612C23.66 128.767 22.3519 128.891 21.0438 128.968C19.7072 129.045 18.3991 129.092 17.0625 129.092C14.4178 129.092 11.7447 128.937 9.15688 128.612C7.90563 128.442 6.76813 128.272 5.6875 128.086L5.6875 119.886H11.375C17.6597 119.886 22.75 117.116 22.75 113.697C22.75 110.277 17.6597 107.508 11.375 107.508H5.6875L5.6875 75.0154H11.375C17.6597 75.0154 22.75 72.2458 22.75 68.8264C22.75 65.4069 17.6597 62.6373 11.375 62.6373H5.6875V52.8896C6.76813 52.704 7.90563 52.5338 9.15688 52.3791C11.7447 52.0541 14.3894 51.8994 17.0625 51.8994C19.7072 51.8994 22.3803 52.0541 24.9681 52.3791C26.2194 52.5338 27.3569 52.704 28.4375 52.8896V57.9956L28.4375 122.98V128.086C27.3569 128.272 26.2194 128.442 24.9681 128.612ZM79.3122 121.433C78.4591 121.433 77.6344 121.247 77.0088 120.922L71.7194 118.044C70.0416 117.132 67.795 116.621 65.4063 116.621C63.0175 116.621 60.7709 117.132 59.0931 118.044L53.8038 120.922C53.2066 121.263 52.3819 121.433 51.5003 121.433H34.125V59.5428H51.5003C52.3534 59.5428 53.1781 59.7285 53.8038 60.0534L59.0931 62.9313C62.5625 64.819 68.25 64.819 71.7194 62.9313L77.0088 60.0534C77.6344 59.713 78.4306 59.5428 79.3122 59.5428H147.875V68.8264V112.149V121.433H79.3122ZM153.563 109.705V71.271C153.79 71.3948 153.989 71.5341 154.188 71.6578C158.823 74.8297 161.923 82.3958 161.923 90.4879C161.923 98.58 158.823 106.146 154.188 109.318C153.989 109.442 153.79 109.581 153.563 109.705ZM170.625 133.811C170.625 135.513 168.066 136.905 164.938 136.905C161.809 136.905 159.25 135.513 159.25 133.811V131.97C159.478 131.985 159.733 132.001 159.961 132.016C160.245 132.032 160.53 132.047 160.786 132.063C163.516 132.217 166.303 132.217 169.033 132.063C169.317 132.047 169.601 132.032 169.857 132.016C170.085 132.001 170.341 132.001 170.568 131.97V133.811H170.625ZM176.313 128.086C175.232 128.272 174.094 128.442 172.843 128.612C167.668 129.262 162.208 129.262 157.06 128.612C155.809 128.457 154.643 128.287 153.591 128.086V122.98V113.418C154.017 113.341 154.416 113.217 154.814 113.109C154.842 113.093 154.871 113.093 154.899 113.093C155.468 112.908 156.037 112.676 156.605 112.412C156.748 112.351 156.89 112.273 157.032 112.211C157.572 111.933 158.141 111.623 158.653 111.268C164.198 107.477 167.639 99.5239 167.639 90.5034C167.639 81.4829 164.198 73.53 158.653 69.7392C158.113 69.3834 157.572 69.0739 157.032 68.7954C156.89 68.718 156.748 68.6562 156.605 68.5943C156.037 68.3312 155.496 68.0991 154.899 67.9135C154.871 67.898 154.842 67.898 154.814 67.898C154.416 67.7742 153.989 67.6659 153.591 67.5886V57.9956V52.8896C154.672 52.704 155.809 52.5338 157.06 52.3791C162.236 51.7292 167.696 51.7292 172.843 52.3791C174.094 52.5338 175.232 52.704 176.313 52.8896V128.086ZM170.625 47.1648V49.006C170.369 48.9906 170.142 48.9751 169.886 48.9596C169.63 48.9442 169.345 48.9287 169.089 48.9132C166.331 48.7585 163.544 48.7585 160.786 48.9132C160.53 48.9287 160.274 48.9442 159.989 48.9596C159.733 48.9751 159.506 48.9906 159.25 49.006V47.1648C159.25 45.4628 161.809 44.0703 164.938 44.0703C168.066 44.0703 170.625 45.4628 170.625 47.1648Z" fill="#180B23"/>
<path d="M121.923 29.9076L105.103 42.2962C104.418 42.8009 104.362 43.6641 104.98 44.2252C105.597 44.7862 106.653 44.831 107.338 44.3263L124.158 31.9377C124.843 31.4329 124.899 30.5697 124.281 30.0087C123.664 29.4476 122.608 29.4029 121.923 29.9076Z" fill="url(#paint0_linear_1725_13)"/>
<path d="M137.831 28.5211C140.987 26.1961 141.24 22.201 138.394 19.6149C135.547 17.0287 130.664 16.817 127.507 19.142C124.35 21.4674 124.097 25.4626 126.943 28.0487C129.79 30.6349 134.673 30.8466 137.831 28.5211ZM129.425 26.2208C127.811 24.7548 127.953 22.4894 129.741 21.1721C131.53 19.8547 134.298 19.9767 135.912 21.4427C137.526 22.9088 137.385 25.1737 135.596 26.4911C133.808 27.8084 131.039 27.6869 129.425 26.2208Z" fill="url(#paint1_linear_1725_13)"/>
<path d="M91.3933 38.9162C91.6791 39.1759 92.0873 39.3473 92.5485 39.3666C93.4691 39.4047 94.2543 38.8263 94.3009 38.0723L95.4675 19.5659C95.5168 18.8153 94.8088 18.1701 93.8864 18.1315C92.9658 18.0934 92.1805 18.6718 92.134 19.4258L90.9674 37.9322C90.9427 38.3075 91.1074 38.6565 91.3933 38.9162Z" fill="url(#paint2_linear_1725_13)"/>
<path d="M102.167 9.23673C102.387 5.76675 99.1127 2.79014 94.8698 2.60731C92.8118 2.51672 90.8372 3.088 89.3074 4.2148C87.7775 5.34161 86.8766 6.88827 86.7711 8.57058C86.6611 10.3065 87.4243 11.9179 88.7467 13.1193C90.068 14.3197 91.9473 15.1091 94.0687 15.2014C96.1267 15.292 98.1013 14.7207 99.6311 13.5939C101.161 12.4671 102.062 10.9205 102.167 9.23673ZM94.2475 12.4744C91.8389 12.3674 89.9813 10.6807 90.1064 8.71119C90.1662 7.7589 90.6761 6.88258 91.5419 6.24487C92.4077 5.60716 93.5264 5.28395 94.6922 5.33534C95.8959 5.38742 96.9607 5.83445 97.7114 6.51643C98.4609 7.19742 98.8936 8.11179 98.8328 9.09711C98.773 10.0494 98.2625 10.9262 97.3966 11.5639C96.5308 12.2016 95.4121 12.5248 94.2475 12.4744Z" fill="url(#paint3_linear_1725_13)"/>
<path d="M79.5738 43.1169C80.2591 42.6121 80.3149 41.7489 79.6974 41.1879L64.526 27.4047C63.9084 26.8436 62.8531 26.7989 62.1678 27.3036C61.4826 27.8083 61.4267 28.6715 62.0443 29.2326L77.2157 43.0158C77.8333 43.5768 78.8885 43.6216 79.5738 43.1169Z" fill="url(#paint4_linear_1725_13)"/>
<path d="M59.7648 25.1195C62.9215 22.7945 63.1745 18.7994 60.3279 16.2133C57.4813 13.6271 52.5977 13.4154 49.441 15.7404C46.2844 18.0654 46.0313 22.0605 48.8779 24.6467C51.7246 27.2328 56.6082 27.4445 59.7648 25.1195ZM51.3596 22.8188C49.7459 21.3527 49.887 19.0878 51.6756 17.7704C53.4641 16.4531 56.2325 16.5751 57.8462 18.0411C59.4599 19.5072 59.3189 21.7721 57.5303 23.0895C55.7417 24.4068 52.9733 24.2848 51.3596 22.8188Z" fill="url(#paint5_linear_1725_13)"/>
<path d="M114.171 47.1059C114.246 47.2692 114.356 47.4147 114.491 47.5376C114.938 47.943 115.66 48.1052 116.323 47.9008L118.665 47.1772C119.528 46.9115 119.963 46.1226 119.637 45.4168C119.312 44.7153 118.349 44.3553 117.485 44.6219L115.143 45.3455C114.28 45.6112 113.845 46.4001 114.171 47.1059Z" fill="url(#paint6_linear_1725_13)"/>
<path d="M123.169 44.8587C123.615 45.2641 124.337 45.4268 125 45.2224L129.751 43.7567C130.613 43.491 131.048 42.7021 130.724 41.9969C130.394 41.2909 129.435 40.9344 128.572 41.2005L123.821 42.6662C122.958 42.9319 122.523 43.7208 122.847 44.426C122.924 44.5903 123.033 44.7358 123.169 44.8587Z" fill="url(#paint7_linear_1725_13)"/>
<path d="M134.254 41.4371C134.701 41.8425 135.423 42.0052 136.085 41.8008L140.836 40.3352C141.699 40.0694 142.134 39.2806 141.81 38.5753C141.481 37.868 140.521 37.5128 139.657 37.7789L134.906 39.2446C134.044 39.5103 133.609 40.2992 133.933 41.0044C134.009 41.1688 134.119 41.3142 134.254 41.4371Z" fill="url(#paint8_linear_1725_13)"/>
<path d="M145.34 38.0163C145.786 38.4217 146.508 38.5845 147.171 38.3801L149.514 37.6574C150.377 37.3917 150.812 36.6028 150.487 35.8976C150.159 35.1917 149.199 34.8346 148.335 35.1012L145.992 35.8238C145.129 36.0896 144.694 36.8784 145.018 37.5837C145.095 37.748 145.204 37.8934 145.34 38.0163Z" fill="url(#paint9_linear_1725_13)"/>
<path d="M96.1327 42.5574C95.8513 43.0662 95.984 43.6433 96.4139 44.0339C96.5634 44.1697 96.7501 44.2834 96.9678 44.3636C97.8086 44.674 98.7976 44.3674 99.1759 43.6796L100.205 41.8121C100.584 41.1261 100.215 40.3169 99.3703 40.0059C98.5294 39.6955 97.5405 40.0021 97.1622 40.6899L96.1327 42.5574Z" fill="url(#paint10_linear_1725_13)"/>
<path d="M114.548 15.7756C114.928 15.0887 114.558 14.2805 113.713 13.9694C112.872 13.6594 111.884 13.9656 111.505 14.6534L109.456 18.3723C109.174 18.8815 109.307 19.4582 109.737 19.8487C109.887 19.9845 110.073 20.0983 110.291 20.1785C111.133 20.4885 112.121 20.1823 112.499 19.4944L114.548 15.7756Z" fill="url(#paint11_linear_1725_13)"/>
<path d="M100.174 37.2069C100.324 37.3427 100.511 37.4565 100.728 37.5366C101.569 37.8471 102.558 37.5405 102.936 36.8526L104.986 33.1333C105.367 32.4474 104.994 31.6376 104.151 31.3271C103.31 31.0167 102.321 31.3233 101.943 32.0112L99.8932 35.7304C99.6112 36.2397 99.7445 36.8163 100.174 37.2069Z" fill="url(#paint12_linear_1725_13)"/>
<path d="M106.723 23.3324L104.675 27.0522C104.395 27.562 104.527 28.1376 104.957 28.5282C105.107 28.664 105.293 28.7778 105.511 28.858C106.352 29.1679 107.341 28.8613 107.72 28.1735L109.768 24.4536C110.145 23.7662 109.776 22.958 108.932 22.6479C108.091 22.3379 107.102 22.6445 106.723 23.3324Z" fill="url(#paint13_linear_1725_13)"/>
<path d="M118.311 8.94759C118.69 8.26259 118.321 7.45244 117.476 7.14139C116.635 6.83098 115.646 7.13756 115.268 7.82544L114.238 9.69291C113.957 10.2017 114.09 10.7788 114.519 11.1694C114.669 11.3052 114.856 11.419 115.073 11.4991C115.914 11.8095 116.903 11.5029 117.281 10.8151L118.311 8.94759Z" fill="url(#paint14_linear_1725_13)"/>
<path d="M83.9732 41.3907L84.8596 43.3063C84.9351 43.4696 85.0442 43.6136 85.1795 43.7365C85.6269 44.1429 86.3496 44.3052 87.0117 44.0993C87.874 43.8322 88.3084 43.0438 87.9824 42.338L87.096 40.4223C86.7699 39.7184 85.8063 39.3603 84.9439 39.6293C84.0816 39.8965 83.6472 40.6849 83.9732 41.3907Z" fill="url(#paint15_linear_1725_13)"/>
<path d="M81.6146 36.2955C81.6896 36.4592 81.7987 36.6032 81.934 36.7261C82.3813 37.1326 83.1041 37.2948 83.7661 37.089C84.6284 36.8218 85.0628 36.0334 84.7362 35.328L82.9686 31.5074C82.6461 30.8009 81.6788 30.4453 80.817 30.7139C79.9547 30.9811 79.5203 31.7695 79.8469 32.4749L81.6146 36.2955Z" fill="url(#paint16_linear_1725_13)"/>
<path d="M76.6903 21.7992C75.828 22.0664 75.3936 22.8548 75.7196 23.5606L77.4879 27.3807C77.5634 27.5441 77.6725 27.6881 77.8078 27.811C78.2552 28.2174 78.9779 28.3796 79.64 28.1738C80.5023 27.9066 80.9367 27.1182 80.6107 26.4124L78.8424 22.5923C78.5181 21.887 77.5521 21.5306 76.6903 21.7992Z" fill="url(#paint17_linear_1725_13)"/>
<path d="M72.5664 12.8839C71.7042 13.1511 71.2698 13.9395 71.5958 14.6453L73.364 18.4655C73.4396 18.6288 73.5487 18.7728 73.684 18.8957C74.1313 19.3021 74.8541 19.4644 75.5162 19.2585C76.3784 18.9914 76.8128 18.2029 76.4869 17.4971L74.7186 13.677C74.3925 12.9731 73.4288 12.6149 72.5664 12.8839Z" fill="url(#paint18_linear_1725_13)"/>
<path d="M69.2377 9.55074C69.3133 9.71407 69.4224 9.85805 69.5577 9.98096C70.005 10.3874 70.7278 10.5496 71.3904 10.3434C72.2527 10.0762 72.6871 9.28777 72.3605 8.58242L71.4731 6.66583C71.1471 5.96003 70.1827 5.60418 69.3203 5.87321C68.458 6.14036 68.0236 6.92879 68.3502 7.63413L69.2377 9.55074Z" fill="url(#paint19_linear_1725_13)"/>
<path d="M67.4347 43.6159L65.1536 42.7724C64.3127 42.462 63.3233 42.7672 62.9439 43.4541C62.6624 43.9648 62.794 44.5408 63.225 44.9324C63.3745 45.0682 63.5601 45.181 63.7772 45.2616L66.0583 46.105C66.8991 46.4155 67.8885 46.1103 68.268 45.4234C68.6474 44.7365 68.2781 43.9316 67.4347 43.6159Z" fill="url(#paint20_linear_1725_13)"/>
<path d="M42.6674 37.3267C42.8168 37.4625 43.0024 37.5753 43.2195 37.656L47.6249 39.2861C48.4651 39.5969 49.4545 39.2918 49.8346 38.6044C50.2145 37.919 49.8447 37.1126 49.0013 36.7969L44.5959 35.1668C43.7557 34.8559 42.7663 35.1611 42.3863 35.8484C42.1042 36.3577 42.2364 36.9352 42.6674 37.3267Z" fill="url(#paint21_linear_1725_13)"/>
<path d="M59.2786 40.5992L54.8733 38.969C54.033 38.6582 53.0436 38.9633 52.6636 39.6507C52.3816 40.1599 52.5137 40.7375 52.9447 41.129C53.0942 41.2648 53.2798 41.3776 53.4969 41.4582L57.9022 43.0883C58.7425 43.3992 59.7319 43.094 60.1119 42.4067C60.4918 41.7212 60.122 40.9149 59.2786 40.5992Z" fill="url(#paint22_linear_1725_13)"/>
<path d="M38.7242 32.9947L36.442 32.1502C35.6017 31.8394 34.6123 32.1445 34.2323 32.8319C33.9503 33.3411 34.0825 33.9187 34.5134 34.3102C34.6629 34.446 34.8485 34.5588 35.0656 34.6394L37.3478 35.4838C38.188 35.7947 39.1774 35.4896 39.5574 34.8022C39.9374 34.1168 39.5671 33.309 38.7242 32.9947Z" fill="url(#paint23_linear_1725_13)"/>
<path d="M55.9128 95.8501C55.7848 95.8501 55.6675 95.8394 55.5608 95.8181C55.4541 95.8074 55.3635 95.7968 55.2888 95.7861L51.0328 87.5461L51.2568 87.4021L50.0088 95.2101L49.9768 94.7621L51.3208 95.0341C51.2995 95.2048 51.2568 95.3488 51.1928 95.4661C51.1395 95.5834 51.0488 95.7008 50.9208 95.8181H47.8648C47.8968 95.6048 47.9448 95.4394 48.0088 95.3221C48.0728 95.1941 48.1421 95.1194 48.2168 95.0981L49.3848 94.7941L49.0808 95.2901L50.5208 86.2181L50.7128 86.6341L49.3688 86.3461C49.3901 86.1754 49.4275 86.0314 49.4808 85.9141C49.5448 85.7968 49.6408 85.6794 49.7688 85.5621H51.9608L56.4568 94.2181L55.8968 94.3941L57.1928 86.1701L57.2248 86.6181L55.8808 86.3461C55.9021 86.1754 55.9395 86.0314 55.9928 85.9141C56.0461 85.7968 56.1421 85.6794 56.2808 85.5621H59.3368C59.3155 85.7754 59.2728 85.9461 59.2088 86.0741C59.1448 86.1914 59.0701 86.2608 58.9848 86.2821L57.8168 86.5861L58.1208 86.1221L56.6328 95.4181C56.6221 95.5141 56.5688 95.5941 56.4728 95.6581C56.3768 95.7221 56.2755 95.7701 56.1688 95.8021C56.0621 95.8341 55.9768 95.8501 55.9128 95.8501ZM61.8013 96.0101C61.0226 96.0101 60.42 95.7754 59.9933 95.3061C59.5666 94.8261 59.3533 94.1648 59.3533 93.3221C59.3533 92.6608 59.4653 92.0368 59.6893 91.4501C59.924 90.8634 60.2386 90.3461 60.6333 89.8981C61.028 89.4394 61.4813 89.0821 61.9933 88.8261C62.516 88.5594 63.0653 88.4261 63.6413 88.4261C64.4306 88.4261 65.0493 88.6714 65.4973 89.1621C65.956 89.6421 66.1853 90.3141 66.1853 91.1781C66.1853 91.8181 66.068 92.4314 65.8333 93.0181C65.5986 93.5941 65.2786 94.1114 64.8733 94.5701C64.468 95.0181 63.9986 95.3701 63.4653 95.6261C62.9426 95.8821 62.388 96.0101 61.8013 96.0101ZM62.3453 95.3061C62.7186 95.3061 63.0546 95.1301 63.3533 94.7781C63.6626 94.4261 63.9133 93.9568 64.1053 93.3701C64.2973 92.7728 64.3933 92.1274 64.3933 91.4341C64.3933 90.7088 64.2813 90.1434 64.0573 89.7381C63.844 89.3328 63.5453 89.1301 63.1613 89.1301C62.884 89.1301 62.6226 89.2368 62.3773 89.4501C62.1426 89.6528 61.9293 89.9354 61.7373 90.2981C61.556 90.6608 61.412 91.0821 61.3053 91.5621C61.1986 92.0314 61.1453 92.5274 61.1453 93.0501C61.1453 93.7648 61.252 94.3194 61.4653 94.7141C61.6786 95.1088 61.972 95.3061 62.3453 95.3061ZM68.9593 96.0101C68.49 96.0101 68.1326 95.8821 67.8873 95.6261C67.6526 95.3701 67.5353 94.9914 67.5353 94.4901C67.5353 94.3941 67.546 94.2554 67.5673 94.0741C67.5993 93.8821 67.6366 93.6261 67.6793 93.3061C67.7326 92.9754 67.802 92.5541 67.8873 92.0421C67.9833 91.5194 68.0953 90.8901 68.2233 90.1541C68.362 89.4074 68.522 88.5221 68.7033 87.4981C68.9593 87.2421 69.2206 87.0554 69.4873 86.9381C69.7646 86.8208 70.09 86.7461 70.4633 86.7141C70.2713 87.7808 70.106 88.7194 69.9673 89.5301C69.8286 90.3408 69.7113 91.0341 69.6153 91.6101C69.5193 92.1861 69.4393 92.6608 69.3753 93.0341C69.322 93.4074 69.2793 93.6901 69.2473 93.8821C69.2153 94.0741 69.1993 94.1914 69.1993 94.2341C69.1993 94.6501 69.3966 94.8581 69.7913 94.8581C70.0153 94.8581 70.25 94.8048 70.4953 94.6981C70.7406 94.5808 70.9806 94.4261 71.2153 94.2341L71.4873 94.7301C71.274 94.9648 71.0233 95.1834 70.7353 95.3861C70.458 95.5781 70.1646 95.7274 69.8553 95.8341C69.546 95.9514 69.2473 96.0101 68.9593 96.0101ZM71.4713 89.9141L67.2473 89.7381C67.2793 89.5248 67.3486 89.3328 67.4553 89.1621C67.562 88.9914 67.674 88.8848 67.7913 88.8421L72.1593 88.6021C72.1593 88.7408 72.1326 88.9061 72.0793 89.0981C72.0366 89.2901 71.962 89.4661 71.8553 89.6261C71.7486 89.7754 71.6206 89.8714 71.4713 89.9141ZM74.0634 96.0101C73.7434 96.0101 73.4928 95.9088 73.3114 95.7061C73.1408 95.5034 73.0554 95.2101 73.0554 94.8261C73.0554 94.6234 73.0874 94.3461 73.1514 93.9941C73.2154 93.6421 73.2954 93.2528 73.3914 92.8261C73.4981 92.3994 73.5994 91.9621 73.6954 91.5141C73.8021 91.0661 73.8981 90.6394 73.9834 90.2341C74.0688 89.8181 74.1274 89.4608 74.1594 89.1621L74.6714 89.7221C74.6181 89.6901 74.5381 89.6634 74.4314 89.6421C74.3248 89.6208 74.2021 89.6101 74.0634 89.6101C73.8928 89.6101 73.7061 89.6314 73.5034 89.6741C73.3114 89.7061 73.1088 89.7648 72.8954 89.8501L72.6394 89.3541C72.9594 89.0661 73.3061 88.8421 73.6794 88.6821C74.0634 88.5114 74.3941 88.4261 74.6714 88.4261C75.0234 88.4261 75.2794 88.5221 75.4394 88.7141C75.6101 88.8954 75.6954 89.1408 75.6954 89.4501C75.6954 89.6421 75.6581 89.9141 75.5834 90.2661C75.5194 90.6074 75.4394 90.9808 75.3434 91.3861C75.2474 91.7914 75.1514 92.1968 75.0554 92.6021C74.9594 92.9968 74.8741 93.3541 74.7994 93.6741C74.7354 93.9941 74.7034 94.2341 74.7034 94.3941C74.7034 94.6714 74.8154 94.8101 75.0394 94.8101C75.1461 94.8101 75.2581 94.7888 75.3754 94.7461C75.4928 94.7034 75.6101 94.6448 75.7274 94.5701L76.0154 95.0661C75.8341 95.2474 75.6261 95.4128 75.3914 95.5621C75.1674 95.7008 74.9381 95.8074 74.7034 95.8821C74.4688 95.9674 74.2554 96.0101 74.0634 96.0101ZM75.1034 87.1301C74.8154 87.1301 74.5968 87.0554 74.4474 86.9061C74.2981 86.7568 74.2234 86.5594 74.2234 86.3141C74.2234 86.0581 74.2821 85.8394 74.3994 85.6581C74.5274 85.4661 74.6874 85.3221 74.8794 85.2261C75.0714 85.1194 75.2528 85.0661 75.4234 85.0661C75.7221 85.0661 75.9461 85.1408 76.0954 85.2901C76.2554 85.4394 76.3354 85.6421 76.3354 85.8981C76.3354 86.1541 76.2661 86.3728 76.1274 86.5541C75.9994 86.7354 75.8394 86.8794 75.6474 86.9861C75.4661 87.0821 75.2848 87.1301 75.1034 87.1301ZM75.6514 99.9461C75.3208 99.9461 75.0594 99.8661 74.8674 99.7061C74.6754 99.5568 74.5794 99.3434 74.5794 99.0661C74.5794 98.9274 74.6008 98.7781 74.6434 98.6181C74.6754 98.4581 74.7234 98.3301 74.7874 98.2341C74.9688 98.3834 75.1661 98.4954 75.3794 98.5701C75.5821 98.6554 75.8061 98.6981 76.0514 98.6981C76.3288 98.6981 76.5528 98.6501 76.7234 98.5541C76.8941 98.4581 77.0274 98.3088 77.1234 98.1061C77.2194 97.9034 77.2834 97.6421 77.3154 97.3221L78.3074 88.8261C78.4354 87.8021 78.6594 86.9381 78.9794 86.2341C79.2994 85.5301 79.6994 84.9968 80.1794 84.6341C80.6701 84.2608 81.2194 84.0741 81.8274 84.0741C82.1901 84.0741 82.4781 84.1488 82.6914 84.2981C82.9048 84.4474 83.0114 84.6768 83.0114 84.9861C83.0114 85.1141 82.9901 85.2581 82.9474 85.4181C82.9154 85.5781 82.8728 85.7008 82.8194 85.7861C82.6381 85.6261 82.4408 85.5088 82.2274 85.4341C82.0248 85.3594 81.8008 85.3221 81.5554 85.3221C81.2674 85.3221 81.0274 85.3861 80.8354 85.5141C80.6434 85.6314 80.4941 85.8181 80.3874 86.0741C80.2914 86.3194 80.2221 86.6501 80.1794 87.0661L79.3314 94.1861C79.2248 95.1354 79.0541 95.9674 78.8194 96.6821C78.5848 97.3968 78.3021 97.9941 77.9714 98.4741C77.6408 98.9648 77.2781 99.3328 76.8834 99.5781C76.4994 99.8234 76.0888 99.9461 75.6514 99.9461ZM81.2354 89.9141L77.0114 89.7381C77.0434 89.5248 77.1074 89.3328 77.2034 89.1621C77.3101 88.9914 77.4221 88.8848 77.5394 88.8421L81.9234 88.6021C81.9234 88.7408 81.8968 88.9061 81.8434 89.0981C81.7901 89.2901 81.7101 89.4661 81.6034 89.6261C81.5074 89.7754 81.3848 89.8714 81.2354 89.9141ZM83.4754 96.0101C83.1554 96.0101 82.9048 95.9088 82.7234 95.7061C82.5528 95.5034 82.4674 95.2101 82.4674 94.8261C82.4674 94.6234 82.4994 94.3461 82.5634 93.9941C82.6274 93.6421 82.7074 93.2528 82.8034 92.8261C82.9101 92.3994 83.0114 91.9621 83.1074 91.5141C83.2141 91.0661 83.3101 90.6394 83.3954 90.2341C83.4808 89.8181 83.5394 89.4608 83.5714 89.1621L84.0834 89.7221C84.0301 89.6901 83.9501 89.6634 83.8434 89.6421C83.7368 89.6208 83.6141 89.6101 83.4754 89.6101C83.3048 89.6101 83.1181 89.6314 82.9154 89.6741C82.7234 89.7061 82.5208 89.7648 82.3074 89.8501L82.0514 89.3541C82.3714 89.0661 82.7181 88.8421 83.0914 88.6821C83.4754 88.5114 83.8061 88.4261 84.0834 88.4261C84.4354 88.4261 84.6914 88.5221 84.8514 88.7141C85.0221 88.8954 85.1074 89.1408 85.1074 89.4501C85.1074 89.6421 85.0701 89.9141 84.9954 90.2661C84.9314 90.6074 84.8514 90.9808 84.7554 91.3861C84.6594 91.7914 84.5634 92.1968 84.4674 92.6021C84.3714 92.9968 84.2861 93.3541 84.2114 93.6741C84.1474 93.9941 84.1154 94.2341 84.1154 94.3941C84.1154 94.6714 84.2274 94.8101 84.4514 94.8101C84.5581 94.8101 84.6701 94.7888 84.7874 94.7461C84.9048 94.7034 85.0221 94.6448 85.1394 94.5701L85.4274 95.0661C85.2461 95.2474 85.0381 95.4128 84.8034 95.5621C84.5794 95.7008 84.3501 95.8074 84.1154 95.8821C83.8808 95.9674 83.6674 96.0101 83.4754 96.0101ZM84.5154 87.1301C84.2274 87.1301 84.0088 87.0554 83.8594 86.9061C83.7101 86.7568 83.6354 86.5594 83.6354 86.3141C83.6354 86.0581 83.6941 85.8394 83.8114 85.6581C83.9394 85.4661 84.0994 85.3221 84.2914 85.2261C84.4834 85.1194 84.6648 85.0661 84.8354 85.0661C85.1341 85.0661 85.3581 85.1408 85.5074 85.2901C85.6674 85.4394 85.7474 85.6421 85.7474 85.8981C85.7474 86.1541 85.6781 86.3728 85.5394 86.5541C85.4114 86.7354 85.2514 86.8794 85.0594 86.9861C84.8781 87.0821 84.6968 87.1301 84.5154 87.1301ZM89.1309 96.0101C88.3203 96.0101 87.6963 95.7808 87.2589 95.3221C86.8323 94.8634 86.6189 94.1968 86.6189 93.3221C86.6189 92.6608 86.7309 92.0368 86.9549 91.4501C87.1896 90.8634 87.5043 90.3408 87.8989 89.8821C88.3043 89.4234 88.7683 89.0661 89.2909 88.8101C89.8136 88.5541 90.3683 88.4261 90.9549 88.4261C91.6056 88.4261 92.1176 88.5701 92.4909 88.8581C92.8643 89.1461 93.0509 89.5301 93.0509 90.0101C93.0509 90.3301 92.9603 90.5861 92.7789 90.7781C92.5976 90.9701 92.3523 91.0661 92.0429 91.0661C91.8936 91.0661 91.7016 91.0341 91.4669 90.9701C91.5523 90.7034 91.5949 90.4368 91.5949 90.1701C91.5949 89.4341 91.3016 89.0661 90.7149 89.0661C90.2883 89.0661 89.8936 89.2474 89.5309 89.6101C89.1789 89.9621 88.8909 90.4368 88.6669 91.0341C88.4536 91.6314 88.3469 92.2821 88.3469 92.9861C88.3469 93.6261 88.4749 94.1221 88.7309 94.4741C88.9976 94.8154 89.3603 94.9861 89.8189 94.9861C90.2136 94.9861 90.5976 94.8848 90.9709 94.6821C91.3443 94.4794 91.7123 94.1701 92.0749 93.7541L92.4429 94.2181C91.5469 95.4128 90.4429 96.0101 89.1309 96.0101ZM95.7607 96.0101C95.1313 96.0101 94.6353 95.7861 94.2727 95.3381C93.91 94.8901 93.7287 94.2128 93.7287 93.3061C93.7287 92.6128 93.8353 91.9728 94.0487 91.3861C94.262 90.7888 94.5607 90.2714 94.9447 89.8341C95.3287 89.3861 95.7713 89.0394 96.2727 88.7941C96.7847 88.5488 97.334 88.4261 97.9207 88.4261C98.3793 88.4261 98.7847 88.4901 99.1367 88.6181C99.4993 88.7461 99.83 88.9594 100.129 89.2581L99.9687 89.8021C99.8407 89.6848 99.6327 89.5354 99.3447 89.3541C99.0567 89.1728 98.6247 89.0821 98.0487 89.0821C97.654 89.0821 97.2967 89.1994 96.9767 89.4341C96.6673 89.6581 96.4007 89.9674 96.1767 90.3621C95.9633 90.7461 95.798 91.1781 95.6807 91.6581C95.574 92.1381 95.5207 92.6288 95.5207 93.1301C95.5207 93.5248 95.5527 93.8608 95.6167 94.1381C95.6913 94.4154 95.8087 94.6288 95.9687 94.7781C96.1287 94.9168 96.326 94.9861 96.5607 94.9861C96.8487 94.9861 97.11 94.8794 97.3447 94.6661C97.5793 94.4421 97.7927 94.0954 97.9847 93.6261C98.1873 93.1568 98.3687 92.5488 98.5287 91.8021C98.6993 91.0554 98.854 90.1541 98.9927 89.0981L99.9847 88.4261C100.219 88.4261 100.411 88.4528 100.561 88.5061C100.721 88.5488 100.801 88.6501 100.801 88.8101C100.801 88.8634 100.763 89.0341 100.689 89.3221C100.614 89.5994 100.523 89.9514 100.417 90.3781C100.31 90.7941 100.203 91.2474 100.097 91.7381C99.99 92.2181 99.8993 92.6874 99.8247 93.1461C99.75 93.6048 99.7127 94.0048 99.7127 94.3461C99.7127 94.5168 99.7393 94.6394 99.7927 94.7141C99.846 94.7781 99.9367 94.8101 100.065 94.8101C100.161 94.8101 100.267 94.7888 100.385 94.7461C100.502 94.7034 100.625 94.6448 100.753 94.5701L101.009 95.0661C100.742 95.3328 100.433 95.5568 100.081 95.7381C99.7393 95.9194 99.4087 96.0101 99.0887 96.0101C98.8327 96.0101 98.6353 95.9408 98.4967 95.8021C98.358 95.6528 98.2727 95.4448 98.2407 95.1781C98.198 95.0394 98.1713 94.8901 98.1607 94.7301C98.15 94.5594 98.1607 94.3834 98.1927 94.2021H98.1287C97.8727 94.7888 97.5367 95.2368 97.1207 95.5461C96.7047 95.8554 96.2513 96.0101 95.7607 96.0101ZM103.881 96.0101C103.412 96.0101 103.055 95.8821 102.809 95.6261C102.575 95.3701 102.457 94.9914 102.457 94.4901C102.457 94.3941 102.468 94.2554 102.489 94.0741C102.521 93.8821 102.559 93.6261 102.601 93.3061C102.655 92.9754 102.724 92.5541 102.809 92.0421C102.905 91.5194 103.017 90.8901 103.145 90.1541C103.284 89.4074 103.444 88.5221 103.625 87.4981C103.881 87.2421 104.143 87.0554 104.409 86.9381C104.687 86.8208 105.012 86.7461 105.385 86.7141C105.193 87.7808 105.028 88.7194 104.889 89.5301C104.751 90.3408 104.633 91.0341 104.537 91.6101C104.441 92.1861 104.361 92.6608 104.297 93.0341C104.244 93.4074 104.201 93.6901 104.169 93.8821C104.137 94.0741 104.121 94.1914 104.121 94.2341C104.121 94.6501 104.319 94.8581 104.713 94.8581C104.937 94.8581 105.172 94.8048 105.417 94.6981C105.663 94.5808 105.903 94.4261 106.137 94.2341L106.409 94.7301C106.196 94.9648 105.945 95.1834 105.657 95.3861C105.38 95.5781 105.087 95.7274 104.777 95.8341C104.468 95.9514 104.169 96.0101 103.881 96.0101ZM106.393 89.9141L102.169 89.7381C102.201 89.5248 102.271 89.3328 102.377 89.1621C102.484 88.9914 102.596 88.8848 102.713 88.8421L107.081 88.6021C107.081 88.7408 107.055 88.9061 107.001 89.0981C106.959 89.2901 106.884 89.4661 106.777 89.6261C106.671 89.7754 106.543 89.8714 106.393 89.9141ZM108.985 96.0101C108.665 96.0101 108.415 95.9088 108.233 95.7061C108.063 95.5034 107.977 95.2101 107.977 94.8261C107.977 94.6234 108.009 94.3461 108.073 93.9941C108.137 93.6421 108.217 93.2528 108.313 92.8261C108.42 92.3994 108.521 91.9621 108.617 91.5141C108.724 91.0661 108.82 90.6394 108.905 90.2341C108.991 89.8181 109.049 89.4608 109.081 89.1621L109.593 89.7221C109.54 89.6901 109.46 89.6634 109.353 89.6421C109.247 89.6208 109.124 89.6101 108.985 89.6101C108.815 89.6101 108.628 89.6314 108.425 89.6741C108.233 89.7061 108.031 89.7648 107.817 89.8501L107.561 89.3541C107.881 89.0661 108.228 88.8421 108.601 88.6821C108.985 88.5114 109.316 88.4261 109.593 88.4261C109.945 88.4261 110.201 88.5221 110.361 88.7141C110.532 88.8954 110.617 89.1408 110.617 89.4501C110.617 89.6421 110.58 89.9141 110.505 90.2661C110.441 90.6074 110.361 90.9808 110.265 91.3861C110.169 91.7914 110.073 92.1968 109.977 92.6021C109.881 92.9968 109.796 93.3541 109.721 93.6741C109.657 93.9941 109.625 94.2341 109.625 94.3941C109.625 94.6714 109.737 94.8101 109.961 94.8101C110.068 94.8101 110.18 94.7888 110.297 94.7461C110.415 94.7034 110.532 94.6448 110.649 94.5701L110.937 95.0661C110.756 95.2474 110.548 95.4128 110.313 95.5621C110.089 95.7008 109.86 95.8074 109.625 95.8821C109.391 95.9674 109.177 96.0101 108.985 96.0101ZM110.025 87.1301C109.737 87.1301 109.519 87.0554 109.369 86.9061C109.22 86.7568 109.145 86.5594 109.145 86.3141C109.145 86.0581 109.204 85.8394 109.321 85.6581C109.449 85.4661 109.609 85.3221 109.801 85.2261C109.993 85.1194 110.175 85.0661 110.345 85.0661C110.644 85.0661 110.868 85.1408 111.017 85.2901C111.177 85.4394 111.257 85.6421 111.257 85.8981C111.257 86.1541 111.188 86.3728 111.049 86.5541C110.921 86.7354 110.761 86.8794 110.569 86.9861C110.388 87.0821 110.207 87.1301 110.025 87.1301ZM114.567 96.0101C113.788 96.0101 113.186 95.7754 112.759 95.3061C112.332 94.8261 112.119 94.1648 112.119 93.3221C112.119 92.6608 112.231 92.0368 112.455 91.4501C112.69 90.8634 113.004 90.3461 113.399 89.8981C113.794 89.4394 114.247 89.0821 114.759 88.8261C115.282 88.5594 115.831 88.4261 116.407 88.4261C117.196 88.4261 117.815 88.6714 118.263 89.1621C118.722 89.6421 118.951 90.3141 118.951 91.1781C118.951 91.8181 118.834 92.4314 118.599 93.0181C118.364 93.5941 118.044 94.1114 117.639 94.5701C117.234 95.0181 116.764 95.3701 116.231 95.6261C115.708 95.8821 115.154 96.0101 114.567 96.0101ZM115.111 95.3061C115.484 95.3061 115.82 95.1301 116.119 94.7781C116.428 94.4261 116.679 93.9568 116.871 93.3701C117.063 92.7728 117.159 92.1274 117.159 91.4341C117.159 90.7088 117.047 90.1434 116.823 89.7381C116.61 89.3328 116.311 89.1301 115.927 89.1301C115.65 89.1301 115.388 89.2368 115.143 89.4501C114.908 89.6528 114.695 89.9354 114.503 90.2981C114.322 90.6608 114.178 91.0821 114.071 91.5621C113.964 92.0314 113.911 92.5274 113.911 93.0501C113.911 93.7648 114.018 94.3194 114.231 94.7141C114.444 95.1088 114.738 95.3061 115.111 95.3061ZM121.133 96.0101C120.92 96.0101 120.776 95.9674 120.701 95.8821C120.626 95.7968 120.589 95.6741 120.589 95.5141C120.589 95.3541 120.621 95.0928 120.685 94.7301C120.76 94.3674 120.845 93.9461 120.941 93.4661C121.048 92.9861 121.149 92.4848 121.245 91.9621C121.352 91.4288 121.437 90.9114 121.501 90.4101C121.576 89.9088 121.613 89.4661 121.613 89.0821L122.109 89.7221C122.077 89.6901 122.002 89.6634 121.885 89.6421C121.768 89.6208 121.64 89.6101 121.501 89.6101C121.33 89.6101 121.144 89.6314 120.941 89.6741C120.749 89.7061 120.546 89.7648 120.333 89.8501L120.077 89.3541C120.397 89.0661 120.744 88.8421 121.117 88.6821C121.501 88.5114 121.832 88.4261 122.109 88.4261C122.45 88.4261 122.701 88.5221 122.861 88.7141C123.032 88.8954 123.117 89.1408 123.117 89.4501C123.117 89.5141 123.117 89.5888 123.117 89.6741C123.117 89.7488 123.112 89.8341 123.101 89.9301H123.165C123.56 89.4608 123.965 89.0928 124.381 88.8261C124.808 88.5594 125.218 88.4261 125.613 88.4261C125.976 88.4261 126.274 88.5114 126.509 88.6821C126.744 88.8528 126.92 89.0821 127.037 89.3701C127.154 89.6474 127.213 89.9568 127.213 90.2981C127.213 90.6821 127.165 91.0714 127.069 91.4661C126.984 91.8501 126.882 92.2234 126.765 92.5861C126.648 92.9488 126.541 93.2901 126.445 93.6101C126.36 93.9301 126.317 94.2128 126.317 94.4581C126.317 94.6928 126.434 94.8101 126.669 94.8101C126.776 94.8101 126.888 94.7888 127.005 94.7461C127.122 94.7034 127.24 94.6448 127.357 94.5701L127.645 95.0661C127.453 95.2474 127.24 95.4128 127.005 95.5621C126.781 95.7008 126.552 95.8074 126.317 95.8821C126.082 95.9674 125.869 96.0101 125.677 96.0101C125.357 96.0101 125.106 95.9088 124.925 95.7061C124.754 95.5034 124.669 95.2154 124.669 94.8421C124.669 94.3941 124.744 93.9248 124.893 93.4341C125.042 92.9434 125.192 92.4474 125.341 91.9461C125.49 91.4341 125.565 90.9328 125.565 90.4421C125.565 90.1434 125.506 89.9248 125.389 89.7861C125.272 89.6368 125.096 89.5621 124.861 89.5621C124.594 89.5621 124.306 89.6474 123.997 89.8181C123.688 89.9781 123.362 90.2394 123.021 90.6021L122.253 95.1301L122.205 94.1381L122.541 95.7061C122.328 95.8128 122.088 95.8874 121.821 95.9301C121.554 95.9834 121.325 96.0101 121.133 96.0101ZM131.08 96.0101C130.6 96.0101 130.173 95.9408 129.8 95.8021C129.426 95.6634 129.133 95.4714 128.92 95.2261C128.717 94.9808 128.616 94.6928 128.616 94.3621C128.616 94.0954 128.701 93.8608 128.872 93.6581C129.042 93.4554 129.304 93.3541 129.656 93.3541C129.762 93.3541 129.858 93.3648 129.944 93.3861C130.029 93.4074 130.109 93.4394 130.184 93.4821C130.173 93.5674 130.162 93.6528 130.152 93.7381C130.141 93.8234 130.136 93.9088 130.136 93.9941C130.136 94.4314 130.237 94.7674 130.44 95.0021C130.653 95.2368 130.952 95.3541 131.336 95.3541C131.698 95.3541 131.992 95.2581 132.216 95.0661C132.44 94.8634 132.552 94.6128 132.552 94.3141C132.552 94.0368 132.445 93.7968 132.232 93.5941C132.018 93.3808 131.752 93.1834 131.432 93.0021C131.122 92.8101 130.813 92.6074 130.504 92.3941C130.194 92.1808 129.928 91.9354 129.704 91.6581C129.49 91.3808 129.384 91.0448 129.384 90.6501C129.384 90.2234 129.512 89.8448 129.768 89.5141C130.034 89.1728 130.392 88.9061 130.84 88.7141C131.288 88.5221 131.789 88.4261 132.344 88.4261C132.77 88.4261 133.16 88.4901 133.512 88.6181C133.864 88.7354 134.146 88.9221 134.36 89.1781C134.573 89.4234 134.68 89.7381 134.68 90.1221C134.68 90.4101 134.6 90.6394 134.44 90.8101C134.28 90.9701 134.045 91.0501 133.736 91.0501C133.64 91.0501 133.538 91.0448 133.432 91.0341C133.336 91.0234 133.229 90.9914 133.112 90.9381C133.133 90.8634 133.144 90.7834 133.144 90.6981C133.154 90.6021 133.16 90.5061 133.16 90.4101C133.16 89.9728 133.069 89.6421 132.888 89.4181C132.706 89.1941 132.44 89.0821 132.088 89.0821C131.778 89.0821 131.517 89.1781 131.304 89.3701C131.09 89.5514 130.984 89.7914 130.984 90.0901C130.984 90.3781 131.09 90.6341 131.304 90.8581C131.517 91.0821 131.778 91.2954 132.088 91.4981C132.397 91.6901 132.712 91.8981 133.032 92.1221C133.352 92.3354 133.618 92.5808 133.832 92.8581C134.045 93.1354 134.152 93.4554 134.152 93.8181C134.152 94.2341 134.013 94.6074 133.736 94.9381C133.458 95.2688 133.09 95.5301 132.632 95.7221C132.173 95.9141 131.656 96.0101 131.08 96.0101Z" fill="#180B23"/>
<defs>
<linearGradient id="paint0_linear_1725_13" x1="124.281" y1="30.0087" x2="108.478" y2="47.4035" gradientUnits="userSpaceOnUse">
<stop stop-color="#4D194D"/>
<stop offset="1" stop-color="#180B23"/>
</linearGradient>
<linearGradient id="paint1_linear_1725_13" x1="138.394" y1="19.6149" x2="129.019" y2="29.9342" gradientUnits="userSpaceOnUse">
<stop stop-color="#4D194D"/>
<stop offset="1" stop-color="#180B23"/>
</linearGradient>
<linearGradient id="paint2_linear_1725_13" x1="100.405" y1="23.4549" x2="88.6352" y2="36.4105" gradientUnits="userSpaceOnUse">
<stop stop-color="#4D194D"/>
<stop offset="1" stop-color="#180B23"/>
</linearGradient>
<linearGradient id="paint3_linear_1725_13" x1="100.192" y1="4.68956" x2="90.8211" y2="15.0039" gradientUnits="userSpaceOnUse">
<stop stop-color="#4D194D"/>
<stop offset="1" stop-color="#180B23"/>
</linearGradient>
<linearGradient id="paint4_linear_1725_13" x1="72.1117" y1="34.2963" x2="70.0798" y2="36.5328" gradientUnits="userSpaceOnUse">
<stop stop-color="#4D194D"/>
<stop offset="1" stop-color="#180B23"/>
</linearGradient>
<linearGradient id="paint5_linear_1725_13" x1="60.3279" y1="16.2132" x2="50.9533" y2="26.5321" gradientUnits="userSpaceOnUse">
<stop stop-color="#4D194D"/>
<stop offset="1" stop-color="#180B23"/>
</linearGradient>
<linearGradient id="paint6_linear_1725_13" x1="119.011" y1="44.7093" x2="115.56" y2="48.5083" gradientUnits="userSpaceOnUse">
<stop stop-color="#4D194D"/>
<stop offset="1" stop-color="#180B23"/>
</linearGradient>
<linearGradient id="paint7_linear_1725_13" x1="129.783" y1="41.0036" x2="124.874" y2="46.4076" gradientUnits="userSpaceOnUse">
<stop stop-color="#4D194D"/>
<stop offset="1" stop-color="#180B23"/>
</linearGradient>
<linearGradient id="paint8_linear_1725_13" x1="140.87" y1="37.5815" x2="135.959" y2="42.9862" gradientUnits="userSpaceOnUse">
<stop stop-color="#4D194D"/>
<stop offset="1" stop-color="#180B23"/>
</linearGradient>
<linearGradient id="paint9_linear_1725_13" x1="149.86" y1="35.1883" x2="146.409" y2="38.9876" gradientUnits="userSpaceOnUse">
<stop stop-color="#4D194D"/>
<stop offset="1" stop-color="#180B23"/>
</linearGradient>
<linearGradient id="paint10_linear_1725_13" x1="100.263" y1="40.6427" x2="96.8346" y2="44.416" gradientUnits="userSpaceOnUse">
<stop stop-color="#4D194D"/>
<stop offset="1" stop-color="#180B23"/>
</linearGradient>
<linearGradient id="paint11_linear_1725_13" x1="114.94" y1="14.9099" x2="110.13" y2="20.2052" gradientUnits="userSpaceOnUse">
<stop stop-color="#4D194D"/>
<stop offset="1" stop-color="#180B23"/>
</linearGradient>
<linearGradient id="paint12_linear_1725_13" x1="105.378" y1="32.2678" x2="100.567" y2="37.5634" gradientUnits="userSpaceOnUse">
<stop stop-color="#4D194D"/>
<stop offset="1" stop-color="#180B23"/>
</linearGradient>
<linearGradient id="paint13_linear_1725_13" x1="110.16" y1="23.5889" x2="105.349" y2="28.8841" gradientUnits="userSpaceOnUse">
<stop stop-color="#4D194D"/>
<stop offset="1" stop-color="#180B23"/>
</linearGradient>
<linearGradient id="paint14_linear_1725_13" x1="118.368" y1="7.77822" x2="114.94" y2="11.5515" gradientUnits="userSpaceOnUse">
<stop stop-color="#4D194D"/>
<stop offset="1" stop-color="#180B23"/>
</linearGradient>
<linearGradient id="paint15_linear_1725_13" x1="87.5565" y1="40.7015" x2="84.9712" y2="43.5472" gradientUnits="userSpaceOnUse">
<stop stop-color="#4D194D"/>
<stop offset="1" stop-color="#180B23"/>
</linearGradient>
<linearGradient id="paint16_linear_1725_13" x1="84.2069" y1="32.4908" x2="81.0712" y2="35.9423" gradientUnits="userSpaceOnUse">
<stop stop-color="#4D194D"/>
<stop offset="1" stop-color="#180B23"/>
</linearGradient>
<linearGradient id="paint17_linear_1725_13" x1="80.0799" y1="23.5762" x2="76.9449" y2="27.027" gradientUnits="userSpaceOnUse">
<stop stop-color="#4D194D"/>
<stop offset="1" stop-color="#180B23"/>
</linearGradient>
<linearGradient id="paint18_linear_1725_13" x1="75.9554" y1="14.6614" x2="72.8209" y2="18.1116" gradientUnits="userSpaceOnUse">
<stop stop-color="#4D194D"/>
<stop offset="1" stop-color="#180B23"/>
</linearGradient>
<linearGradient id="paint19_linear_1725_13" x1="71.9345" y1="6.94516" x2="69.3489" y2="9.79126" gradientUnits="userSpaceOnUse">
<stop stop-color="#4D194D"/>
<stop offset="1" stop-color="#180B23"/>
</linearGradient>
<linearGradient id="paint20_linear_1725_13" x1="67.2201" y1="43.2498" x2="64.5763" y2="46.16" gradientUnits="userSpaceOnUse">
<stop stop-color="#4D194D"/>
<stop offset="1" stop-color="#180B23"/>
</linearGradient>
<linearGradient id="paint21_linear_1725_13" x1="48.072" y1="35.7816" x2="44.8592" y2="39.318" gradientUnits="userSpaceOnUse">
<stop stop-color="#4D194D"/>
<stop offset="1" stop-color="#180B23"/>
</linearGradient>
<linearGradient id="paint22_linear_1725_13" x1="58.3493" y1="39.5839" x2="55.1365" y2="43.1203" gradientUnits="userSpaceOnUse">
<stop stop-color="#4D194D"/>
<stop offset="1" stop-color="#180B23"/>
</linearGradient>
<linearGradient id="paint23_linear_1725_13" x1="38.5092" y1="32.628" x2="35.8652" y2="35.5383" gradientUnits="userSpaceOnUse">
<stop stop-color="#4D194D"/>
<stop offset="1" stop-color="#180B23"/>
</linearGradient>
</defs>
</svg>
