<svg xmlns="http://www.w3.org/2000/svg" width="42" height="41" viewBox="0 0 42 41" fill="none">
  <path d="M42 20.5C42 9.2045 32.571 0 21 0C9.429 0 0 9.2045 0 20.5C0 26.445 2.625 31.7955 6.783 35.547C6.783 35.5675 6.783 35.5675 6.762 35.588C6.972 35.793 7.224 35.957 7.434 36.1415C7.56 36.244 7.665 36.3465 7.791 36.4285C8.169 36.736 8.589 37.023 8.988 37.31C9.135 37.4125 9.261 37.4945 9.408 37.597C9.807 37.8635 10.227 38.1095 10.668 38.335C10.815 38.417 10.983 38.5195 11.13 38.6015C11.55 38.827 11.991 39.032 12.453 39.2165C12.621 39.2985 12.789 39.3805 12.957 39.442C13.419 39.6265 13.881 39.7905 14.343 39.934C14.511 39.9955 14.679 40.057 14.847 40.098C15.351 40.2415 15.855 40.3645 16.359 40.4875C16.506 40.5285 16.653 40.5695 16.821 40.59C17.409 40.713 17.997 40.795 18.606 40.8565C18.69 40.8565 18.774 40.877 18.858 40.8975C19.572 40.959 20.286 41 21 41C21.714 41 22.428 40.959 23.121 40.8975C23.205 40.8975 23.289 40.877 23.373 40.8565C23.982 40.795 24.57 40.713 25.158 40.59C25.305 40.5695 25.452 40.508 25.62 40.4875C26.124 40.3645 26.649 40.262 27.132 40.098C27.3 40.0365 27.468 39.975 27.636 39.934C28.098 39.77 28.581 39.6265 29.022 39.442C29.19 39.3805 29.358 39.2985 29.526 39.2165C29.967 39.032 30.408 38.827 30.849 38.6015C31.017 38.5195 31.164 38.417 31.311 38.335C31.731 38.089 32.151 37.8635 32.571 37.597C32.718 37.515 32.844 37.4125 32.991 37.31C33.411 37.023 33.81 36.736 34.188 36.4285C34.314 36.326 34.419 36.2235 34.545 36.1415C34.776 35.957 35.007 35.7725 35.217 35.588C35.217 35.5675 35.217 35.5675 35.196 35.547C39.375 31.7955 42 26.445 42 20.5ZM31.374 30.6885C25.683 26.9575 16.359 26.9575 10.626 30.6885C9.702 31.283 8.946 31.98 8.316 32.7385C5.124 29.5815 3.15 25.256 3.15 20.5C3.15 10.8855 11.151 3.075 21 3.075C30.849 3.075 38.85 10.8855 38.85 20.5C38.85 25.256 36.876 29.5815 33.684 32.7385C33.075 31.98 32.298 31.283 31.374 30.6885Z" fill="#A4945E"/>
  <path d="M21 10.1058C16.653 10.1058 13.125 13.5498 13.125 17.7934C13.125 21.9549 16.464 25.3374 20.895 25.4604H21.084H21.231H21.273C25.515 25.3169 28.854 21.9549 28.875 17.7934C28.875 13.5498 25.347 10.1058 21 10.1058Z" fill="#A4945E"/>
</svg>