<svg xmlns="http://www.w3.org/2000/svg" width="34" height="38" viewBox="0 0 34 38" fill="none">
  <path d="M30.2445 26.8459C29.5587 26.2877 28.7405 25.9598 27.8888 25.9017H27.6152C26.5953 25.9053 25.6074 26.2935 24.8164 27.0013C24.0253 27.7092 23.479 28.6939 23.2686 29.7913C23.2076 30.1199 23.177 30.4544 23.1774 30.7898C23.1705 31.8278 23.469 32.8404 24.0285 33.6766C24.4102 34.2351 24.8965 34.6969 25.4545 35.0309C26.0125 35.3649 26.6293 35.5632 27.2631 35.6125C27.8968 35.6618 28.5328 35.5609 29.128 35.3166C29.7233 35.0723 30.2639 34.6903 30.7132 34.1965C31.1626 33.7026 31.5104 33.1085 31.7329 32.4541C31.9554 31.7998 32.0476 31.1006 32.0032 30.4037C31.9587 29.7068 31.7787 29.0285 31.4753 28.4148C31.1719 27.801 30.7522 27.266 30.2445 26.8459ZM27.6152 34.8339C27.0367 34.8303 26.467 34.6773 25.9522 34.387C25.4373 34.0967 24.9918 33.6773 24.6516 33.1627C24.184 32.4707 23.9321 31.631 23.9335 30.7689C23.9332 30.4882 23.9587 30.2083 24.0095 29.9333C24.185 29.024 24.6386 28.2083 25.2947 27.6222C25.9509 27.0361 26.7699 26.7149 27.6152 26.7122H27.8432C28.5481 26.7592 29.2253 27.0307 29.7924 27.4935C30.4168 27.9981 30.8803 28.7066 31.1168 29.518C31.3533 30.3294 31.3506 31.2022 31.1093 32.0119C30.8679 32.8215 30.4001 33.5267 29.7726 34.0267C29.1452 34.5267 28.3902 34.796 27.6152 34.7963V34.8339Z" fill="url(#paint0_linear_1_1159)"/>
  <path d="M27.9953 27.2012H27.2354V30.6729C27.2352 30.7353 27.2477 30.797 27.272 30.8534C27.2963 30.9098 27.3319 30.9595 27.3759 30.9988L28.9338 32.3649L29.4087 31.7132L27.9953 30.4599V27.2012Z" fill="url(#paint1_linear_1_1159)"/>
  <path d="M31.6199 25.2214V12.2995V6.03281C31.6199 5.68827 31.5582 5.3471 31.4383 5.02878C31.3184 4.71047 31.1426 4.42124 30.921 4.17761C30.6995 3.93398 30.4364 3.74072 30.1469 3.60887C29.8574 3.47702 29.5472 3.40916 29.2338 3.40916H26.9921V1.89262C26.9921 1.64373 26.9474 1.39729 26.8607 1.16741C26.774 0.937519 26.6468 0.728701 26.4866 0.552907C26.3264 0.377114 26.1362 0.237797 25.9269 0.142934C25.7176 0.048071 25.4934 -0.000475625 25.2671 7.37877e-05H24.8643C24.638 -0.000475625 24.4137 0.048071 24.2045 0.142934C23.9952 0.237797 23.805 0.377114 23.6448 0.552907C23.4846 0.728701 23.3574 0.937519 23.2707 1.16741C23.184 1.39729 23.1393 1.64373 23.1393 1.89262V3.39662H17.7249V1.89262C17.7249 1.39068 17.5436 0.909307 17.2208 0.554386C16.898 0.199466 16.4602 7.37877e-05 16.0037 7.37877e-05H15.6238C15.1673 7.37877e-05 14.7295 0.199466 14.4067 0.554386C14.0839 0.909307 13.9026 1.39068 13.9026 1.89262V3.39662H8.46922V1.89262C8.46922 1.64267 8.42421 1.3952 8.33676 1.16449C8.24931 0.933781 8.12117 0.724402 7.95973 0.548443C7.79829 0.372484 7.60674 0.233431 7.39616 0.13931C7.18558 0.0451895 6.96012 -0.00213323 6.73282 7.37877e-05H6.35286C6.12651 -0.000475625 5.90228 0.048071 5.69302 0.142934C5.48376 0.237797 5.29356 0.377114 5.13333 0.552907C4.9731 0.728701 4.84598 0.937519 4.75924 1.16741C4.67251 1.39729 4.62786 1.64373 4.62786 1.89262V3.39662H2.38612C1.75328 3.39662 1.14636 3.67304 0.698879 4.16507C0.251394 4.65711 0 5.32444 0 6.02028V12.287V32.1566C0.00100482 32.8521 0.252722 33.5188 0.699989 34.0106C1.14726 34.5024 1.75359 34.7791 2.38612 34.7802H22.9265C23.4665 35.5401 24.1471 36.1652 24.9232 36.6141C25.6994 37.0631 26.5534 37.3257 27.4288 37.3845C28.3042 37.4434 29.1809 37.2971 30.001 36.9555C30.8211 36.6138 31.5659 36.0846 32.186 35.4027C32.8062 34.7208 33.2875 33.9019 33.5982 33.0002C33.909 32.0984 34.042 31.1344 33.9885 30.1719C33.9349 29.2094 33.6961 28.2703 33.2878 27.4169C32.8795 26.5635 32.311 25.8152 31.6199 25.2214ZM0.748513 9.97665H30.86V11.8817H0.748513V9.97665ZM23.8992 3.8144V1.89262C23.9002 1.6119 24.0024 1.34307 24.1832 1.14496C24.3641 0.946858 24.609 0.835631 24.8643 0.835633H25.2671C25.5224 0.835631 25.7673 0.946858 25.9481 1.14496C26.129 1.34307 26.2311 1.6119 26.2322 1.89262V6.78899H23.8992V3.8144ZM14.6435 3.8144V1.89262C14.6445 1.61263 14.7461 1.34442 14.9262 1.14643C15.1062 0.948447 15.3501 0.836733 15.6048 0.835633H15.9847C16.2394 0.836733 16.4833 0.948447 16.6634 1.14643C16.8434 1.34442 16.945 1.61263 16.946 1.89262V6.78899H14.6435V3.8144ZM5.37638 3.8144V1.89262C5.37687 1.75255 5.40257 1.61398 5.45201 1.4849C5.50144 1.35581 5.57363 1.23876 5.66441 1.1405C5.75519 1.04224 5.86276 0.964716 5.98092 0.91239C6.09908 0.860065 6.22549 0.833978 6.35286 0.835633H6.73282C6.98812 0.835631 7.23302 0.946858 7.4139 1.14496C7.59478 1.34307 7.6969 1.6119 7.69791 1.89262V6.78899H5.37638V3.8144ZM0.748513 6.02028C0.748513 5.54605 0.919845 5.09124 1.22482 4.7559C1.52979 4.42057 1.94343 4.23218 2.37472 4.23218H4.61646V7.20677C4.61646 7.31758 4.65649 7.42384 4.72775 7.50219C4.79901 7.58054 4.89565 7.62455 4.99642 7.62455H8.08926C8.19003 7.62455 8.28667 7.58054 8.35793 7.50219C8.42919 7.42384 8.46922 7.31758 8.46922 7.20677V4.23218H13.8836V7.20677C13.8836 7.31758 13.9236 7.42384 13.9949 7.50219C14.0661 7.58054 14.1628 7.62455 14.2635 7.62455H17.345C17.4458 7.62455 17.5424 7.58054 17.6137 7.50219C17.6849 7.42384 17.7249 7.31758 17.7249 7.20677V4.23218H23.1393V7.20677C23.1393 7.31758 23.1793 7.42384 23.2506 7.50219C23.3219 7.58054 23.4185 7.62455 23.5193 7.62455H26.6121C26.7129 7.62455 26.8095 7.58054 26.8808 7.50219C26.952 7.42384 26.9921 7.31758 26.9921 7.20677V4.23218H29.2338C29.6651 4.23218 30.0787 4.42057 30.3837 4.7559C30.6887 5.09124 30.86 5.54605 30.86 6.02028V9.14109H0.748513V6.02028ZM2.37472 33.9447C1.94343 33.9447 1.52979 33.7563 1.22482 33.421C0.919845 33.0856 0.748513 32.6308 0.748513 32.1566V12.7173H30.86V24.6533L30.8106 24.6282C30.6321 24.5158 30.4482 24.4139 30.2597 24.3232L30.1609 24.2814C29.9899 24.2021 29.8113 24.131 29.6328 24.0684L29.5302 24.0349C29.3364 23.9723 29.1502 23.9221 28.9336 23.8804L28.8007 23.8553L28.5271 23.8093V15.6919C28.5271 15.5811 28.4871 15.4748 28.4158 15.3965C28.3445 15.3181 28.2479 15.2741 28.1471 15.2741H3.45C3.34923 15.2741 3.25259 15.3181 3.18133 15.3965C3.11007 15.4748 3.07004 15.5811 3.07004 15.6919V29.2697C3.07004 29.3805 3.11007 29.4868 3.18133 29.5651C3.25259 29.6435 3.34923 29.6875 3.45 29.6875H21.6499C21.6108 29.9822 21.5904 30.2796 21.5891 30.5774C21.5891 30.7445 21.5891 30.9116 21.6081 31.0787V31.2375C21.6081 31.3503 21.6309 31.4631 21.6461 31.5759C21.6613 31.6887 21.6651 31.697 21.6727 31.7555C21.6803 31.814 21.7107 31.9686 21.7335 32.0772L21.7677 32.2443C21.7943 32.3655 21.8285 32.4866 21.8589 32.6036L21.8931 32.7206C21.9387 32.8752 21.9918 33.0297 22.0488 33.1801C22.0488 33.2219 22.083 33.2637 22.102 33.3055C22.1438 33.4141 22.1894 33.5185 22.2388 33.6272C22.2882 33.7358 22.292 33.7358 22.3186 33.7943C22.3452 33.8528 22.3642 33.8945 22.3908 33.9447H2.37472ZM9.25193 22.063H3.83755V16.1097H9.25193V22.063ZM3.83755 22.8986H9.25193V28.8519H3.83755V22.8986ZM15.4262 22.063H10.0118V16.1097H15.4262V22.063ZM10.0118 22.8986H15.4262V28.8519H10.0118V22.8986ZM27.7748 22.063H22.3604V16.1097H27.7748V22.063ZM21.6005 22.063H16.1861V16.1097H21.6005V22.063ZM16.1861 22.8986H21.5967V28.8519H16.1861V22.8986ZM22.3604 27.302V22.8986H27.7748V23.7592C27.6114 23.7592 27.4518 23.7592 27.2922 23.7843H27.1554C27.0339 23.7843 26.9161 23.801 26.8021 23.8344L26.6387 23.8678C26.5247 23.8678 26.4107 23.918 26.2967 23.9514L26.1638 23.989C26.008 24.0349 25.856 24.0851 25.704 24.1436L25.6508 24.1686C25.5166 24.2243 25.3899 24.2828 25.2709 24.3441L25.1303 24.4193C25.0315 24.4694 24.9327 24.5237 24.8339 24.5864L24.6971 24.67C24.5907 24.7368 24.4882 24.8078 24.3856 24.883L24.2868 24.9624C24.1576 25.0585 24.0284 25.1629 23.9068 25.2716L23.8308 25.3802C23.7396 25.4637 23.6523 25.5515 23.5649 25.6434L23.4471 25.7645L23.2191 26.0278L23.1165 26.1531C23.0253 26.2701 22.9341 26.3954 22.8468 26.5207L22.8202 26.5583C22.7252 26.7004 22.6378 26.8424 22.5542 26.9761C22.5276 27.0179 22.5048 27.068 22.4782 27.114C22.4516 27.1599 22.3908 27.2351 22.3604 27.302ZM27.7976 36.5558C27.0712 36.5769 26.3484 36.4378 25.6717 36.1468C24.995 35.8557 24.3782 35.4186 23.8576 34.8611C23.3371 34.3037 22.9234 33.6373 22.6409 32.9012C22.3584 32.1651 22.2128 31.3742 22.2128 30.5753C22.2128 29.7763 22.3584 28.9855 22.6409 28.2494C22.9234 27.5133 23.3371 26.8468 23.8576 26.2894C24.3782 25.732 24.995 25.2948 25.6717 25.0038C26.3484 24.7127 27.0712 24.5737 27.7976 24.5948C27.9116 24.5948 28.0217 24.5948 28.1281 24.5948C28.2801 24.5948 28.4321 24.624 28.5841 24.6491C29.4645 24.7878 30.2993 25.167 31.012 25.752C31.9357 26.4971 32.6216 27.5442 32.9716 28.7437C33.3217 29.9431 33.3179 31.2336 32.961 32.4305C32.604 33.6275 31.9121 34.6698 30.984 35.4084C30.056 36.1471 28.9394 36.5443 27.7938 36.5433L27.7976 36.5558Z" fill="url(#paint2_linear_1_1159)"/>
  <defs>
    <linearGradient id="paint0_linear_1_1159" x1="27.5956" y1="25.9017" x2="27.5956" y2="35.6246" gradientUnits="userSpaceOnUse">
      <stop stop-color="#A4945E"/>
      <stop offset="1" stop-color="#180B23"/>
    </linearGradient>
    <linearGradient id="paint1_linear_1_1159" x1="28.322" y1="27.2012" x2="28.322" y2="32.3649" gradientUnits="userSpaceOnUse">
      <stop stop-color="#A4945E"/>
      <stop offset="1" stop-color="#180B23"/>
    </linearGradient>
    <linearGradient id="paint2_linear_1_1159" x1="17" y1="0" x2="17" y2="37.3972" gradientUnits="userSpaceOnUse">
      <stop stop-color="#A4945E"/>
      <stop offset="1" stop-color="#180B23"/>
    </linearGradient>
  </defs>
</svg>