<svg width="60" height="60" viewBox="0 0 60 60" fill="none" xmlns="http://www.w3.org/2000/svg">
<circle cx="30" cy="30" r="30" transform="matrix(-1 0 0 1 60 0)" fill="white"/>
<path d="M41.664 27.9107H31.349V17.5957C31.349 17.1398 31.1678 16.7025 30.8454 16.3801C30.523 16.0577 30.0858 15.8765 29.6298 15.8765C29.1738 15.8765 28.7366 16.0577 28.4142 16.3801C28.0918 16.7025 27.9106 17.1398 27.9106 17.5957V27.9107H17.5956C17.1397 27.9107 16.7024 28.0918 16.38 28.4142C16.0576 28.7367 15.8765 29.1739 15.8765 29.6299C15.8765 30.0858 16.0576 30.5231 16.38 30.8455C16.7024 31.1679 17.1397 31.349 17.5956 31.349H27.9106V41.6641C27.9106 42.12 28.0918 42.5573 28.4142 42.8797C28.7366 43.2021 29.1738 43.3832 29.6298 43.3832C30.0858 43.3832 30.523 43.2021 30.8454 42.8797C31.1678 42.5573 31.349 42.12 31.349 41.6641V31.349H41.664C42.1199 31.349 42.5572 31.1679 42.8796 30.8455C43.202 30.5231 43.3831 30.0858 43.3831 29.6299C43.3831 29.1739 43.202 28.7367 42.8796 28.4142C42.5572 28.0918 42.1199 27.9107 41.664 27.9107Z" fill="#180B23"/>
</svg>
