<svg xmlns="http://www.w3.org/2000/svg" width="60" height="42" viewBox="0 0 60 42" fill="none">
  <path d="M58.9797 6.16924L44.585 0.75679C44.4702 0.709799 44.345 0.69353 44.2205 0.709399C44.0959 0.725267 43.9757 0.772792 43.8703 0.847841L18.0874 18.2561L16.5581 14.8442C16.4682 14.6436 16.3048 14.4921 16.1038 14.4229C15.9028 14.3537 15.6807 14.3725 15.4863 14.4752L9.42437 17.6791C9.23005 17.7818 9.0794 17.96 9.00555 18.1745C8.93171 18.3889 8.94071 18.6221 9.03059 18.8227L11.9822 25.4071L3.41817 29.9334C2.22664 30.5772 1.30628 31.6805 0.857335 33.003C0.408388 34.3256 0.467182 35.7606 1.02092 36.9956C1.57467 38.2307 2.57855 39.166 3.81416 39.598C5.04977 40.03 6.41713 39.9238 7.61873 39.3024L16.1814 34.7769L19.1325 41.3611C19.177 41.4605 19.24 41.5489 19.318 41.6212C19.396 41.6936 19.4874 41.7485 19.587 41.7827C19.6866 41.817 19.7924 41.83 19.8984 41.821C20.0044 41.812 20.1085 41.7812 20.2048 41.7303L26.2662 38.5262C26.4606 38.4234 26.6112 38.2452 26.685 38.0308C26.7589 37.8163 26.7499 37.5831 26.66 37.3825L25.0488 33.7868L53.5736 22.4884C53.6856 22.444 53.7879 22.3747 53.8734 22.2854C53.9589 22.196 54.0254 22.0887 54.0683 21.9712L59.434 7.24662C59.5111 7.03456 59.5066 6.80234 59.4215 6.60054C59.3364 6.39874 59.1776 6.24372 58.9797 6.16924ZM15.5034 33.2642L6.94161 37.7889C6.53805 38.0024 6.10162 38.1317 5.65726 38.1696C5.2129 38.2074 4.76929 38.153 4.35178 38.0094C3.93426 37.8659 3.55102 37.636 3.22392 37.3328C2.89682 37.0297 2.63227 36.6593 2.44538 36.2428C2.25849 35.8263 2.15292 35.3718 2.1347 34.9052C2.11647 34.4387 2.18595 33.9693 2.33916 33.5238C2.49237 33.0783 2.72632 32.6654 3.02765 32.3088C3.32898 31.9521 3.69178 31.6587 4.09534 31.4452L12.6602 26.9198L14.0815 30.0919L15.5034 33.2642ZM20.2592 39.8305L10.836 18.8045L15.4317 16.3755L21.2796 29.4227L23.2049 33.7182L24.8555 37.3999L20.2592 39.8305ZM52.7001 21.0429L24.3665 32.2654L22.6723 28.4855L21.9479 26.8694L45.1597 14.6022C45.3503 14.4972 45.497 14.3192 45.5683 14.1065C45.6396 13.8939 45.6297 13.6636 45.5408 13.4652C45.4519 13.2669 45.2911 13.1164 45.093 13.0461C44.8949 12.9758 44.6754 12.9914 44.4817 13.0895L21.2704 25.3568L18.7697 19.7775L44.3604 2.49908L57.6376 7.49298L52.7001 21.0429Z" fill="url(#paint0_linear_358_1277)"/>
  <defs>
    <linearGradient id="paint0_linear_358_1277" x1="37.6386" y1="-1.63626" x2="21.3602" y2="45.6397" gradientUnits="userSpaceOnUse">
      <stop stop-color="#A4945E"/>
      <stop offset="1" stop-color="#E2D07C"/>
    </linearGradient>
  </defs>
</svg>