<svg width="36" height="22" viewBox="0 0 36 22" fill="none" xmlns="http://www.w3.org/2000/svg">
<g filter="url(#filter0_d_1631_3)">
<path d="M31.9868 6.65097C31.9961 6.64241 25.7157 -0.0763733 17.8301 0.000657337C10.1685 0.0776879 4 6.62529 4 6.62529C4.00933 6.63385 4.00933 6.64241 4.01866 6.64241C4.00933 6.65096 10.1591 13.2157 17.8301 13.2927C25.7157 13.3697 31.9961 6.65952 31.9961 6.65952C32.0055 6.65952 31.9961 6.65952 31.9868 6.65097ZM18.0074 11.9918C14.8252 11.9918 12.2495 9.62948 12.2495 6.71088C12.2495 3.79228 14.8252 1.43 18.0074 1.43C21.1896 1.43 23.7653 3.79228 23.7653 6.71088C23.7653 9.62948 21.1896 11.9918 18.0074 11.9918Z" fill="white"/>
<path d="M18.0075 9.95473C19.9557 9.95473 21.535 8.50624 21.535 6.71944C21.535 4.93264 19.9557 3.48416 18.0075 3.48416C16.0593 3.48416 14.48 4.93264 14.48 6.71944C14.48 8.50624 16.0593 9.95473 18.0075 9.95473Z" fill="white"/>
</g>
<defs>
<filter id="filter0_d_1631_3" x="0" y="0" width="36" height="21.2934" filterUnits="userSpaceOnUse" color-interpolation-filters="sRGB">
<feFlood flood-opacity="0" result="BackgroundImageFix"/>
<feColorMatrix in="SourceAlpha" type="matrix" values="0 0 0 0 0 0 0 0 0 0 0 0 0 0 0 0 0 0 127 0" result="hardAlpha"/>
<feOffset dy="4"/>
<feGaussianBlur stdDeviation="2"/>
<feComposite in2="hardAlpha" operator="out"/>
<feColorMatrix type="matrix" values="0 0 0 0 0 0 0 0 0 0 0 0 0 0 0 0 0 0 0.25 0"/>
<feBlend mode="normal" in2="BackgroundImageFix" result="effect1_dropShadow_1631_3"/>
<feBlend mode="normal" in="SourceGraphic" in2="effect1_dropShadow_1631_3" result="shape"/>
</filter>
</defs>
</svg>