<svg width="109" height="103" viewBox="0 0 109 103" fill="none" xmlns="http://www.w3.org/2000/svg">
<path d="M42.7445 81.0558C42.7445 80.4159 42.0231 79.8923 41.1415 79.8923C40.2599 79.8923 39.5386 80.4159 39.5386 81.0558V81.0674C39.5386 81.7074 40.2599 82.231 41.1415 82.231C42.0231 82.231 42.7445 81.6957 42.7445 81.0558Z" fill="#180B23"/>
<path d="M42.7445 50.653C42.7445 50.013 42.0231 49.4894 41.1415 49.4894C40.2599 49.4894 39.5386 50.013 39.5386 50.653V50.6646C39.5386 51.3045 40.2599 51.8281 41.1415 51.8281C42.0231 51.8281 42.7445 51.2929 42.7445 50.653Z" fill="#180B23"/>
<path d="M91.9688 34.5312V36.3664C91.1512 36.5136 90.3678 36.6835 89.6355 36.8761C88.9883 37.046 88.5625 37.4652 88.5625 37.9296V41.328H47.5002C46.0695 41.328 44.7241 41.7019 43.7192 42.3702L40.5514 44.4772C39.802 44.9757 38.5588 44.9757 37.8094 44.4772L34.6416 42.3702C33.6367 41.7019 32.2913 41.328 30.8606 41.328H20.4375L20.4375 37.9296C20.4375 37.4652 20.0117 37.046 19.3645 36.8761C18.6322 36.6835 17.8488 36.5136 17.0313 36.3664V34.5312C17.0313 32.0277 13.9827 30 10.2188 30C6.45484 30 3.40625 32.0277 3.40625 34.5312V36.3664C2.58875 36.5136 1.78828 36.6835 1.07297 36.8761C0.425781 37.046 0 37.4652 0 37.9296L0 46.9921L0 53.7889L0 79.8434L0 86.6402L0 94.5699C0 95.0343 0.425781 95.4535 1.07297 95.6234C1.78828 95.816 2.58875 95.9746 3.40625 96.1331V97.9683C3.40625 100.472 6.45484 102.5 10.2188 102.5C13.9827 102.5 17.0313 100.472 17.0313 97.9683V96.1331C17.8488 95.9746 18.6492 95.816 19.3645 95.6234C20.0117 95.4535 20.4375 95.0343 20.4375 94.5699V91.1715H30.8436C32.2742 91.1715 33.6197 90.7976 34.6245 90.1293L37.7923 88.0223C38.167 87.7844 38.6439 87.6484 39.1719 87.6484C39.6998 87.6484 40.1767 87.7844 40.5514 88.0223L43.7192 90.1293C44.7241 90.7976 46.0695 91.1715 47.5002 91.1715H88.5625V94.5699C88.5625 95.0343 88.9883 95.4535 89.6355 95.6234C90.3508 95.816 91.1512 95.9746 91.9688 96.1331V97.9683C91.9688 100.472 95.0173 102.5 98.7813 102.5C102.545 102.5 105.594 100.472 105.594 97.9683V96.1331C106.411 95.9746 107.212 95.816 107.927 95.6234C108.574 95.4535 109 95.0343 109 94.5699V37.9296C109 37.4652 108.574 37.046 107.927 36.8761C107.195 36.6835 106.411 36.5136 105.594 36.3664V34.5312C105.594 32.0277 102.545 30 98.7813 30C95.0173 30 91.9688 32.0277 91.9688 34.5312ZM6.8125 34.5312C6.8125 33.2851 8.34531 32.2656 10.2188 32.2656C12.0922 32.2656 13.625 33.2851 13.625 34.5312V35.8793C13.4717 35.8679 13.3355 35.8566 13.1822 35.8453C13.0289 35.8339 12.8586 35.8226 12.7053 35.8113C11.0533 35.698 9.38422 35.698 7.73219 35.8113C7.57891 35.8226 7.42562 35.8339 7.27234 35.8453C7.11906 35.8566 6.96578 35.8679 6.8125 35.8793V34.5312ZM3.40625 48.1249H6.8125C8.68594 48.1249 10.2188 49.1444 10.2188 50.3905C10.2188 51.6366 8.68594 52.6561 6.8125 52.6561H3.40625V48.1249ZM3.40625 80.9762H6.8125C8.68594 80.9762 10.2188 81.9957 10.2188 83.2418C10.2188 84.4879 8.68594 85.5074 6.8125 85.5074H3.40625V80.9762ZM13.625 97.9683C13.625 99.2144 12.0922 100.234 10.2188 100.234C8.34531 100.234 6.8125 99.2144 6.8125 97.9683V96.6203C6.94875 96.6316 7.10203 96.6316 7.23828 96.6429C7.40859 96.6542 7.57891 96.6656 7.73219 96.6769C8.56672 96.7335 9.38422 96.7788 10.2188 96.7788C11.0533 96.7788 11.8708 96.7449 12.6883 96.6882C12.8586 96.6769 13.0289 96.6656 13.1992 96.6542C13.3355 96.6316 13.4888 96.6316 13.625 96.6203V97.9683ZM14.9534 94.1621C14.17 94.2753 13.3866 94.366 12.6031 94.4226C11.8027 94.4793 11.0192 94.5132 10.2188 94.5132C8.63484 94.5132 7.03391 94.4 5.48406 94.1621C4.73469 94.0375 4.05344 93.9129 3.40625 93.7769V87.773H6.8125C10.5764 87.773 13.625 85.7453 13.625 83.2418C13.625 80.7383 10.5764 78.7106 6.8125 78.7106H3.40625L3.40625 54.9217H6.8125C10.5764 54.9217 13.625 52.894 13.625 50.3905C13.625 47.887 10.5764 45.8593 6.8125 45.8593H3.40625V38.7226C4.05344 38.5867 4.73469 38.462 5.48406 38.3488C7.03391 38.1109 8.61781 37.9976 10.2188 37.9976C11.8027 37.9976 13.4036 38.1109 14.9534 38.3488C15.7028 38.462 16.3841 38.5867 17.0313 38.7226V42.4608V90.0387V93.7769C16.3841 93.9129 15.7028 94.0375 14.9534 94.1621ZM47.5002 88.9059C46.9892 88.9059 46.4953 88.7699 46.1206 88.532L42.9528 86.425C41.948 85.7567 40.6025 85.3828 39.1719 85.3828C37.7413 85.3828 36.3958 85.7567 35.3909 86.425L32.2231 88.532C31.8655 88.7812 31.3716 88.9059 30.8436 88.9059H20.4375V43.5937H30.8436C31.3545 43.5937 31.8484 43.7296 32.2231 43.9675L35.3909 46.0745C37.4688 47.4565 40.875 47.4565 42.9528 46.0745L46.1206 43.9675C46.4953 43.7183 46.9722 43.5937 47.5002 43.5937H88.5625V50.3905V82.109V88.9059H47.5002ZM91.9688 80.3192V52.1803C92.105 52.2709 92.2242 52.3729 92.3434 52.4635C95.1195 54.7858 96.9759 60.3252 96.9759 66.2498C96.9759 72.1743 95.1195 77.7137 92.3434 80.036C92.2242 80.1266 92.105 80.2286 91.9688 80.3192ZM102.188 97.9683C102.188 99.2144 100.655 100.234 98.7813 100.234C96.9078 100.234 95.375 99.2144 95.375 97.9683V96.6203C95.5112 96.6316 95.6645 96.6429 95.8008 96.6542C95.9711 96.6656 96.1414 96.6769 96.2947 96.6882C97.9297 96.8015 99.5987 96.8015 101.234 96.6882C101.404 96.6769 101.574 96.6656 101.728 96.6542C101.864 96.6429 102.017 96.6429 102.153 96.6203V97.9683H102.188ZM105.594 93.7769C104.947 93.9129 104.265 94.0375 103.516 94.1621C100.416 94.6378 97.1462 94.6378 94.0636 94.1621C93.3142 94.0488 92.6159 93.9242 91.9858 93.7769V90.0387V83.0379C92.2413 82.9813 92.4797 82.8907 92.7181 82.8114C92.7352 82.8 92.7522 82.8 92.7692 82.8C93.1099 82.6641 93.4505 82.4942 93.7911 82.3016C93.8763 82.2563 93.9614 82.1996 94.0466 82.1543C94.3702 81.9504 94.7108 81.7239 95.0173 81.4633C98.3384 78.688 100.399 72.8653 100.399 66.2611C100.399 59.6568 98.3384 53.8342 95.0173 51.0588C94.6938 50.7983 94.3702 50.5717 94.0466 50.3678C93.9614 50.3112 93.8763 50.2659 93.7911 50.2206C93.4505 50.028 93.1269 49.8581 92.7692 49.7221C92.7522 49.7108 92.7352 49.7108 92.7181 49.7108C92.4797 49.6202 92.2242 49.5409 91.9858 49.4842V42.4608V38.7226C92.633 38.5867 93.3142 38.462 94.0636 38.3488C97.1633 37.873 100.433 37.873 103.516 38.3488C104.265 38.462 104.947 38.5867 105.594 38.7226V93.7769ZM102.188 34.5312V35.8793C102.034 35.8679 101.898 35.8566 101.745 35.8453C101.591 35.8339 101.421 35.8226 101.268 35.8113C99.6158 35.698 97.9467 35.698 96.2947 35.8113C96.1414 35.8226 95.9881 35.8339 95.8178 35.8453C95.6645 35.8566 95.5283 35.8679 95.375 35.8793V34.5312C95.375 33.2851 96.9078 32.2656 98.7813 32.2656C100.655 32.2656 102.188 33.2851 102.188 34.5312Z" fill="#180B23"/>
<path d="M73.02 21.8967L62.9466 30.9669C62.5362 31.3364 62.5027 31.9684 62.8726 32.3791C63.2424 32.7899 63.8744 32.8227 64.2848 32.4531L74.3583 23.383C74.7687 23.0134 74.8022 22.3814 74.4323 21.9707C74.0625 21.5599 73.4304 21.5271 73.02 21.8967Z" fill="url(#paint0_linear_1673_3)"/>
<path d="M82.5467 20.8813C84.4372 19.1791 84.5888 16.2541 82.8839 14.3607C81.1791 12.4672 78.2543 12.3122 76.3638 14.0145C74.4729 15.717 74.3213 18.642 76.0262 20.5354C77.731 22.4288 80.6558 22.5839 82.5467 20.8813ZM77.5125 19.1972C76.546 18.1238 76.6309 16.4652 77.702 15.5007C78.7732 14.5363 80.4312 14.6256 81.3977 15.6989C82.3641 16.7723 82.2796 18.4305 81.2084 19.395C80.1373 20.3595 78.4789 20.2705 77.5125 19.1972Z" fill="url(#paint1_linear_1673_3)"/>
<path d="M54.7356 28.492C54.9068 28.6821 55.1513 28.8077 55.4275 28.8218C55.9788 28.8496 56.4491 28.4262 56.477 27.8741L57.1757 14.3249C57.2052 13.7753 56.7812 13.3029 56.2288 13.2747C55.6774 13.2468 55.2071 13.6703 55.1792 14.2223L54.4805 27.7716C54.4658 28.0464 54.5644 28.3019 54.7356 28.492Z" fill="url(#paint2_linear_1673_3)"/>
<path d="M61.188 6.76258C61.3198 4.22207 59.3589 2.04277 56.8178 1.90891C55.5852 1.84259 54.4027 2.26085 53.4864 3.08582C52.5702 3.9108 52.0306 5.04317 51.9674 6.27486C51.9015 7.5458 52.3587 8.72557 53.1506 9.60515C53.942 10.484 55.0675 11.0619 56.338 11.1296C57.5705 11.1959 58.7531 10.7776 59.6693 9.95266C60.5856 9.12768 61.1251 7.9953 61.188 6.76258ZM56.445 9.13299C55.0026 9.05463 53.89 7.81977 53.9649 6.37781C54.0008 5.6806 54.3061 5.039 54.8247 4.57211C55.3432 4.10522 56.0132 3.86859 56.7114 3.90621C57.4323 3.94434 58.07 4.27163 58.5196 4.77094C58.9685 5.26951 59.2276 5.93896 59.1912 6.66035C59.1554 7.35756 58.8496 7.99948 58.3311 8.46637C57.8125 8.93326 57.1425 9.16989 56.445 9.13299Z" fill="url(#paint3_linear_1673_3)"/>
<path d="M47.6574 31.5675C48.0678 31.1979 48.1012 30.5659 47.7314 30.1552L38.6452 20.0639C38.2754 19.6532 37.6433 19.6204 37.2329 19.9899C36.8225 20.3595 36.7891 20.9914 37.1589 21.4022L46.2451 31.4934C46.615 31.9042 47.247 31.937 47.6574 31.5675Z" fill="url(#paint4_linear_1673_3)"/>
<path d="M35.7938 18.3911C37.6843 16.6888 37.8359 13.7639 36.131 11.8704C34.4262 9.97701 31.5014 9.82199 29.6109 11.5242C27.7203 13.2265 27.5688 16.1514 29.2736 18.0449C30.9785 19.9383 33.9033 20.0933 35.7938 18.3911ZM30.7599 16.7066C29.7935 15.6332 29.8779 13.975 30.9491 13.0105C32.0203 12.046 33.6783 12.1353 34.6447 13.2087C35.6112 14.282 35.5267 15.9403 34.4555 16.9048C33.3843 17.8693 31.7264 17.7799 30.7599 16.7066Z" fill="url(#paint5_linear_1673_3)"/>
<path d="M68.3772 34.4882C68.4225 34.6078 68.4881 34.7143 68.5692 34.8043C68.8364 35.1011 69.2693 35.2199 69.6661 35.0702L71.0689 34.5404C71.5856 34.3459 71.8461 33.7683 71.6509 33.2516C71.4565 32.738 70.8795 32.4744 70.362 32.6696L68.9592 33.1994C68.4426 33.3939 68.182 33.9715 68.3772 34.4882Z" fill="url(#paint6_linear_1673_3)"/>
<path d="M73.7662 32.8428C74.0334 33.1396 74.4659 33.2588 74.8627 33.1091L77.7081 32.036C78.2248 31.8415 78.4853 31.2639 78.2911 30.7476C78.0931 30.2307 77.519 29.9697 77.0019 30.1645L74.1566 31.2376C73.6399 31.4322 73.3794 32.0097 73.5736 32.5261C73.6195 32.6464 73.6851 32.7528 73.7662 32.8428Z" fill="url(#paint7_linear_1673_3)"/>
<path d="M80.4054 30.3379C80.6726 30.6347 81.1051 30.7538 81.5019 30.6041L84.3473 29.5311C84.864 29.3365 85.1245 28.759 84.9303 28.2426C84.7334 27.7248 84.1582 27.4647 83.6411 27.6596L80.7958 28.7326C80.2791 28.9272 80.0186 29.5047 80.2128 30.0211C80.2587 30.1414 80.3243 30.2479 80.4054 30.3379Z" fill="url(#paint8_linear_1673_3)"/>
<path d="M87.0446 27.8332C87.3118 28.1301 87.7443 28.2492 88.1411 28.0995L89.5445 27.5705C90.0613 27.3759 90.3218 26.7984 90.1276 26.282C89.931 25.7652 89.3559 25.5038 88.8384 25.699L87.435 26.228C86.9183 26.4226 86.6578 27.0001 86.852 27.5165C86.8979 27.6368 86.9635 27.7433 87.0446 27.8332Z" fill="url(#paint9_linear_1673_3)"/>
<path d="M57.574 31.1579C57.4054 31.5304 57.4849 31.9529 57.7424 32.2388C57.8319 32.3383 57.9437 32.4216 58.0741 32.4803C58.5777 32.7075 59.17 32.4831 59.3965 31.9794L60.0131 30.6122C60.2396 30.1099 60.0189 29.5175 59.5129 29.2898C59.0094 29.0625 58.4171 29.287 58.1905 29.7906L57.574 31.1579Z" fill="url(#paint10_linear_1673_3)"/>
<path d="M68.6038 11.5498C68.831 11.0469 68.6096 10.4551 68.1037 10.2274C67.5997 10.0005 67.0078 10.2246 66.7812 10.7282L65.5539 13.4509C65.385 13.8238 65.4649 14.2459 65.7224 14.5319C65.8119 14.6313 65.9237 14.7146 66.0541 14.7733C66.558 15.0002 67.1499 14.7761 67.3765 14.2725L68.6038 11.5498Z" fill="url(#paint11_linear_1673_3)"/>
<path d="M59.9946 27.2406C60.0841 27.34 60.1959 27.4233 60.3263 27.482C60.8299 27.7093 61.4222 27.4848 61.6488 26.9812L62.8764 24.2581C63.1043 23.756 62.8812 23.1631 62.3763 22.9358C61.8727 22.7085 61.2804 22.9329 61.0538 23.4366L59.8262 26.1596C59.6573 26.5324 59.7372 26.9546 59.9946 27.2406Z" fill="url(#paint12_linear_1673_3)"/>
<path d="M63.9166 17.0826L62.69 19.806C62.5221 20.1792 62.6013 20.6007 62.8588 20.8866C62.9483 20.986 63.0601 21.0694 63.1905 21.128C63.6944 21.355 64.2867 21.1305 64.5133 20.6269L65.7399 17.9035C65.9661 17.4002 65.7447 16.8084 65.2394 16.5814C64.7354 16.3545 64.1432 16.5789 63.9166 17.0826Z" fill="url(#paint13_linear_1673_3)"/>
<path d="M70.8568 6.55115C71.084 6.04964 70.8627 5.4565 70.3567 5.22876C69.8531 5.0015 69.2608 5.22596 69.0343 5.72958L68.4177 7.09683C68.2492 7.46935 68.3287 7.89186 68.5862 8.1778C68.6757 8.27723 68.7875 8.36054 68.9179 8.41923C69.4215 8.6465 70.0137 8.42203 70.2403 7.91841L70.8568 6.55115Z" fill="url(#paint14_linear_1673_3)"/>
<path d="M50.2918 30.3036L50.8227 31.706C50.8679 31.8256 50.9333 31.931 51.0143 32.021C51.2822 32.3186 51.7151 32.4374 52.1116 32.2867C52.628 32.0911 52.8882 31.5138 52.6929 30.9971L52.1621 29.5946C51.9668 29.0792 51.3897 28.817 50.8732 29.014C50.3568 29.2096 50.0966 29.7868 50.2918 30.3036Z" fill="url(#paint15_linear_1673_3)"/>
<path d="M48.8796 26.5731C48.9245 26.693 48.9898 26.7984 49.0709 26.8884C49.3388 27.1859 49.7717 27.3047 50.1682 27.154C50.6846 26.9584 50.9448 26.3812 50.7492 25.8648L49.6905 23.0676C49.4974 22.5503 48.9181 22.29 48.4019 22.4866C47.8855 22.6822 47.6254 23.2595 47.8209 23.7759L48.8796 26.5731Z" fill="url(#paint16_linear_1673_3)"/>
<path d="M45.9304 15.9601C45.414 16.1557 45.1538 16.733 45.349 17.2497L46.4081 20.0466C46.4533 20.1662 46.5187 20.2716 46.5997 20.3616C46.8676 20.6591 47.3005 20.7779 47.697 20.6272C48.2134 20.4316 48.4736 19.8544 48.2783 19.3376L47.2193 16.5408C47.0251 16.0244 46.4465 15.7635 45.9304 15.9601Z" fill="url(#paint17_linear_1673_3)"/>
<path d="M43.4601 9.43293C42.9437 9.62852 42.6835 10.2058 42.8787 10.7225L43.9378 13.5194C43.983 13.639 44.0484 13.7444 44.1294 13.8344C44.3973 14.1319 44.8302 14.2507 45.2267 14.1C45.7431 13.9044 46.0033 13.3272 45.808 12.8104L44.749 10.0135C44.5537 9.49819 43.9766 9.23595 43.4601 9.43293Z" fill="url(#paint18_linear_1673_3)"/>
<path d="M41.4667 6.99264C41.5119 7.11222 41.5773 7.21763 41.6583 7.30762C41.9262 7.60517 42.3591 7.72397 42.7559 7.57294C43.2723 7.37735 43.5325 6.80011 43.3369 6.28369L42.8054 4.88048C42.6102 4.36374 42.0326 4.1032 41.5161 4.30017C40.9997 4.49576 40.7395 5.073 40.9351 5.58941L41.4667 6.99264Z" fill="url(#paint19_linear_1673_3)"/>
<path d="M40.3866 31.9327L39.0205 31.3152C38.5169 31.0879 37.9243 31.3113 37.6971 31.8142C37.5285 32.1881 37.6073 32.6099 37.8655 32.8966C37.955 32.996 38.0661 33.0786 38.1961 33.1376L39.5623 33.7551C40.0659 33.9824 40.6584 33.759 40.8857 33.2561C41.1129 32.7532 40.8918 32.1639 40.3866 31.9327Z" fill="url(#paint20_linear_1673_3)"/>
<path d="M25.5538 27.3284C25.6433 27.4278 25.7545 27.5104 25.8845 27.5694L28.5229 28.7629C29.0261 28.9905 29.6186 28.7671 29.8462 28.2639C30.0738 27.762 29.8523 27.1717 29.3472 26.9405L26.7088 25.747C26.2056 25.5194 25.613 25.7429 25.3854 26.2461C25.2165 26.6189 25.2957 27.0418 25.5538 27.3284Z" fill="url(#paint21_linear_1673_3)"/>
<path d="M35.5025 29.7242L32.8641 28.5307C32.3609 28.3031 31.7683 28.5265 31.5407 29.0298C31.3718 29.4026 31.451 29.8255 31.7091 30.1121C31.7986 30.2115 31.9097 30.2941 32.0398 30.3531L34.6781 31.5466C35.1814 31.7742 35.7739 31.5508 36.0015 31.0476C36.229 30.5457 36.0076 29.9554 35.5025 29.7242Z" fill="url(#paint22_linear_1673_3)"/>
<path d="M23.1919 24.1567L21.8251 23.5384C21.3218 23.3108 20.7293 23.5343 20.5017 24.0375C20.3328 24.4103 20.4119 24.8332 20.67 25.1198C20.7596 25.2193 20.8707 25.3018 21.0007 25.3609L22.3675 25.9791C22.8708 26.2067 23.4633 25.9833 23.6909 25.4801C23.9184 24.9782 23.6967 24.3868 23.1919 24.1567Z" fill="url(#paint23_linear_1673_3)"/>
<path d="M34.4889 69.7C34.4889 71.0733 34.7622 72.1267 35.3089 72.86C35.8556 73.5933 36.6356 73.96 37.6489 73.96C38.6622 73.96 39.5089 73.6267 40.1889 72.96L39.6289 73.84L40.2889 69.78L40.5089 70.38L38.7089 69.96C38.7489 69.7333 38.8022 69.5533 38.8689 69.42C38.9489 69.2867 39.0622 69.1467 39.2089 69H43.3089C43.2289 69.5333 43.0889 69.84 42.8889 69.92L41.7689 70.32L42.2889 69.74L41.6289 73.84C40.9222 74.2933 40.1756 74.64 39.3889 74.88C38.6156 75.12 37.8356 75.24 37.0489 75.24C35.5289 75.24 34.3356 74.7933 33.4689 73.9C32.6156 72.9933 32.1889 71.7467 32.1889 70.16C32.1889 69.04 32.3956 67.9867 32.8089 67C33.2222 66 33.7956 65.12 34.5289 64.36C35.2622 63.5867 36.1022 62.9867 37.0489 62.56C38.0089 62.12 39.0222 61.9 40.0889 61.9C40.7422 61.9 41.3556 61.9867 41.9289 62.16C42.5022 62.32 42.9889 62.56 43.3889 62.88L42.5689 65.92C42.3156 65.92 42.1089 65.8867 41.9489 65.82C41.8022 65.7533 41.7289 65.6667 41.7289 65.56L41.8689 63.56L42.1489 64.18C41.8822 63.8867 41.5022 63.6533 41.0089 63.48C40.5289 63.2933 40.0089 63.2 39.4489 63.2C38.4889 63.2 37.6356 63.48 36.8889 64.04C36.1422 64.6 35.5556 65.3667 35.1289 66.34C34.7022 67.3133 34.4889 68.4333 34.4889 69.7ZM47.4019 75.24C46.9219 75.24 46.5285 75.14 46.2219 74.94C45.9152 74.74 45.6885 74.4733 45.5419 74.14C45.3952 73.7933 45.3219 73.4133 45.3219 73C45.3219 72.5733 45.3819 72.0667 45.5019 71.48C45.6352 70.88 45.7885 70.2667 45.9619 69.64C46.1352 69.0133 46.2819 68.44 46.4019 67.92C46.5352 67.3867 46.6019 66.9733 46.6019 66.68L47.2619 67.38C47.1685 67.34 47.0619 67.3067 46.9419 67.28C46.8219 67.2533 46.6752 67.24 46.5019 67.24C46.2752 67.24 46.0352 67.2667 45.7819 67.32C45.5419 67.36 45.2952 67.4333 45.0419 67.54L44.7219 66.92C45.1352 66.56 45.5685 66.28 46.0219 66.08C46.4752 65.8667 46.8752 65.76 47.2219 65.76C47.6885 65.76 48.0219 65.88 48.2219 66.12C48.4352 66.3467 48.5419 66.6533 48.5419 67.04C48.5419 67.3733 48.4819 67.8 48.3619 68.32C48.2552 68.84 48.1219 69.3867 47.9619 69.96C47.8152 70.52 47.6819 71.0533 47.5619 71.56C47.4419 72.0667 47.3819 72.4867 47.3819 72.82C47.3819 73.1667 47.4552 73.42 47.6019 73.58C47.7619 73.74 47.9952 73.82 48.3019 73.82C48.6885 73.82 49.0885 73.7 49.5019 73.46C49.9285 73.22 50.3619 72.8667 50.8019 72.4L51.0619 73.34H50.5019C50.0085 73.94 49.4952 74.4067 48.9619 74.74C48.4285 75.0733 47.9085 75.24 47.4019 75.24ZM51.8019 75.24C51.3885 75.24 51.0752 75.1133 50.8619 74.86C50.6485 74.6067 50.5419 74.24 50.5419 73.76C50.5419 73.5067 50.5819 73.16 50.6619 72.72C50.7419 72.28 50.8419 71.7933 50.9619 71.26C51.0952 70.7267 51.2219 70.18 51.3419 69.62C51.4752 69.06 51.5952 68.5267 51.7019 68.02C51.8085 67.5 51.8819 67.0533 51.9219 66.68L52.5819 67.38C52.4885 67.34 52.3819 67.3067 52.2619 67.28C52.1419 67.2533 51.9885 67.24 51.8019 67.24C51.6019 67.24 51.3885 67.26 51.1619 67.3C50.9352 67.34 50.7085 67.3933 50.4819 67.46L50.1419 66.84C50.5285 66.5067 50.9419 66.2467 51.3819 66.06C51.8352 65.86 52.2219 65.76 52.5419 65.76C52.9952 65.76 53.3285 65.88 53.5419 66.12C53.7552 66.3467 53.8619 66.6533 53.8619 67.04C53.8619 67.28 53.8152 67.62 53.7219 68.06C53.6419 68.4867 53.5419 68.9533 53.4219 69.46C53.3019 69.9667 53.1752 70.4733 53.0419 70.98C52.9219 71.4733 52.8152 71.92 52.7219 72.32C52.6419 72.72 52.6019 73.02 52.6019 73.22C52.6019 73.5667 52.7485 73.74 53.0419 73.74C53.1619 73.74 53.2952 73.7133 53.4419 73.66C53.5885 73.6067 53.7352 73.5333 53.8819 73.44L54.2419 74.06C54.0152 74.2867 53.7552 74.4933 53.4619 74.68C53.1685 74.8533 52.8752 74.9867 52.5819 75.08C52.3019 75.1867 52.0419 75.24 51.8019 75.24ZM57.5575 75.24C57.1575 75.24 56.8442 75.1133 56.6175 74.86C56.4042 74.6067 56.2975 74.24 56.2975 73.76C56.2975 73.5067 56.3375 73.16 56.4175 72.72C56.4975 72.28 56.5975 71.7933 56.7175 71.26C56.8508 70.7267 56.9775 70.18 57.0975 69.62C57.2308 69.06 57.3508 68.5267 57.4575 68.02C57.5642 67.5 57.6375 67.0533 57.6775 66.68L58.3175 67.38C58.2508 67.34 58.1508 67.3067 58.0175 67.28C57.8842 67.2533 57.7308 67.24 57.5575 67.24C57.3442 67.24 57.1108 67.2667 56.8575 67.32C56.6175 67.36 56.3642 67.4333 56.0975 67.54L55.7775 66.92C56.1775 66.56 56.6108 66.28 57.0775 66.08C57.5575 65.8667 57.9708 65.76 58.3175 65.76C58.7575 65.76 59.0775 65.88 59.2775 66.12C59.4908 66.3467 59.5975 66.6533 59.5975 67.04C59.5975 67.28 59.5508 67.62 59.4575 68.06C59.3775 68.4867 59.2775 68.9533 59.1575 69.46C59.0375 69.9667 58.9175 70.4733 58.7975 70.98C58.6775 71.4733 58.5708 71.92 58.4775 72.32C58.3975 72.72 58.3575 73.02 58.3575 73.22C58.3575 73.5667 58.4975 73.74 58.7775 73.74C58.9108 73.74 59.0508 73.7133 59.1975 73.66C59.3442 73.6067 59.4908 73.5333 59.6375 73.44L59.9975 74.06C59.7708 74.2867 59.5108 74.4933 59.2175 74.68C58.9375 74.8533 58.6508 74.9867 58.3575 75.08C58.0642 75.1867 57.7975 75.24 57.5575 75.24ZM58.8575 64.14C58.4975 64.14 58.2242 64.0467 58.0375 63.86C57.8508 63.6733 57.7575 63.4267 57.7575 63.12C57.7575 62.8 57.8308 62.5267 57.9775 62.3C58.1375 62.06 58.3375 61.88 58.5775 61.76C58.8175 61.6267 59.0442 61.56 59.2575 61.56C59.6308 61.56 59.9108 61.6533 60.0975 61.84C60.2975 62.0267 60.3975 62.28 60.3975 62.6C60.3975 62.92 60.3108 63.1933 60.1375 63.42C59.9775 63.6467 59.7775 63.8267 59.5375 63.96C59.3108 64.08 59.0842 64.14 58.8575 64.14ZM63.2192 75.24C62.8192 75.24 62.5059 75.1133 62.2792 74.86C62.0659 74.6067 61.9592 74.24 61.9592 73.76C61.9592 73.48 62.0059 73.0333 62.0992 72.42C62.1926 71.8067 62.3126 71.0667 62.4592 70.2C62.6192 69.32 62.7926 68.3733 62.9792 67.36C63.1659 66.3333 63.3459 65.28 63.5192 64.2C63.7059 63.12 63.8726 62.0667 64.0192 61.04L64.6592 61.96C64.5659 61.9067 64.4526 61.8667 64.3192 61.84C64.1992 61.8133 64.0526 61.8 63.8792 61.8C63.6659 61.8 63.4326 61.8267 63.1792 61.88C62.9392 61.92 62.6926 61.9933 62.4392 62.1L62.1192 61.48C62.5192 61.1333 62.9459 60.8533 63.3992 60.64C63.8659 60.4267 64.2726 60.32 64.6192 60.32C65.0326 60.32 65.3392 60.44 65.5392 60.68C65.7392 60.9067 65.8392 61.2133 65.8392 61.6C65.8392 61.8133 65.7926 62.1933 65.6992 62.74C65.6192 63.2867 65.5059 63.94 65.3592 64.7C65.2259 65.4467 65.0792 66.24 64.9192 67.08C64.7726 67.9067 64.6259 68.72 64.4792 69.52C64.3459 70.32 64.2326 71.04 64.1392 71.68C64.0592 72.3067 64.0192 72.8067 64.0192 73.18C64.0192 73.5533 64.1659 73.74 64.4592 73.74C64.5792 73.74 64.7126 73.7133 64.8592 73.66C65.0059 73.6067 65.1592 73.5333 65.3192 73.44L65.6592 74.06C65.4326 74.2867 65.1726 74.4933 64.8792 74.68C64.5992 74.8533 64.3126 74.9867 64.0192 75.08C63.7259 75.1867 63.4592 75.24 63.2192 75.24ZM69.5233 75.24C68.7233 75.24 68.0899 74.9667 67.6233 74.42C67.1699 73.86 66.9433 73.0133 66.9433 71.88C66.9433 71.0133 67.0766 70.2133 67.3433 69.48C67.6099 68.7333 67.9833 68.0867 68.4633 67.54C68.9566 66.98 69.5166 66.5467 70.1433 66.24C70.7833 65.92 71.4699 65.76 72.2033 65.76C72.6433 65.76 73.0566 65.8133 73.4433 65.92C73.8299 66.0267 74.1833 66.2 74.5033 66.44L74.2633 67.12C74.0099 67 73.7366 66.88 73.4433 66.76C73.1633 66.64 72.8299 66.58 72.4433 66.58C71.9366 66.58 71.4766 66.7267 71.0633 67.02C70.6499 67.3 70.3033 67.6867 70.0233 68.18C69.7566 68.6733 69.5433 69.22 69.3833 69.82C69.2366 70.4067 69.1633 71.0133 69.1633 71.64C69.1633 72.1333 69.2099 72.5533 69.3033 72.9C69.3966 73.2333 69.5433 73.4933 69.7433 73.68C69.9566 73.8667 70.2099 73.96 70.5033 73.96C71.0899 73.96 71.5766 73.64 71.9633 73C72.3499 72.36 72.6766 71.4667 72.9433 70.32C73.2233 69.1733 73.4766 67.84 73.7033 66.32C73.9299 64.7867 74.1766 63.1333 74.4433 61.36L75.1633 61.96C75.0566 61.9067 74.9366 61.8667 74.8033 61.84C74.6699 61.8133 74.5233 61.8 74.3633 61.8C74.1499 61.8 73.9166 61.8267 73.6633 61.88C73.4233 61.92 73.1766 61.9933 72.9233 62.1L72.5833 61.48C72.9966 61.1333 73.4299 60.8533 73.8833 60.64C74.3499 60.4267 74.7633 60.32 75.1233 60.32C75.5233 60.32 75.8233 60.44 76.0233 60.68C76.2233 60.92 76.3233 61.2 76.3233 61.52C76.3233 61.7333 76.2766 62.12 76.1833 62.68C76.1033 63.2267 75.9899 63.88 75.8433 64.64C75.6966 65.3867 75.5433 66.1867 75.3833 67.04C75.2366 67.88 75.0899 68.7 74.9433 69.5C74.8099 70.3 74.6966 71.0267 74.6033 71.68C74.5233 72.32 74.4833 72.8267 74.4833 73.2C74.4833 73.3867 74.5166 73.5267 74.5833 73.62C74.6633 73.7 74.7766 73.74 74.9233 73.74C75.0433 73.74 75.1766 73.7133 75.3233 73.66C75.4699 73.6067 75.6299 73.5333 75.8033 73.44L76.1233 74.06C75.7899 74.3933 75.4033 74.6733 74.9633 74.9C74.5233 75.1267 74.0966 75.24 73.6833 75.24C73.3899 75.24 73.1566 75.1467 72.9833 74.96C72.8233 74.76 72.7166 74.5067 72.6633 74.2C72.6233 73.9867 72.5966 73.7867 72.5833 73.6C72.5699 73.4 72.5766 73.1933 72.6033 72.98H72.5433C72.2366 73.7133 71.8166 74.2733 71.2833 74.66C70.7499 75.0467 70.1633 75.24 69.5233 75.24Z" fill="#180B23"/>
<defs>
<linearGradient id="paint0_linear_1673_3" x1="74.4323" y1="21.9707" x2="62.8726" y2="32.3791" gradientUnits="userSpaceOnUse">
<stop stop-color="#4D194D"/>
<stop offset="1" stop-color="#180B23"/>
</linearGradient>
<linearGradient id="paint1_linear_1673_3" x1="82.8839" y1="14.3607" x2="76.0262" y2="20.5354" gradientUnits="userSpaceOnUse">
<stop stop-color="#4D194D"/>
<stop offset="1" stop-color="#180B23"/>
</linearGradient>
<linearGradient id="paint2_linear_1673_3" x1="60.1329" y1="17.1721" x2="51.5233" y2="24.9243" gradientUnits="userSpaceOnUse">
<stop stop-color="#4D194D"/>
<stop offset="1" stop-color="#180B23"/>
</linearGradient>
<linearGradient id="paint3_linear_1673_3" x1="60.005" y1="3.43341" x2="53.1506" y2="9.60515" gradientUnits="userSpaceOnUse">
<stop stop-color="#4D194D"/>
<stop offset="1" stop-color="#180B23"/>
</linearGradient>
<linearGradient id="paint4_linear_1673_3" x1="43.1883" y1="25.1096" x2="41.702" y2="26.4478" gradientUnits="userSpaceOnUse">
<stop stop-color="#4D194D"/>
<stop offset="1" stop-color="#180B23"/>
</linearGradient>
<linearGradient id="paint5_linear_1673_3" x1="36.131" y1="11.8704" x2="29.2736" y2="18.0449" gradientUnits="userSpaceOnUse">
<stop stop-color="#4D194D"/>
<stop offset="1" stop-color="#180B23"/>
</linearGradient>
<linearGradient id="paint6_linear_1673_3" x1="71.2761" y1="32.7336" x2="68.7515" y2="35.0067" gradientUnits="userSpaceOnUse">
<stop stop-color="#4D194D"/>
<stop offset="1" stop-color="#180B23"/>
</linearGradient>
<linearGradient id="paint7_linear_1673_3" x1="77.7276" y1="30.0203" x2="74.1363" y2="33.254" gradientUnits="userSpaceOnUse">
<stop stop-color="#4D194D"/>
<stop offset="1" stop-color="#180B23"/>
</linearGradient>
<linearGradient id="paint8_linear_1673_3" x1="84.3673" y1="27.515" x2="80.7755" y2="30.749" gradientUnits="userSpaceOnUse">
<stop stop-color="#4D194D"/>
<stop offset="1" stop-color="#180B23"/>
</linearGradient>
<linearGradient id="paint9_linear_1673_3" x1="89.752" y1="25.7627" x2="87.2272" y2="28.0361" gradientUnits="userSpaceOnUse">
<stop stop-color="#4D194D"/>
<stop offset="1" stop-color="#180B23"/>
</linearGradient>
<linearGradient id="paint10_linear_1673_3" x1="60.0474" y1="29.756" x2="57.5398" y2="32.0139" gradientUnits="userSpaceOnUse">
<stop stop-color="#4D194D"/>
<stop offset="1" stop-color="#180B23"/>
</linearGradient>
<linearGradient id="paint11_linear_1673_3" x1="68.8385" y1="10.916" x2="65.3195" y2="14.0845" gradientUnits="userSpaceOnUse">
<stop stop-color="#4D194D"/>
<stop offset="1" stop-color="#180B23"/>
</linearGradient>
<linearGradient id="paint12_linear_1673_3" x1="63.1109" y1="23.6245" x2="59.5918" y2="26.7932" gradientUnits="userSpaceOnUse">
<stop stop-color="#4D194D"/>
<stop offset="1" stop-color="#180B23"/>
</linearGradient>
<linearGradient id="paint13_linear_1673_3" x1="65.9746" y1="17.2704" x2="62.4556" y2="20.4388" gradientUnits="userSpaceOnUse">
<stop stop-color="#4D194D"/>
<stop offset="1" stop-color="#180B23"/>
</linearGradient>
<linearGradient id="paint14_linear_1673_3" x1="70.8911" y1="5.69502" x2="68.3836" y2="7.95283" gradientUnits="userSpaceOnUse">
<stop stop-color="#4D194D"/>
<stop offset="1" stop-color="#180B23"/>
</linearGradient>
<linearGradient id="paint15_linear_1673_3" x1="52.4379" y1="29.799" x2="50.5468" y2="31.5018" gradientUnits="userSpaceOnUse">
<stop stop-color="#4D194D"/>
<stop offset="1" stop-color="#180B23"/>
</linearGradient>
<linearGradient id="paint16_linear_1673_3" x1="50.4321" y1="23.7875" x2="48.1384" y2="25.8528" gradientUnits="userSpaceOnUse">
<stop stop-color="#4D194D"/>
<stop offset="1" stop-color="#180B23"/>
</linearGradient>
<linearGradient id="paint17_linear_1673_3" x1="47.9604" y1="17.2611" x2="45.6672" y2="19.326" gradientUnits="userSpaceOnUse">
<stop stop-color="#4D194D"/>
<stop offset="1" stop-color="#180B23"/>
</linearGradient>
<linearGradient id="paint18_linear_1673_3" x1="45.4897" y1="10.7343" x2="43.1969" y2="12.7987" gradientUnits="userSpaceOnUse">
<stop stop-color="#4D194D"/>
<stop offset="1" stop-color="#180B23"/>
</linearGradient>
<linearGradient id="paint19_linear_1673_3" x1="43.0818" y1="5.08499" x2="41.1904" y2="6.78799" gradientUnits="userSpaceOnUse">
<stop stop-color="#4D194D"/>
<stop offset="1" stop-color="#180B23"/>
</linearGradient>
<linearGradient id="paint20_linear_1673_3" x1="40.2581" y1="31.6647" x2="38.3242" y2="33.4061" gradientUnits="userSpaceOnUse">
<stop stop-color="#4D194D"/>
<stop offset="1" stop-color="#180B23"/>
</linearGradient>
<linearGradient id="paint21_linear_1673_3" x1="28.7906" y1="26.1972" x2="26.4405" y2="28.3132" gradientUnits="userSpaceOnUse">
<stop stop-color="#4D194D"/>
<stop offset="1" stop-color="#180B23"/>
</linearGradient>
<linearGradient id="paint22_linear_1673_3" x1="34.9459" y1="28.9809" x2="32.5958" y2="31.0969" gradientUnits="userSpaceOnUse">
<stop stop-color="#4D194D"/>
<stop offset="1" stop-color="#180B23"/>
</linearGradient>
<linearGradient id="paint23_linear_1673_3" x1="23.0631" y1="23.8882" x2="21.1291" y2="25.6296" gradientUnits="userSpaceOnUse">
<stop stop-color="#4D194D"/>
<stop offset="1" stop-color="#180B23"/>
</linearGradient>
</defs>
</svg>
