<svg width="42" height="40" viewBox="0 0 42 40" fill="none" xmlns="http://www.w3.org/2000/svg">
<path fill-rule="evenodd" clip-rule="evenodd" d="M8.03934 14.2183C7.56373 14.4951 7.16513 14.7681 6.85099 15.0028C6.5088 15.2585 5.99276 15.04 6.0102 14.6132C6.02871 14.1604 6.07678 13.6045 6.18664 13.0217C6.36141 12.0946 6.69253 11.0994 7.30973 10.3428C6.85453 9.46608 6.60355 8.50618 6.60355 7.49998C6.60355 3.35785 10.8569 0 16.1036 0C21.3503 0 25.6036 3.35785 25.6036 7.49998C25.6036 11.6421 21.3503 15 16.1036 15C13.7996 15 11.6871 14.3525 10.0422 13.2753C9.27474 13.5569 8.60294 13.8903 8.03934 14.2183ZM9.53925 10.2965C9.63115 10.4736 9.60905 10.6884 9.48294 10.843L8.88124 11.5805C9.03484 11.5179 9.19234 11.4568 9.35344 11.3977L10.0611 11.1381C10.2095 11.0836 10.3751 11.1026 10.5073 11.1892L11.138 11.6022C12.4401 12.4549 14.1679 13 16.1036 13C20.7122 13 23.6036 10.1228 23.6036 7.49998C23.6036 4.87723 20.7122 2 16.1036 2C11.495 2 8.60354 4.87723 8.60354 7.49998C8.60354 8.16608 8.76824 8.81158 9.08474 9.42118L9.53925 10.2965Z" fill="#FFFFFF"/>
<path fill-rule="evenodd" clip-rule="evenodd" d="M29.1042 7C27.9521 7 26.9597 7.2398 26.1476 7.62649C25.4363 7.95689 24.8364 8.40309 24.3983 8.92839C24.5331 8.46879 24.6042 7.99069 24.6042 7.49999C24.6042 7.0866 24.5537 6.68216 24.4572 6.29016C25.7349 5.48226 27.3491 5 29.1042 5C33.2463 5 36.6042 7.68629 36.6042 11C36.6042 11.8463 36.3851 12.6517 35.9899 13.3819C35.9018 13.5448 35.9006 13.7414 35.9815 13.908C36.0768 14.1042 36.1563 14.309 36.2225 14.5163C36.403 15.0816 36.4849 15.6659 36.5196 16.147C36.5504 16.5731 36.0343 16.7965 35.6842 16.5518C35.364 16.3279 34.958 16.0749 34.4756 15.8352C34.3815 15.7885 34.2845 15.7423 34.1847 15.6968C34.0311 15.627 33.8533 15.6463 33.7102 15.7356C32.439 16.528 30.8405 17 29.1042 17C25.5343 17 22.5469 15.0046 21.7896 12.332C22.5428 11.8134 23.1742 11.1933 23.6467 10.4999C23.6186 10.6637 23.6042 10.8306 23.6042 11C23.6042 12.4176 24.6182 13.663 26.1475 14.3735C26.9596 14.7602 27.9521 15 29.1042 15C32.1317 15 34.5879 13.221 34.6041 11.0219C34.6041 11.0146 34.6042 11.0073 34.6042 11C34.6042 10.9971 34.6042 10.9943 34.6042 10.9914C34.6001 9.57739 33.5871 8.33559 32.061 7.62659C31.2489 7.2398 30.2563 7 29.1042 7Z" fill="#FFFFFF"/>
<path fill-rule="evenodd" clip-rule="evenodd" d="M10.0003 28C11.6582 28 13.0003 26.6579 13.0003 25C13.0003 23.3421 11.6582 22 10.0003 22C8.34236 22 7.00025 23.3421 7.00025 25C7.00025 26.6579 8.34236 28 10.0003 28ZM10.0003 30C12.7628 30 15.0003 27.7625 15.0003 25C15.0003 22.2375 12.7628 20 10.0003 20C7.23776 20 5.00024 22.2375 5.00024 25C5.00024 27.7625 7.23776 30 10.0003 30Z" fill="#FFFFFF"/>
<path fill-rule="evenodd" clip-rule="evenodd" d="M2.62152 35.7889C2.13553 36.2782 2.00001 36.6728 2.00001 37.0003V38.0003H20.0001V37.0003C20.0001 36.6728 19.8646 36.2782 19.3786 35.7889C18.8743 35.2812 18.0891 34.7795 17.0759 34.3367C15.0388 33.4464 12.5616 33.0003 11.0001 33.0003C9.43855 33.0003 6.96139 33.4464 4.92421 34.3367C3.91099 34.7795 3.12578 35.2812 2.62152 35.7889ZM11.0001 31.0003C7.32884 31.0003 0 33.0103 0 37.0003V40.0003H22.0001V37.0003C22.0001 33.0103 14.6714 31.0003 11.0001 31.0003Z" fill="#FFFFFF"/>
<path fill-rule="evenodd" clip-rule="evenodd" d="M31.9995 28C33.6574 28 34.9996 26.6579 34.9996 25C34.9996 23.3421 33.6574 22 31.9995 22C30.3416 22 28.9995 23.3421 28.9995 25C28.9995 26.6579 30.3416 28 31.9995 28ZM31.9995 30C34.7621 30 36.9996 27.7625 36.9996 25C36.9996 22.2375 34.7621 20 31.9995 20C29.237 20 26.9995 22.2375 26.9995 25C26.9995 27.7625 29.237 30 31.9995 30Z" fill="#FFFFFF"/>
<path fill-rule="evenodd" clip-rule="evenodd" d="M21.0003 26C22.1057 26 23.0003 25.1054 23.0003 24C23.0003 22.8946 22.1057 22 21.0003 22C19.8949 22 19.0003 22.8946 19.0003 24C19.0003 25.1054 19.8949 26 21.0003 26ZM21.0003 28C23.2103 28 25.0003 26.21 25.0003 24C25.0003 21.79 23.2103 20 21.0003 20C18.7903 20 17.0002 21.79 17.0002 24C17.0002 26.21 18.7903 28 21.0003 28Z" fill="#FFFFFF"/>
<path fill-rule="evenodd" clip-rule="evenodd" d="M22.6215 35.7891C22.1355 36.2784 22 36.673 22 37.0005V38.0005H40.0001V37.0005C40.0001 36.673 39.8646 36.2784 39.3786 35.7891C38.8743 35.2814 38.0891 34.7797 37.0759 34.3369C35.0388 33.4466 32.5616 33.0005 31.0001 33.0005C29.4385 33.0005 26.9613 33.4466 24.9242 34.3369C23.911 34.7797 23.1258 35.2814 22.6215 35.7891ZM31.0001 31.0005C27.3288 31.0005 20 33.0105 20 37.0005V40.0005H42.0001V37.0005C42.0001 33.0105 34.6714 31.0005 31.0001 31.0005Z" fill="#FFFFFF"/>
<path fill-rule="evenodd" clip-rule="evenodd" d="M21.0002 31C17.6909 31 15.3719 32.5425 14.7073 33.2071L13.293 31.7929C14.2951 30.7909 17.1094 29 21.0002 29C24.8909 29 27.7052 30.7909 28.7074 31.7929L27.293 33.2071C26.6284 32.5425 24.3094 31 21.0002 31Z" fill="#FFFFFF"/>
</svg>
