<svg width="46" height="42" viewBox="0 0 46 42" fill="none" xmlns="http://www.w3.org/2000/svg">
<path d="M22.9997 22.7501C24.0582 22.7501 24.9163 21.9666 24.9163 21.0001C24.9163 20.0336 24.0582 19.2501 22.9997 19.2501C21.9411 19.2501 21.083 20.0336 21.083 21.0001C21.083 21.9666 21.9411 22.7501 22.9997 22.7501Z" fill="#FFFFFF"/>
<path d="M30.6664 22.7501C31.725 22.7501 32.5831 21.9666 32.5831 21.0001C32.5831 20.0336 31.725 19.2501 30.6664 19.2501C29.6079 19.2501 28.7498 20.0336 28.7498 21.0001C28.7498 21.9666 29.6079 22.7501 30.6664 22.7501Z" fill="#FFFFFF"/>
<path d="M15.3329 22.7501C16.3915 22.7501 17.2496 21.9666 17.2496 21.0001C17.2496 20.0336 16.3915 19.2501 15.3329 19.2501C14.2744 19.2501 13.4163 20.0336 13.4163 21.0001C13.4163 21.9666 14.2744 22.7501 15.3329 22.7501Z" fill="#FFFFFF"/>
<path d="M36.5507 8.62743C33.4059 5.73731 29.2552 3.93955 24.8142 3.54411C20.3733 3.14866 15.9204 4.18029 12.2232 6.46116C8.526 8.74203 5.81625 12.1292 4.56108 16.0387C3.3059 19.9482 3.58398 24.1351 5.34736 27.8774C5.53115 28.2253 5.59145 28.6168 5.51986 28.9974L3.83319 36.3999C3.76821 36.6837 3.78148 36.9778 3.87181 37.2558C3.96214 37.5338 4.1267 37.7869 4.35069 37.9924C4.53432 38.1589 4.75295 38.2896 4.99342 38.3769C5.23388 38.4641 5.4912 38.5059 5.74986 38.4999H6.13319L14.3365 36.9949C14.7535 36.9492 15.1763 37.0034 15.5632 37.1524C19.662 38.7625 24.2476 39.0164 28.5294 37.8703C32.8113 36.7243 36.521 34.2502 39.0191 30.8745C41.5172 27.4988 42.6471 23.4331 42.214 19.3783C41.7809 15.3236 39.8119 11.5338 36.6465 8.66243L36.5507 8.62743ZM38.1415 23.2574C37.7668 25.3469 36.8779 27.3315 35.5417 29.062C34.2055 30.7925 32.4568 32.2237 30.4272 33.2479C28.3977 34.2722 26.1401 34.8628 23.8245 34.9753C21.5088 35.0878 19.1953 34.7192 17.0582 33.8974C16.3002 33.6031 15.486 33.4484 14.6624 33.4424C14.3026 33.4447 13.9436 33.474 13.589 33.5299L8.18403 34.5274L9.27653 29.5924C9.49412 28.5237 9.35385 27.4198 8.87403 26.4249C7.97394 24.4736 7.57032 22.3613 7.69354 20.247C7.81675 18.1327 8.46359 16.0715 9.58538 14.2184C10.7072 12.3653 12.2747 10.7687 14.17 9.54872C16.0652 8.32871 18.2389 7.51709 20.5274 7.17493C22.9295 6.81498 25.3909 6.98239 27.7081 7.66329C30.0253 8.34419 32.1316 9.51903 33.8529 11.0906C35.5742 12.6622 36.8609 14.5854 37.6067 16.7011C38.3524 18.8168 38.5358 21.0642 38.1415 23.2574Z" fill="#FFFFFF"/>
</svg>
