<svg width="33" height="35" viewBox="0 0 33 35" fill="none" xmlns="http://www.w3.org/2000/svg">
<path d="M16.1608 1.25682C16.4456 1.09793 16.7968 1.09793 17.0817 1.25683L30.782 8.89754C31.0668 9.05643 31.2424 9.35011 31.2424 9.66792V24.9494C31.2424 25.2671 31.0668 25.5608 30.782 25.7197L17.0817 33.3604C16.7968 33.5194 16.4456 33.5194 16.1608 33.3604L2.46045 25.7197C2.17552 25.5608 2 25.2671 2 24.9494V9.66792C2 9.35011 2.17552 9.05643 2.46045 8.89753L16.1608 1.25682Z" stroke="#A4945E" stroke-width="2.06" stroke-linecap="round" stroke-linejoin="round"/>
<path d="M24.2955 21.7564H8.94727L16.6214 9.89561L24.2955 21.7564Z" stroke="#A4945E" stroke-width="2.06" stroke-linecap="round" stroke-linejoin="round"/>
<path d="M2.04053 9.1543L16.6214 9.89492" stroke="#A4945E" stroke-width="2.06" stroke-linejoin="round"/>
<path d="M2.04053 9.1543L8.94725 21.7564" stroke="#A4945E" stroke-width="2.06" stroke-linejoin="round"/>
<path d="M31.2021 9.1543L24.2954 21.7564" stroke="#A4945E" stroke-width="2.06" stroke-linejoin="round"/>
<path d="M31.2022 9.1543L16.6213 9.89552V1" stroke="#A4945E" stroke-width="2.06" stroke-linejoin="round"/>
<path d="M31.2021 25.4629L24.2954 21.7564" stroke="#A4945E" stroke-width="2.06" stroke-linejoin="round"/>
<path d="M2.04053 25.4629L8.94725 21.7564" stroke="#A4945E" stroke-width="2.06" stroke-linejoin="round"/>
<path d="M8.94727 21.7564L16.6214 33.6172L24.2955 21.7564" stroke="#A4945E" stroke-width="2.06" stroke-linejoin="round"/>
</svg>
