<svg width="33" height="33" viewBox="0 0 33 33" fill="none" xmlns="http://www.w3.org/2000/svg">
<path d="M32.9156 16.4578C32.9156 7.38955 25.526 0 16.4578 0C7.38955 0 0 7.38955 0 16.4578C0 21.2306 2.05722 25.526 5.31587 28.5378C5.31587 28.5543 5.31587 28.5543 5.29941 28.5707C5.46399 28.7353 5.66148 28.867 5.82606 29.0151C5.92481 29.0974 6.00709 29.1797 6.10584 29.2455C6.40208 29.4924 6.73124 29.7228 7.04394 29.9532C7.15914 30.0355 7.25789 30.1013 7.37309 30.1836C7.68579 30.3975 8.01495 30.595 8.36056 30.7761C8.47576 30.8419 8.60743 30.9242 8.72263 30.99C9.05179 31.1711 9.3974 31.3356 9.75947 31.4838C9.89113 31.5496 10.0228 31.6154 10.1545 31.6648C10.5165 31.8129 10.8786 31.9446 11.2407 32.0598C11.3723 32.1092 11.504 32.1585 11.6357 32.1914C12.0306 32.3066 12.4256 32.4054 12.8206 32.5041C12.9358 32.5371 13.051 32.57 13.1827 32.5864C13.6435 32.6852 14.1043 32.751 14.5816 32.8004C14.6474 32.8004 14.7133 32.8168 14.7791 32.8333C15.3387 32.8827 15.8982 32.9156 16.4578 32.9156C17.0174 32.9156 17.5769 32.8827 18.12 32.8333C18.1859 32.8333 18.2517 32.8168 18.3175 32.8004C18.7948 32.751 19.2556 32.6852 19.7164 32.5864C19.8316 32.57 19.9468 32.5206 20.0785 32.5041C20.4735 32.4054 20.8849 32.3231 21.2635 32.1914C21.3951 32.1421 21.5268 32.0927 21.6585 32.0598C22.0205 31.9281 22.3991 31.8129 22.7447 31.6648C22.8763 31.6154 23.008 31.5496 23.1397 31.4838C23.4853 31.3356 23.8309 31.1711 24.1765 30.99C24.3082 30.9242 24.4234 30.8419 24.5386 30.7761C24.8677 30.5786 25.1969 30.3975 25.526 30.1836C25.6412 30.1178 25.74 30.0355 25.8552 29.9532C26.1843 29.7228 26.497 29.4924 26.7933 29.2455C26.892 29.1632 26.9743 29.0809 27.0731 29.0151C27.2541 28.867 27.4351 28.7189 27.5997 28.5707C27.5997 28.5543 27.5997 28.5543 27.5833 28.5378C30.8584 25.526 32.9156 21.2306 32.9156 16.4578ZM24.5879 24.6373C20.1279 21.642 12.8206 21.642 8.32764 24.6373C7.6035 25.1146 7.01102 25.6742 6.51729 26.2831C4.0157 23.7486 2.46867 20.276 2.46867 16.4578C2.46867 8.73909 8.73909 2.46867 16.4578 2.46867C24.1765 2.46867 30.4469 8.73909 30.4469 16.4578C30.4469 20.276 28.8999 23.7486 26.3983 26.2831C25.921 25.6742 25.3121 25.1146 24.5879 24.6373Z" fill="#A4945E"/>
<path d="M16.4578 8.11318C13.051 8.11318 10.2861 10.8781 10.2861 14.2849C10.2861 17.6258 12.9029 20.3413 16.3755 20.4401H16.5236H16.6388H16.6718C19.9962 20.3249 22.613 17.6258 22.6295 14.2849C22.6295 10.8781 19.8646 8.11318 16.4578 8.11318Z" fill="#A4945E"/>
</svg>
