<svg width="33" height="35" viewBox="0 0 33 35" fill="none" xmlns="http://www.w3.org/2000/svg">
<path d="M32.5785 21.7056L29.6178 19.9697C29.9167 18.3327 29.9167 16.6532 29.6178 15.0161L32.5785 13.2803C32.919 13.0827 33.0719 12.6734 32.9607 12.2924C32.1893 9.78027 30.8758 7.5081 29.1591 5.61698C28.895 5.32767 28.4641 5.2571 28.1305 5.45468L25.1698 7.19056C23.9258 6.10387 22.4941 5.26416 20.9442 4.71376V1.24905C20.9442 0.853893 20.6732 0.508129 20.2909 0.423452C17.7403 -0.155175 15.1271 -0.12695 12.7015 0.423452C12.3193 0.508129 12.0482 0.853893 12.0482 1.24905V4.72081C10.5053 5.27827 9.07364 6.11799 7.82264 7.19762L4.86889 5.46174C4.52834 5.26416 4.10439 5.32767 3.84029 5.62404C2.12365 7.5081 0.810099 9.78027 0.0386502 12.2994C-0.0794996 12.6805 0.0803502 13.0897 0.4209 13.2873L3.38159 15.0232C3.08275 16.6603 3.08275 18.3397 3.38159 19.9768L0.4209 21.7127C0.0803502 21.9103 -0.0725496 22.3195 0.0386502 22.7006C0.810099 25.2127 2.12365 27.4848 3.84029 29.376C4.10439 29.6653 4.53529 29.7358 4.86889 29.5383L7.82959 27.8024C9.07364 28.8891 10.5053 29.7288 12.0552 30.2792V33.7509C12.0552 34.1461 12.3262 34.4919 12.7085 34.5765C15.2591 35.1552 17.8723 35.1269 20.2979 34.5765C20.6801 34.4919 20.9512 34.1461 20.9512 33.7509V30.2792C22.4941 29.7217 23.9258 28.882 25.1768 27.8024L28.1375 29.5383C28.478 29.7358 28.902 29.6723 29.1661 29.376C30.8827 27.4919 32.1962 25.2197 32.9677 22.7006C33.0719 22.3125 32.919 21.9032 32.5785 21.7056ZM16.4962 23.1381C13.4313 23.1381 10.9362 20.6048 10.9362 17.4929C10.9362 14.3811 13.4313 11.8478 16.4962 11.8478C19.5612 11.8478 22.0562 14.3811 22.0562 17.4929C22.0562 20.6048 19.5612 23.1381 16.4962 23.1381Z" fill="#FFFFFF"/>
</svg>
