<svg width="35" height="34" viewBox="0 0 35 34" fill="none" xmlns="http://www.w3.org/2000/svg">
<path d="M31.134 23.9745C30.428 23.476 29.5858 23.1832 28.709 23.1313H28.4274C27.3775 23.1346 26.3605 23.4812 25.5462 24.1133C24.7319 24.7455 24.1695 25.6249 23.9529 26.6049C23.8901 26.8983 23.8587 27.1971 23.859 27.4966C23.8519 28.4236 24.1593 29.3279 24.7351 30.0746C25.1281 30.5734 25.6287 30.9858 26.2031 31.284C26.7776 31.5823 27.4125 31.7594 28.0649 31.8034C28.7173 31.8474 29.372 31.7573 29.9847 31.5392C30.5974 31.321 31.1539 30.9799 31.6165 30.5389C32.0791 30.0979 32.4371 29.5673 32.6662 28.9829C32.8953 28.3986 32.9901 27.7741 32.9444 27.1518C32.8986 26.5294 32.7133 25.9237 32.401 25.3756C32.0887 24.8274 31.6566 24.3497 31.134 23.9745ZM28.4274 31.1081C27.8318 31.105 27.2454 30.9682 26.7154 30.709C26.1854 30.4497 25.7268 30.0752 25.3766 29.6157C24.8952 28.9977 24.6359 28.2479 24.6374 27.4779C24.6371 27.2273 24.6633 26.9773 24.7156 26.7317C24.8962 25.9197 25.3632 25.1912 26.0386 24.6678C26.7141 24.1444 27.5572 23.8575 28.4274 23.8552H28.6621C29.3877 23.8971 30.0849 24.1395 30.6686 24.5528C31.3114 25.0035 31.7885 25.6362 32.032 26.3608C32.2754 27.0854 32.2727 27.8649 32.0242 28.5879C31.7757 29.311 31.2942 29.9407 30.6483 30.3873C30.0024 30.8338 29.2251 31.0743 28.4274 31.0745V31.1081Z" fill="url(#paint0_linear_1195_4554)"/>
<path d="M28.8184 24.292H28.0361V27.3924C28.0359 27.4481 28.0488 27.5032 28.0739 27.5536C28.0989 27.6039 28.1355 27.6483 28.1809 27.6834L29.7845 28.9034L30.2734 28.3214L28.8184 27.2021V24.292Z" fill="url(#paint1_linear_1195_4554)"/>
<path d="M32.5499 22.5238V10.984V5.38754C32.5499 5.07985 32.4864 4.77518 32.363 4.49091C32.2395 4.20664 32.0586 3.94834 31.8305 3.73077C31.6024 3.5132 31.3316 3.34061 31.0336 3.22287C30.7356 3.10512 30.4162 3.04451 30.0936 3.04451H27.786V1.69018C27.786 1.46792 27.74 1.24784 27.6507 1.04254C27.5614 0.837242 27.4306 0.650759 27.2656 0.493768C27.1007 0.336778 26.9049 0.212363 26.6895 0.127646C26.474 0.0429293 26.2432 -0.000424752 26.0102 6.58954e-05H25.5956C25.3626 -0.000424752 25.1318 0.0429293 24.9164 0.127646C24.701 0.212363 24.5052 0.336778 24.3402 0.493768C24.1753 0.650759 24.0444 0.837242 23.9551 1.04254C23.8658 1.24784 23.8199 1.46792 23.8199 1.69018V3.03332H18.2463V1.69018C18.2463 1.24194 18.0596 0.812048 17.7273 0.495089C17.395 0.178131 16.9444 6.58954e-05 16.4744 6.58954e-05H16.0833C15.6134 6.58954e-05 15.1627 0.178131 14.8304 0.495089C14.4982 0.812048 14.3115 1.24194 14.3115 1.69018V3.03332H8.71831V1.69018C8.71832 1.46697 8.67198 1.24597 8.58196 1.03994C8.49194 0.833904 8.36003 0.64692 8.19384 0.489782C8.02765 0.332644 7.83047 0.208463 7.6137 0.124409C7.39692 0.040356 7.16483 -0.00190506 6.93084 6.58954e-05H6.53971C6.3067 -0.000424752 6.07588 0.0429293 5.86046 0.127646C5.64504 0.212363 5.44926 0.336778 5.28431 0.493768C5.11937 0.650759 4.98851 0.837242 4.89922 1.04254C4.80993 1.24784 4.76398 1.46792 4.76398 1.69018V3.03332H2.4563C1.80485 3.03332 1.18008 3.28018 0.719434 3.71958C0.258788 4.15898 0 4.75494 0 5.37635V10.9728V28.7171C0.00103437 29.3382 0.260155 29.9336 0.720577 30.3728C1.181 30.812 1.80517 31.0592 2.4563 31.0601H23.6009C24.1567 31.7387 24.8573 32.297 25.6563 32.6979C26.4553 33.0988 27.3344 33.3333 28.2355 33.3859C29.1366 33.4384 30.0392 33.3078 30.8834 33.0027C31.7276 32.6976 32.4943 32.225 33.1327 31.616C33.771 31.0071 34.2666 30.2758 34.5864 29.4705C34.9063 28.6652 35.0432 27.8043 34.9881 26.9447C34.933 26.0851 34.6872 25.2465 34.2669 24.4844C33.8465 23.7223 33.2613 23.054 32.5499 22.5238ZM0.770528 8.90955H31.7677V10.6109H0.770528V8.90955ZM24.6021 3.40641V1.69018C24.6032 1.43949 24.7083 1.19941 24.8945 1.0225C25.0807 0.845582 25.3328 0.746252 25.5956 0.746254H26.0102C26.273 0.746252 26.5251 0.845582 26.7113 1.0225C26.8975 1.19941 27.0027 1.43949 27.0037 1.69018V6.06285H24.6021V3.40641ZM15.0742 3.40641V1.69018C15.0752 1.44014 15.1798 1.20062 15.3652 1.02381C15.5505 0.847001 15.8016 0.747237 16.0638 0.746254H16.4549C16.717 0.747237 16.9681 0.847001 17.1535 1.02381C17.3388 1.20062 17.4434 1.44014 17.4444 1.69018V6.06285H15.0742V3.40641ZM5.5345 3.40641V1.69018C5.53501 1.5651 5.56147 1.44135 5.61236 1.32607C5.66325 1.21079 5.73756 1.10627 5.83101 1.01852C5.92446 0.930766 6.03519 0.86153 6.15683 0.814801C6.27846 0.768073 6.40859 0.744776 6.53971 0.746254H6.93084C7.19365 0.746252 7.44575 0.845582 7.63195 1.0225C7.81815 1.19941 7.92328 1.43949 7.92432 1.69018V6.06285H5.5345V3.40641ZM0.770528 5.37635C0.770528 4.95284 0.9469 4.54668 1.26084 4.24721C1.57479 3.94775 2.00059 3.77951 2.44457 3.77951H4.75224V6.43594C4.75224 6.53489 4.79345 6.62979 4.8668 6.69976C4.94015 6.76973 5.03964 6.80903 5.14337 6.80903H8.32718C8.43091 6.80903 8.5304 6.76973 8.60375 6.69976C8.6771 6.62979 8.71831 6.53489 8.71831 6.43594V3.77951H14.2919V6.43594C14.2919 6.53489 14.3331 6.62979 14.4065 6.69976C14.4798 6.76973 14.5793 6.80903 14.6831 6.80903H17.8551C17.9589 6.80903 18.0584 6.76973 18.1317 6.69976C18.2051 6.62979 18.2463 6.53489 18.2463 6.43594V3.77951H23.8199V6.43594C23.8199 6.53489 23.8611 6.62979 23.9344 6.69976C24.0078 6.76973 24.1073 6.80903 24.211 6.80903H27.3948C27.4986 6.80903 27.598 6.76973 27.6714 6.69976C27.7447 6.62979 27.786 6.53489 27.786 6.43594V3.77951H30.0936C30.5376 3.77951 30.9634 3.94775 31.2773 4.24721C31.5913 4.54668 31.7677 4.95284 31.7677 5.37635V8.16336H0.770528V5.37635ZM2.44457 30.314C2.00059 30.314 1.57479 30.1457 1.26084 29.8463C0.9469 29.5468 0.770528 29.1406 0.770528 28.7171V11.357H31.7677V22.0163L31.7168 21.994C31.533 21.8936 31.3437 21.8026 31.1497 21.7216L31.048 21.6843C30.872 21.6134 30.6881 21.55 30.5043 21.494L30.3987 21.4642C30.1992 21.4082 30.0076 21.3634 29.7846 21.3261L29.6477 21.3037L29.3661 21.2627V14.0135C29.3661 13.9145 29.3249 13.8196 29.2516 13.7497C29.1782 13.6797 29.0787 13.6404 28.975 13.6404H3.55147C3.44774 13.6404 3.34825 13.6797 3.2749 13.7497C3.20155 13.8196 3.16034 13.9145 3.16034 14.0135V26.139C3.16034 26.238 3.20155 26.3329 3.2749 26.4029C3.34825 26.4728 3.44774 26.5121 3.55147 26.5121H22.2866C22.2464 26.7753 22.2255 27.0409 22.2241 27.3068C22.2241 27.4561 22.2241 27.6053 22.2436 27.7545V27.8963C22.2436 27.997 22.2671 28.0978 22.2827 28.1985C22.2984 28.2993 22.3023 28.3067 22.3101 28.3589C22.3179 28.4112 22.3492 28.5492 22.3727 28.6462L22.4079 28.7955C22.4353 28.9037 22.4705 29.0119 22.5018 29.1163L22.537 29.2208C22.5839 29.3588 22.6387 29.4969 22.6973 29.6312C22.6973 29.6685 22.7325 29.7058 22.7521 29.7431C22.7951 29.8401 22.8421 29.9334 22.8929 30.0304C22.9438 30.1274 22.9477 30.1274 22.975 30.1796C23.0024 30.2319 23.022 30.2692 23.0494 30.314H2.44457ZM9.52404 19.7032H3.95042V14.3866H9.52404V19.7032ZM3.95042 20.4494H9.52404V25.7659H3.95042V20.4494ZM15.8799 19.7032H10.3063V14.3866H15.8799V19.7032ZM10.3063 20.4494H15.8799V25.7659H10.3063V20.4494ZM28.5917 19.7032H23.0181V14.3866H28.5917V19.7032ZM22.2358 19.7032H16.6622V14.3866H22.2358V19.7032ZM16.6622 20.4494H22.2319V25.7659H16.6622V20.4494ZM23.0181 24.3818V20.4494H28.5917V21.2179C28.4235 21.2179 28.2592 21.2179 28.0949 21.2403H27.9541C27.829 21.2403 27.7077 21.2552 27.5904 21.2851L27.4222 21.3149C27.3049 21.3149 27.1875 21.3597 27.0702 21.3895L26.9333 21.4231C26.7729 21.4642 26.6165 21.5089 26.46 21.5612L26.4053 21.5836C26.2671 21.6333 26.1367 21.6855 26.0141 21.7403L25.8694 21.8074C25.7677 21.8522 25.666 21.9007 25.5643 21.9567L25.4235 22.0313C25.314 22.091 25.2084 22.1544 25.1028 22.2215L25.0011 22.2924C24.8681 22.3782 24.7351 22.4715 24.61 22.5685L24.5317 22.6655C24.4379 22.7402 24.3479 22.8185 24.258 22.9006L24.1367 23.0088L23.902 23.2438L23.7964 23.3558C23.7025 23.4602 23.6087 23.5722 23.5187 23.6841L23.4913 23.7177C23.3935 23.8445 23.3036 23.9714 23.2175 24.0907C23.1902 24.1281 23.1667 24.1728 23.1393 24.2139C23.1119 24.2549 23.0494 24.3221 23.0181 24.3818ZM28.6152 32.6458C27.8674 32.6646 27.1233 32.5405 26.4267 32.2805C25.7301 32.0206 25.0952 31.6302 24.5593 31.1324C24.0235 30.6346 23.5976 30.0395 23.3068 29.3821C23.016 28.7247 22.8662 28.0185 22.8662 27.305C22.8662 26.5915 23.016 25.8852 23.3068 25.2278C23.5976 24.5705 24.0235 23.9753 24.5593 23.4775C25.0952 22.9797 25.7301 22.5893 26.4267 22.3294C27.1233 22.0695 27.8674 21.9453 28.6152 21.9641C28.7325 21.9641 28.8459 21.9641 28.9554 21.9641C29.1119 21.9641 29.2683 21.9902 29.4248 22.0126C30.3311 22.1365 31.1904 22.4751 31.9241 22.9976C32.875 23.663 33.5811 24.5981 33.9414 25.6693C34.3017 26.7404 34.2979 27.8928 33.9304 28.9618C33.5629 30.0307 32.8507 30.9615 31.8953 31.6211C30.94 32.2808 29.7906 32.6355 28.6112 32.6346L28.6152 32.6458Z" fill="url(#paint2_linear_1195_4554)"/>
<defs>
<linearGradient id="paint0_linear_1195_4554" x1="28.4072" y1="23.1313" x2="28.4072" y2="31.8143" gradientUnits="userSpaceOnUse">
<stop stop-color="#180B23"/>
<stop offset="1" stop-color="#4D194D"/>
</linearGradient>
<linearGradient id="paint1_linear_1195_4554" x1="29.1548" y1="24.292" x2="29.1548" y2="28.9034" gradientUnits="userSpaceOnUse">
<stop stop-color="#180B23"/>
<stop offset="1" stop-color="#4D194D"/>
</linearGradient>
<linearGradient id="paint2_linear_1195_4554" x1="17.5" y1="0" x2="17.5" y2="33.3972" gradientUnits="userSpaceOnUse">
<stop stop-color="#180B23"/>
<stop offset="1" stop-color="#4D194D"/>
</linearGradient>
</defs>
</svg>
