<svg width="4" height="28" viewBox="0 0 4 28" fill="none" xmlns="http://www.w3.org/2000/svg">
<path d="M0.25 11.3122C0.183696 11.3122 0.120107 11.5505 0.0732234 11.9748C0.0263393 12.3991 0 12.9745 0 13.5746C0 14.1746 0.0263393 14.7501 0.0732234 15.1744C0.120107 15.5986 0.183696 15.837 0.25 15.837V11.3122ZM3.75 15.837C3.8163 15.837 3.87989 15.5986 3.92678 15.1744C3.97366 14.7501 4 14.1746 4 13.5746C4 12.9745 3.97366 12.3991 3.92678 11.9748C3.87989 11.5505 3.8163 11.3122 3.75 11.3122V15.837ZM0.25 0C0.183696 0 0.120107 0.238363 0.0732234 0.662651C0.0263393 1.08694 0 1.6624 0 2.26243C0 2.86246 0.0263393 3.43792 0.0732234 3.86221C0.120107 4.2865 0.183696 4.52486 0.25 4.52486V0ZM3.75 4.52486C3.8163 4.52486 3.87989 4.2865 3.92678 3.86221C3.97366 3.43792 4 2.86246 4 2.26243C4 1.6624 3.97366 1.08694 3.92678 0.662651C3.87989 0.238363 3.8163 0 3.75 0V4.52486ZM0.25 22.6243C0.183696 22.6243 0.120107 22.8627 0.0732234 23.2869C0.0263393 23.7112 0 24.2867 0 24.8867C0 25.4868 0.0263393 26.0622 0.0732234 26.4865C0.120107 26.9108 0.183696 27.1492 0.25 27.1492V22.6243ZM3.75 27.1492C3.8163 27.1492 3.87989 26.9108 3.92678 26.4865C3.97366 26.0622 4 25.4868 4 24.8867C4 24.2867 3.97366 23.7112 3.92678 23.2869C3.87989 22.8627 3.8163 22.6243 3.75 22.6243V27.1492ZM0.25 15.837H3.75V11.3122H0.25V15.837ZM0.25 4.52486H3.75V0H0.25V4.52486ZM0.25 27.1492H3.75V22.6243H0.25V27.1492Z" fill="#A4945E"/>
</svg>
