<svg xmlns="http://www.w3.org/2000/svg" width="96" height="40" viewBox="0 0 96 40" fill="none">
  <path d="M79.8751 0.330227C78.5097 1.11718 78.1305 2.38399 78.798 3.97709C79.3441 5.30148 79.3138 5.53181 78.6463 5.53181C78.1456 5.53181 78.1153 5.57019 78.1608 6.05004C78.1911 6.49151 78.2822 6.60667 78.6918 6.64506L79.1773 6.70264L79.2228 10.5798C79.2683 14.8025 79.2228 15.4935 78.7525 16.2805C78.5856 16.5684 78.4946 16.8563 78.5401 16.9331C78.6614 17.0866 82.3783 17.0866 82.3783 16.9331C82.3783 16.8755 82.2266 16.5492 82.0446 16.2229C81.7108 15.6279 81.6956 15.4167 81.6501 11.0405L81.6046 6.49151H82.0597C82.4542 6.49151 82.53 6.41473 82.53 6.03085C82.53 5.62778 82.439 5.551 82.0446 5.49342C81.5894 5.43584 81.5439 5.37825 81.4681 4.64888C81.4226 4.22661 81.1647 3.45885 80.8916 2.94061C80.3454 1.90414 80.2999 1.48187 80.6488 1.04041C81.1798 0.368614 81.6198 0.829271 81.6198 2.07688C81.6198 3.65079 82.2721 4.24581 83.0459 3.36288C83.5768 2.76787 83.6679 2.11527 83.2886 1.34751C82.6818 0.0998974 81.0736 -0.379951 79.8751 0.330227Z" fill="url(#paint0_linear_1_1096)"/>
  <path d="M14.8677 0.464611C11.3632 1.65464 9.64892 6.87541 11.2874 11.4052C12.0459 13.5165 14.0789 15.5703 16.2331 16.4724C17.7351 17.0866 20.7389 17.3745 22.5746 17.0866C24.5013 16.7795 26.1094 16.2037 27.2169 15.4551C28.4761 14.5914 28.4761 14.2843 27.2018 14.8409C25.9881 15.3784 24.5317 15.7047 23.3483 15.7047C21.3761 15.7047 17.7199 14.553 16.2483 13.459C14.6705 12.2881 13.4265 10.2728 12.9714 8.14222C12.6528 6.62589 12.7135 5.57022 13.2293 4.16906C14.4733 0.790911 17.2041 0.0423431 20.1776 2.28804C21.6037 3.36291 22.8173 3.80437 24.2889 3.80437C24.9413 3.80437 25.4874 3.72759 25.4874 3.65082C25.4874 3.55485 25.1992 3.32452 24.8503 3.13258C24.4861 2.94064 23.7731 2.23046 23.2573 1.57786L22.3167 0.368641L21.7099 0.675745C21.1334 0.963655 20.9665 0.963655 19.146 0.579775C16.9158 0.099926 16.0359 0.0807304 14.8677 0.464611Z" fill="url(#paint1_linear_1_1096)"/>
  <path d="M30.5845 0.829317C30.2659 0.963675 29.7653 1.36675 29.477 1.73144C29.0523 2.24967 28.9764 2.48 29.0067 3.03663C29.0371 3.59326 29.1129 3.72761 29.4315 3.766C29.7349 3.80439 29.9625 3.59326 30.5238 2.78711C31.2976 1.63547 31.8589 1.28997 31.8589 1.90418C31.8589 2.38403 30.7817 7.85433 30.1597 10.5223C29.6136 12.864 29.1433 14.2651 28.4909 15.5703C28.233 16.0694 28.0813 16.5492 28.142 16.626C28.2634 16.7987 31.6465 16.7987 31.783 16.6452C31.8285 16.5684 31.7375 16.1845 31.5555 15.7623C31.1458 14.745 30.9335 13.1327 31.07 11.8659L31.1762 10.8102L33.4822 10.7526L35.773 10.695L36.0916 12.4033C36.4557 14.3995 36.486 15.4168 36.1826 16.0886C36.0612 16.3573 35.9702 16.626 35.9551 16.7028C35.9551 16.7987 36.9563 16.8563 38.1852 16.8563H40.4153L39.945 16.2229C39.6871 15.8966 39.3989 15.4168 39.3078 15.1864C39.1258 14.7258 37.5177 6.0309 37.3811 4.68731C37.3204 4.13069 37.366 3.68923 37.5177 3.28615C37.8059 2.61436 37.7301 2.46081 37.1839 2.46081C36.9563 2.46081 36.2888 2.1537 35.682 1.78902C33.6187 0.541407 31.9196 0.215109 30.5845 0.829317ZM33.4822 2.30726C33.998 3.03663 34.3924 4.18827 34.9689 6.77946C35.3482 8.41095 35.4848 9.27469 35.3786 9.40904C35.1965 9.63937 31.7982 9.5434 31.601 9.31307C31.51 9.17872 32.0258 6.31881 32.8753 2.21129C32.9664 1.76982 33.1029 1.78902 33.4822 2.30726Z" fill="url(#paint2_linear_1_1096)"/>
  <path d="M41.2647 1.05962C41.2647 1.1172 41.3861 1.34753 41.5378 1.55866C41.7654 1.88496 41.7957 2.51836 41.7957 8.69884C41.7957 15.4359 41.7957 15.4935 41.462 16.0693C41.2647 16.3764 41.113 16.6836 41.113 16.7411C41.113 16.7795 42.9942 16.8371 45.2851 16.8563C47.7276 16.8563 49.6391 16.9523 49.8819 17.0674C50.1853 17.221 50.3067 17.2018 50.3522 17.0098C50.3825 16.8755 50.7466 15.9734 51.1411 14.9945C51.581 13.9388 51.8086 13.171 51.7176 13.1135C51.3838 12.8447 50.2005 13.3054 48.562 14.3227C46.9842 15.3208 46.7415 15.4167 45.6643 15.4743L44.481 15.5511L44.3748 13.958C44.3141 13.0751 44.2989 10.0616 44.3293 7.25929C44.3748 2.78708 44.4051 2.0961 44.6479 1.63544C44.7844 1.36672 44.9058 1.07881 44.9058 1.02123C44.9058 0.96365 44.0866 0.925261 43.0853 0.925261C42.084 0.925261 41.2647 0.982843 41.2647 1.05962Z" fill="url(#paint3_linear_1_1096)"/>
  <path d="M53.7203 1.05963L52.1577 1.1364L52.4308 1.52028C52.7039 1.90416 52.719 2.40321 52.7646 8.81401C52.8252 15.6087 52.8101 15.7047 52.4915 16.2805L52.1729 16.8563L54.8733 16.8947C59.9101 16.9523 61.0631 16.9907 61.2451 17.0674C61.3817 17.125 62.9595 13.4782 62.9595 13.0751C62.9595 13.0175 62.6105 13.0175 62.1706 13.0559C61.6092 13.1327 60.9114 13.4782 59.7129 14.2651C58.1503 15.3016 57.9379 15.3976 56.8 15.4743L55.5712 15.5511L55.4802 11.7699C55.3133 5.55103 55.3588 2.24966 55.6015 1.69303C55.8898 1.05963 55.8746 0.92527 55.5712 0.963657C55.4195 0.982851 54.5851 1.04043 53.7203 1.05963Z" fill="url(#paint4_linear_1_1096)"/>
  <path d="M70.5754 2.192C69.5438 2.8446 68.7094 4.16899 68.2391 5.85806C67.9356 6.99051 67.8901 7.52794 67.8901 9.85042C67.8901 12.4032 67.9053 12.5952 68.3301 13.7468C69.0886 15.8389 70.6816 17.2401 72.2897 17.2401C73.3972 17.2401 74.3378 16.7027 75.2784 15.5127C75.9763 14.6297 76.1887 14.1883 76.4314 13.171C77.3113 9.56251 76.8562 5.58934 75.3087 3.43961C74.5047 2.30717 73.7158 1.84651 72.4414 1.75054C71.516 1.67376 71.2733 1.73135 70.5754 2.192ZM73.0331 5.16708C74.1102 5.83887 75.1874 7.25922 75.7335 8.69877C76.1432 9.81203 76.1887 10.1191 76.128 11.29C76.037 13.3629 75.2936 14.3802 73.7461 14.5146C72.5325 14.6297 71.4401 13.9963 70.2568 12.4992C69.1493 11.0788 68.679 9.85042 68.6032 8.19973C68.5273 6.52985 69.028 5.30143 70.0141 4.74481C70.5602 4.4377 72.2594 4.66803 73.0331 5.16708Z" fill="url(#paint5_linear_1_1096)"/>
  <path d="M5.70429 17.1441C2.33633 18.2382 0 22.2306 0 26.9331C0 29.9082 0.895088 32.5761 2.65492 34.7835C5.21882 38.0464 8.79917 39.5244 14.0635 39.5052C16.8701 39.486 19.2672 38.9294 21.4973 37.7585C23.1661 36.8756 23.4999 36.127 21.9069 36.818C19.6161 37.8161 16.9005 38.0272 14.1242 37.3938C9.84597 36.4149 6.50835 34.3612 4.73335 31.6356C2.26048 27.7968 2.16945 22.9216 4.53613 19.9273C5.44639 18.7756 6.20493 18.2766 7.44896 18.0079C9.23913 17.6048 10.7259 18.1422 13.2594 20.1192C15.0345 21.5012 15.9902 21.8851 17.9473 22.0002C18.8727 22.0578 19.5706 22.0194 19.5706 21.9043C19.5706 21.8083 19.343 21.578 19.0851 21.386C18.0686 20.6567 16.9915 19.4858 16.3998 18.4877L15.7778 17.4513L15.2468 17.72C14.4883 18.123 13.3505 18.0655 11.53 17.528C9.48187 16.9138 6.94831 16.7411 5.70429 17.1441Z" fill="url(#paint6_linear_1_1096)"/>
  <path d="M81.726 17.7584L80.9977 17.8352L81.377 18.411C81.5894 18.7181 81.8018 19.2747 81.8625 19.6202C81.9384 20.2153 81.4225 27.3746 80.9371 32.3075C80.6033 35.7624 80.9977 37.0868 82.7121 38.1425C84.1837 39.0638 85.6097 39.3709 87.8399 39.2557C90.8437 39.1022 92.6036 38.1617 93.3621 36.3382C93.7717 35.3401 93.7566 32.8257 93.3166 28.9485C92.6491 23.2095 92.7401 20.6951 93.6807 18.6413C93.8931 18.1999 94.06 17.7968 94.06 17.7392C94.06 17.6816 92.9677 17.6241 91.6326 17.6241C90.2976 17.6241 89.2053 17.6624 89.2053 17.7008C89.2053 17.7392 89.4176 18.0655 89.6907 18.411C90.6313 19.697 91.314 22.2498 91.9209 26.9332C92.285 29.6203 92.5429 32.7681 92.5429 34.2653C92.5429 36.7413 90.9347 38.0465 87.9157 38.0273C86.0193 38.0273 84.9877 37.4323 84.3961 35.9543C84.0471 35.129 84.123 32.8065 84.654 27.4706C85.367 20.3304 85.5794 19.1404 86.3076 18.315C86.4896 18.1039 86.6262 17.8736 86.6262 17.7776C86.6262 17.6241 83.2279 17.6241 81.726 17.7584Z" fill="url(#paint7_linear_1_1096)"/>
  <path d="M94.9705 17.9119C94.576 18.5261 95.1677 19.4666 95.6987 19.0444C96.2145 18.6221 96.0324 17.624 95.4256 17.624C95.2739 17.624 95.0767 17.7584 94.9705 17.9119ZM95.82 18.1039C95.9414 18.4685 95.5166 19.006 95.2132 18.8524C94.9705 18.7373 94.8794 18.1806 95.0767 17.9503C95.2587 17.72 95.7442 17.8159 95.82 18.1039Z" fill="url(#paint8_linear_1_1096)"/>
  <path d="M95.1978 18.2191C95.0461 18.507 95.213 18.6606 95.5012 18.507C95.6378 18.4494 95.6985 18.3151 95.6529 18.1999C95.5316 17.9504 95.3192 17.9504 95.1978 18.2191Z" fill="url(#paint9_linear_1_1096)"/>
  <path d="M29.8111 19.3515C28.7339 19.8506 23.4999 19.8889 22.3166 19.4091C21.8918 19.2363 21.5125 19.1404 21.4974 19.1788C21.4063 19.3131 20.1775 23.3247 20.1775 23.459C20.1775 23.6894 20.9664 23.5742 21.4367 23.2671C21.7098 23.0752 22.3166 22.4801 22.8172 21.9235C23.5758 21.0406 24.6378 20.3112 24.8046 20.5415C24.8198 20.5607 24.8653 23.6318 24.8957 27.3554C24.9564 34.0541 24.9564 34.0925 24.6226 34.6683C24.4405 34.9754 24.3343 35.2825 24.3799 35.3593C24.5012 35.5129 26.3976 35.5129 27.4141 35.3593L28.2029 35.225L27.9299 34.7259C27.7782 34.4572 27.6113 34.0541 27.5658 33.843C27.5202 33.6319 27.4292 30.5416 27.3837 26.9715L27.2775 20.5032H27.6568C27.8692 20.5032 28.3547 20.8678 28.8856 21.4629C29.3711 22.0003 30.0235 22.5953 30.3421 22.8064C31.0247 23.2479 31.935 23.3247 31.7985 22.9408C31.7681 22.8256 31.5102 21.8659 31.2371 20.8294C30.9792 19.8122 30.7213 18.9676 30.6606 18.9868C30.6151 18.9868 30.2359 19.1596 29.8111 19.3515Z" fill="url(#paint10_linear_1_1096)"/>
  <path d="M45.8465 20.2728L46.1802 21.0213L45.6796 26.626C45.3913 29.697 45.2093 32.4802 45.27 32.8065C45.4065 33.7278 45.9071 34.4571 46.7719 34.9754C48.8503 36.2422 52.6431 36.0311 54.0084 34.5915C54.9946 33.5358 55.1159 32.4418 54.676 28.4302C54.5394 27.1826 54.4181 25.2056 54.4029 24.054C54.3877 22.1346 54.4332 21.8467 54.7973 20.8294C55.0552 20.1384 55.1463 19.7353 55.0249 19.7353C54.9187 19.7353 54.2512 19.6777 53.523 19.601C51.6873 19.4474 51.6266 19.505 52.2486 20.6758C53.083 22.2306 53.7354 26.031 53.9478 30.5991C54.0691 33.1136 53.9023 33.6894 52.8403 34.342C52.0362 34.8218 50.3522 35.0138 49.4723 34.7067C48.6227 34.4188 47.849 33.4591 47.7125 32.5569C47.6518 32.1347 47.7883 30.2345 48.0766 27.6817C48.7289 21.7891 48.8351 21.1557 49.2448 20.3879C49.442 20.0232 49.6089 19.6969 49.6089 19.6586C49.6089 19.6394 48.6834 19.601 47.5608 19.5626L45.5279 19.5242L45.8465 20.2728Z" fill="url(#paint11_linear_1_1096)"/>
  <path d="M56.2844 19.7163C56.2844 19.8122 56.3754 19.985 56.4968 20.1001C56.7851 20.4072 56.8913 22.5954 56.9064 28.7374C56.9216 33.7855 56.9064 34.0158 56.603 34.534C56.421 34.822 56.2844 35.0907 56.2844 35.1291C56.2844 35.1674 57.9684 35.1674 60.0317 35.1291C62.9597 35.0907 63.9761 35.1482 64.6285 35.3594C65.2505 35.5705 65.478 35.5897 65.5236 35.417C65.5539 35.2826 65.918 34.3613 66.3276 33.3632C66.7221 32.3651 67.0558 31.5206 67.0558 31.5014C67.0558 31.463 66.7979 31.4438 66.4642 31.4438C65.6753 31.4438 65.0836 31.7317 63.5058 32.8642C62.2163 33.7663 62.0949 33.8239 60.8357 33.9006L59.5158 33.9774L59.3945 27.6434C59.2883 21.5205 59.3035 21.271 59.6069 20.4264L59.9103 19.5435H58.0898C57.1037 19.5435 56.2844 19.6203 56.2844 19.7163Z" fill="url(#paint12_linear_1_1096)"/>
  <path d="M68.5274 20.4648L68.8915 21.3861L68.6488 25.4169C68.1937 33.2672 68.1482 33.6319 67.5413 35.129C67.511 35.225 68.3454 35.2826 69.3922 35.2826C70.439 35.2826 71.3037 35.2442 71.3037 35.1866C71.3037 35.129 71.1824 34.8411 71.0458 34.5532C70.8183 34.131 70.7728 33.6703 70.8031 31.8469C70.8334 30.6376 70.9093 29.5628 70.97 29.486C71.1065 29.3133 75.7943 29.1789 75.9157 29.3516C75.9612 29.4092 76.0523 30.5033 76.0978 31.7509C76.1888 33.7663 76.1736 34.131 75.9309 34.5724L75.673 35.0907H77.5542H79.4506L79.0865 34.1501C78.7679 33.344 78.6617 32.4803 78.2672 27.4898C78.0245 24.3228 77.8273 21.5781 77.8273 21.3477C77.8273 21.1174 77.9941 20.6184 78.2065 20.2345L78.5706 19.5435H76.5226H74.4745L74.7779 20.0809C74.9448 20.388 75.1117 20.8295 75.1723 21.0982C75.3847 22.1731 75.8247 27.9121 75.7033 28.0656C75.5668 28.2384 71.2279 28.1616 71.0913 27.9697C71.0307 27.9121 71.1065 26.2998 71.2431 24.4188C71.4251 21.8276 71.5616 20.8295 71.774 20.3496C71.9257 20.0042 72.0623 19.6779 72.0623 19.6203C72.0623 19.5819 71.1824 19.5435 70.1204 19.5435H68.1633L68.5274 20.4648Z" fill="url(#paint13_linear_1_1096)"/>
  <path d="M32.9214 19.8122C32.9214 19.8698 33.0731 20.2153 33.2399 20.5992C33.6041 21.3861 33.5889 22.1155 33.0731 29.8507C32.8455 33.2288 32.7545 34.0542 32.4814 34.6108L32.178 35.2826H34.0592C35.106 35.2826 35.9556 35.2442 35.9556 35.1866C35.9556 35.129 35.8494 34.8603 35.7128 34.5916C35.5004 34.2077 35.4701 33.7279 35.5308 31.9236C35.5611 30.6952 35.6673 29.6204 35.7432 29.5244C35.8494 29.39 36.8051 29.3516 38.2312 29.3708L40.5675 29.4284L40.6889 30.1002C40.7496 30.4649 40.8254 31.5398 40.8406 32.4995C40.871 33.9198 40.8254 34.3229 40.5979 34.7644L40.3248 35.2826H42.2363C43.2831 35.2826 44.1479 35.225 44.1479 35.1482C44.1479 35.0907 44.0569 34.8795 43.9355 34.726C43.541 34.131 43.3893 33.0945 43.0859 28.8718C42.9039 26.5493 42.7066 23.9197 42.6308 23.0368C42.4791 21.3861 42.5853 20.7143 43.0404 20.0809C43.268 19.7546 43.1769 19.7354 41.2957 19.7354H39.2932L39.6118 20.484C39.8242 21.0214 39.991 22.1539 40.2034 24.5531C40.3703 26.3958 40.5069 27.9505 40.5069 28.0273C40.5069 28.1232 39.4449 28.1808 38.1553 28.1808H35.8038V27.3555C35.8038 26.914 35.91 25.3017 36.0314 23.7854C36.1983 21.7508 36.3348 20.8487 36.5472 20.388L36.8506 19.7354H34.8936C33.8013 19.7354 32.9214 19.7738 32.9214 19.8122Z" fill="url(#paint14_linear_1_1096)"/>
  <defs>
    <linearGradient id="paint0_linear_1_1096" x1="80.8329" y1="17.0482" x2="80.8329" y2="0.000146866" gradientUnits="userSpaceOnUse">
      <stop stop-color="#A4945E"/>
      <stop offset="1" stop-color="#E2D07C"/>
    </linearGradient>
    <linearGradient id="paint1_linear_1_1096" x1="19.4106" y1="17.1989" x2="19.4106" y2="0.196333" gradientUnits="userSpaceOnUse">
      <stop stop-color="#A4945E"/>
      <stop offset="1" stop-color="#E2D07C"/>
    </linearGradient>
    <linearGradient id="paint2_linear_1_1096" x1="34.272" y1="16.8563" x2="34.272" y2="0.527809" gradientUnits="userSpaceOnUse">
      <stop stop-color="#A4945E"/>
      <stop offset="1" stop-color="#E2D07C"/>
    </linearGradient>
    <linearGradient id="paint3_linear_1_1096" x1="46.4252" y1="17.1698" x2="46.4252" y2="0.925261" gradientUnits="userSpaceOnUse">
      <stop stop-color="#A4945E"/>
      <stop offset="1" stop-color="#E2D07C"/>
    </linearGradient>
    <linearGradient id="paint4_linear_1_1096" x1="57.5586" y1="17.0681" x2="57.5586" y2="0.957649" gradientUnits="userSpaceOnUse">
      <stop stop-color="#A4945E"/>
      <stop offset="1" stop-color="#E2D07C"/>
    </linearGradient>
    <linearGradient id="paint5_linear_1_1096" x1="72.3828" y1="17.2401" x2="72.3828" y2="1.72215" gradientUnits="userSpaceOnUse">
      <stop stop-color="#A4945E"/>
      <stop offset="1" stop-color="#E2D07C"/>
    </linearGradient>
    <linearGradient id="paint6_linear_1_1096" x1="11.4705" y1="39.5054" x2="11.4705" y2="16.9264" gradientUnits="userSpaceOnUse">
      <stop stop-color="#A4945E"/>
      <stop offset="1" stop-color="#E2D07C"/>
    </linearGradient>
    <linearGradient id="paint7_linear_1_1096" x1="87.4443" y1="39.2788" x2="87.4443" y2="17.6241" gradientUnits="userSpaceOnUse">
      <stop stop-color="#A4945E"/>
      <stop offset="1" stop-color="#E2D07C"/>
    </linearGradient>
    <linearGradient id="paint8_linear_1_1096" x1="95.4211" y1="19.1499" x2="95.4211" y2="17.624" gradientUnits="userSpaceOnUse">
      <stop stop-color="#A4945E"/>
      <stop offset="1" stop-color="#E2D07C"/>
    </linearGradient>
    <linearGradient id="paint9_linear_1_1096" x1="95.4043" y1="18.5676" x2="95.4043" y2="18.0151" gradientUnits="userSpaceOnUse">
      <stop stop-color="#A4945E"/>
      <stop offset="1" stop-color="#E2D07C"/>
    </linearGradient>
    <linearGradient id="paint10_linear_1_1096" x1="25.9948" y1="35.4745" x2="25.9948" y2="18.9865" gradientUnits="userSpaceOnUse">
      <stop stop-color="#A4945E"/>
      <stop offset="1" stop-color="#E2D07C"/>
    </linearGradient>
    <linearGradient id="paint11_linear_1_1096" x1="50.1682" y1="35.8105" x2="50.1682" y2="19.5242" gradientUnits="userSpaceOnUse">
      <stop stop-color="#A4945E"/>
      <stop offset="1" stop-color="#E2D07C"/>
    </linearGradient>
    <linearGradient id="paint12_linear_1_1096" x1="61.6701" y1="35.5336" x2="61.6701" y2="19.5435" gradientUnits="userSpaceOnUse">
      <stop stop-color="#A4945E"/>
      <stop offset="1" stop-color="#E2D07C"/>
    </linearGradient>
    <linearGradient id="paint13_linear_1_1096" x1="73.4955" y1="35.2826" x2="73.4955" y2="19.5435" gradientUnits="userSpaceOnUse">
      <stop stop-color="#A4945E"/>
      <stop offset="1" stop-color="#E2D07C"/>
    </linearGradient>
    <linearGradient id="paint14_linear_1_1096" x1="38.1629" y1="35.2826" x2="38.1629" y2="19.7354" gradientUnits="userSpaceOnUse">
      <stop stop-color="#A4945E"/>
      <stop offset="1" stop-color="#E2D07C"/>
    </linearGradient>
  </defs>
</svg>