<svg xmlns="http://www.w3.org/2000/svg" width="94" height="31" viewBox="0 0 94 31" fill="none">
  <path d="M46.0894 13.1623C48.1162 13.1623 49.1737 11.6331 49.7319 10.4521C49.585 10.2856 48.9975 9.81622 48.645 9.45284C48.2925 10.1039 47.4406 11.0729 46.6034 11.0729C45.1053 11.0729 44.3416 8.84722 46.1334 7.04548C46.06 7.0152 45.5019 6.77295 44.9584 7.40885C44.9584 6.95464 45.1053 6.63668 45.2669 6.40957C44.7528 6.6064 43.8275 7.25745 43.5925 7.60568C43.6219 6.72753 43.8275 6.47013 43.6806 6.24302L43.6512 6.21274C43.6512 6.21274 42.4028 7.06062 42.2853 8.43842C42.2853 8.43842 42.4469 8.19617 42.5938 8.15075C42.6819 8.10532 42.7847 8.15075 42.6819 8.43842C42.6525 8.52926 41.83 10.8155 43.4309 12.375C43.3428 12.1327 43.1519 11.2243 43.7834 12.0873C43.7394 12.1025 44.6353 13.1623 46.0894 13.1623ZM53.7856 9.96763C53.7856 9.362 53.0659 9.30144 52.9631 9.2863C53.2569 9.87678 53.0953 10.4218 52.9925 10.649C53.3597 10.5884 53.7856 10.4067 53.7856 9.96763ZM55.2984 10.7549C55.2984 9.78594 54.3878 9.0289 53.3156 9.13489C54.4906 9.33172 54.1381 11.2243 52.5813 10.8609C53.1247 10.4673 53.0513 9.362 52.3903 8.96834C52.5959 9.60425 51.9497 10.2099 51.3034 9.66481C50.9509 9.37714 50.1284 8.66553 49.7466 8.36272C49.3941 8.04476 48.9388 8.21131 48.7772 8.09018C48.5863 7.92364 48.7038 7.51484 48.4541 7.33315C48.2191 7.21203 48.0134 7.28773 47.7491 7.18175C47.5141 7.0909 47.3525 6.89407 47.3672 6.65182C47 7.31801 47.8666 7.60568 48.0281 7.93878C48.175 8.22645 47.9106 8.66553 48.6156 9.22573C50.7894 10.982 49.9522 10.437 50.1431 11.9662C50.2313 12.6172 50.76 12.9806 51.0831 13.0866C50.7747 12.7989 50.6572 12.1176 51.0831 11.6785C51.0831 13.7831 53.9031 13.6922 54.4759 12.6475C54.1234 12.8141 53.4478 12.6172 53.1541 12.3598C54.285 12.5113 55.2397 11.7391 55.2984 10.7549ZM49.5116 7.96906C49.8053 8.09018 49.7466 8.07504 50.4516 8.65039C51.9497 4.94093 53.6388 6.27331 53.6828 6.30359C54.0059 6.01591 55.1222 5.72824 55.7097 5.89479C55.3572 5.48599 54.6081 4.95607 53.7562 4.95607C53.0659 4.95607 52.6694 5.28916 52.5813 5.1529C52.4638 4.94093 53.0513 4.63812 53.0513 4.63812C52.2581 4.6684 51.6412 5.65254 51.4062 5.53141C51.2447 5.45571 51.6119 4.97121 51.6119 4.97121C50.8628 5.41029 50.2459 6.34901 50.1138 6.9395C50.7894 6.06134 52.1406 5.45571 53.0072 5.57684C51.465 5.65254 50.1431 7.04548 49.5116 7.96906ZM85.1287 15.8271C82.0884 15.8271 79.2537 16.0239 77.7409 16.145L78.8278 17.3865V29.0751L77.7409 30.3167C79.2684 30.4378 82.2794 30.6346 85.3197 30.6346C91.5031 30.6346 94 27.5005 94 23.2308C94 18.7946 90.5925 15.8271 85.1287 15.8271ZM82.9109 27.2734V19.2034C87.3319 18.7038 89.7847 19.7788 89.7847 23.1854C89.7847 27.0614 86.6416 27.7579 82.9109 27.2734ZM44.2975 4.00221C44.1506 3.48743 44.2681 2.9575 44.4591 2.57899C44.6059 3.03321 44.8409 3.54799 45.5606 3.94165C45.4872 3.57827 45.5312 3.09377 45.6341 2.73039C45.4284 1.9128 45.9425 1.23147 46.5741 1.23147C47.5875 1.23147 47.8225 2.56385 47.2644 3.41172C47.5728 3.89622 48.0722 4.2596 48.3953 4.59269C48.8653 4.03249 49.2031 3.15433 49.2031 2.50328C49.2031 1.26175 48.3953 0.0959198 46.7503 0.00507591C43.8128 -0.13119 43.7834 2.51842 43.8128 2.86666C43.8862 3.65397 44.3122 4.04763 44.2975 4.00221ZM44.2388 4.91065C44.1653 5.18318 43.2106 5.47085 42.7406 5.95535C43.4456 5.80395 43.7687 5.92507 43.8862 6.22788C43.9597 6.43985 43.8569 6.74267 43.8128 7.07576C44.0478 6.80323 44.8409 6.24302 45.4284 6.13704C45.2816 6.09162 44.9291 6.01591 44.7969 6.01591C45.2228 5.50113 46.1628 5.33459 46.6769 5.45571C46.3537 5.42543 45.6928 5.62226 45.4284 5.84937C45.6634 5.89479 45.8691 5.94021 46.06 6.01591C45.7516 6.13704 45.355 6.5307 45.2081 6.9395C46.2362 6.18246 47.1322 7.72681 46.2362 8.18103C46.3537 8.21131 46.6328 8.18103 46.7503 8.10532C46.7062 8.27187 46.4712 8.55954 46.3097 8.62011C46.7356 8.62011 47.3378 8.33243 47.5141 7.92364C47.5141 7.92364 47.2497 8.01448 47.1322 7.89336C47.0147 7.77223 47.1763 7.24231 47.1763 7.24231C46.8384 7.68139 46.6769 7.04548 46.9853 6.6064C46.8384 6.56098 46.4712 6.51556 46.3097 6.5307C46.7797 6.36415 47.8372 6.25817 47.9547 6.48528C48.0428 6.65182 47.8078 7.00006 47.8078 7.00006C48.3953 6.92435 49.0269 7.1666 48.7919 7.77223C49.2178 7.56026 49.5997 6.87893 49.4969 6.1976C49.4528 6.34901 49.2619 6.56098 49.0709 6.6064C49.1003 6.39443 48.9241 6.27331 48.7919 6.21274C49.0416 4.75924 46.6475 4.06277 46.7209 2.59413C46.5741 2.79096 46.4566 3.35116 46.6034 3.66911C47 4.15362 47.8812 4.68354 48.0869 5.51627C47.705 4.54727 45.8691 3.79024 45.9425 2.45786C45.7075 2.70011 45.5606 3.63883 45.7516 4.12333C46.1041 4.3353 46.4125 4.69868 46.4566 5.04691C46.1334 4.27474 44.7822 4.12333 44.415 3.19975C44.3269 3.53285 44.3709 3.95679 44.5619 4.21418C44.5619 4.21418 44.2387 4.09305 43.5337 4.12333C43.7834 4.21418 44.2828 4.65326 44.2388 4.91065ZM48.0428 6.03106C47.6463 6.03106 47.5287 5.7131 47.4259 5.38001C47.9106 5.57684 48.0428 6.03106 48.0428 6.03106ZM53.7562 6.59126L53.6094 6.50042C53.4478 6.34901 53.1834 6.28845 52.9191 6.28845C52.4931 6.28845 52.0672 6.48527 51.8175 6.80323C51.7 6.92435 51.6119 7.07576 51.5091 7.19689V9.57397C52.0231 9.96762 52.5519 9.13489 51.9497 8.48384C52.17 8.52926 52.6253 8.89264 52.6987 8.96834C52.6987 8.96834 53.0806 8.89264 53.4331 8.89264C53.7416 8.89264 54.0059 8.93806 54.2556 9.05919V6.27331C54.0941 6.34901 53.9325 6.42471 53.8591 6.48528L53.7562 6.59126ZM11.7353 22.9129C14.2616 22.2164 14.1147 20.1876 14.1147 19.8999C14.1147 16.7809 10.575 16.1147 8.68031 16.1147H0.440625L1.65969 17.4168V21.8833H0L1.67437 24.0939V28.9843L0.440625 30.2864C9.50281 30.2864 11.28 30.5135 13.1306 29.3931C14.1147 28.7875 14.5847 27.9093 14.5847 26.7283C14.5847 25.9562 14.9666 23.8819 11.7353 22.9129ZM5.66938 18.7492C8.60688 18.7492 10.0169 18.6281 10.0169 20.127V20.5812C10.0169 22.4132 7.22625 21.9136 5.66938 21.9136V18.7492ZM5.66938 27.7125V24.2907C7.46125 24.2907 10.4722 23.9424 10.4722 25.6231V26.3044H10.5016C10.5016 28.0001 8.66563 27.7125 5.66938 27.7125ZM20.5331 24.7903L23.9259 24.8206V24.7903L25.9969 21.5805H20.5331V19.3245H28.2294L26.1584 16.145V16.1147L15.3631 16.145L16.45 17.3865V29.06L15.3631 30.3015H27.2894L29.3603 27.0917L20.5331 27.122V24.7903ZM52.0672 15.6908C41.2131 15.6908 40.6844 30.7255 52.0231 30.7255C63.4647 30.7255 62.9066 15.6908 52.0672 15.6908ZM52.0231 27.4248C46.53 27.4248 46.6034 19.052 52.0525 19.052C57.4575 19.0672 57.7513 27.4248 52.0231 27.4248ZM38.6134 26.1681L45.0906 16.145H38.9659L39.8619 17.2351L36.8509 22.8675H36.8069L33.7225 17.2351L34.6625 16.145H28.0678L34.545 26.1076L34.5744 29.0448L33.4434 30.2864H39.7003L38.6428 29.0448L38.6134 26.1681ZM34.4422 3.26032C34.6772 3.45714 34.8681 3.62369 34.8681 4.2596V10.1342C34.8681 10.7701 34.7506 10.9366 34.4716 11.1032C34.4569 11.1183 33.37 11.7845 33.3113 11.7996H38.4666C39.9353 11.7996 41.0222 11.5725 42.2853 10.4975C42.1972 9.74052 42.3147 9.05919 42.4028 8.68067C42.4028 8.65039 42.1384 8.89264 42.0062 9.21059C42.0062 8.34758 42.2412 6.87893 43.4162 6.10676C43.4016 6.10676 42.8728 5.98563 42.0944 6.27331C42.3881 5.80395 43.5631 5.07719 43.6219 5.07719C42.4175 1.14062 38.0406 1.60998 38.8925 1.60998C34.3541 1.60998 34.1044 1.65541 33.0322 1.00436C33.0469 1.12548 33.1056 2.24589 34.4422 3.26032ZM37.6 4.09305C38.2756 4.09305 40.9928 3.59341 40.9928 6.71239C40.9928 9.8465 38.2903 9.33172 37.6 9.33172V4.09305ZM71.2197 16.145L72.2478 17.4017V23.8365H72.2038C71.4106 21.6562 65.9909 17.5531 65.565 16.1299H60.9237L62.0106 17.4168V29.06L60.9531 30.3167H66.6813L65.5944 29.0751V21.8985H65.6384C66.1819 23.5034 72.1744 28.3938 72.7619 30.3167H75.8903V17.4168L76.9772 16.1602L71.2197 16.145ZM55.5481 1.59484C50.8188 1.59484 50.7306 1.62513 49.6878 0.989218C49.7025 1.0952 49.7612 2.24589 51.0978 3.24518C51.5531 3.54799 51.5237 3.89622 51.5237 4.68354C51.7881 4.51699 52.0819 4.35044 52.4197 4.22932C52.2581 4.39587 52.0231 4.63812 51.9056 4.91065C52.0525 4.7441 53.0072 4.13847 54.05 4.38072C53.815 4.42615 53.4625 4.54727 53.1541 4.8198C53.1687 4.8198 53.4625 4.65326 54.2556 4.77438V4.12333C54.9459 4.12333 57.6484 3.60855 57.6484 6.74267C57.6484 9.8465 54.9312 9.362 54.755 9.362C55.5922 10.0282 55.6069 11.1789 55.0781 11.8299H55.1222C60.0278 11.8299 60.5125 7.69653 60.5125 6.6821C60.5125 6.10676 60.3509 1.83709 55.5481 1.59484Z" fill="url(#paint0_linear_1_1094)"/>
  <defs>
    <linearGradient id="paint0_linear_1_1094" x1="46.9238" y1="-13.466" x2="47.0048" y2="30.7255" gradientUnits="userSpaceOnUse">
      <stop stop-color="#A4945E"/>
      <stop offset="1" stop-color="#E2D07C"/>
    </linearGradient>
  </defs>
</svg>