<svg xmlns="http://www.w3.org/2000/svg" width="109" height="42" viewBox="0 0 109 42" fill="none">
  <path d="M43.1945 0.0776768C43.1495 0.126371 43.172 2.36631 43.2621 5.02015C43.3296 7.67399 43.3522 9.88959 43.3071 9.93828C43.2846 9.98697 43.0819 9.84089 42.8792 9.62177C42.4739 9.18352 42.091 9.11048 42.091 9.45134C42.091 9.59742 41.1677 10.3765 40.0416 11.2043C37.8797 12.8112 36.8212 14.1503 36.9563 15.1242C37.0239 15.6112 37.1815 15.6842 38.0598 15.7573C38.8931 15.8059 39.3885 15.6599 40.8073 14.8321C43.3071 13.4199 43.5774 13.493 43.217 15.5625C42.9468 17.0963 43.127 17.9972 43.6675 17.9972C44.2305 17.9972 44.3206 17.5346 43.9827 16.439C43.5999 15.2947 43.5774 11.4722 43.9152 8.81831C44.0728 7.52791 44.3656 6.50533 44.8385 5.60448C45.379 4.53321 45.4691 4.11931 45.3565 3.41324C45.0637 1.68459 43.69 -0.433613 43.1945 0.0776768ZM42.2712 13.0547C42.3613 13.3712 39.3885 15.0755 38.7805 15.0755C38.285 15.0755 38.24 14.6129 38.7129 14.1747C40.0867 12.9086 42.0235 12.3 42.2712 13.0547Z" fill="url(#paint0_linear_1_1112)"/>
  <path d="M2.74794 0.881187C1.86963 1.07597 1.89215 0.832495 1.77955 10.1088L1.73451 16.2443L0.811163 16.0982C0.0905034 16.0008 -0.0671409 16.0495 0.0229416 16.3173C0.180586 16.7555 0.69856 18.5085 0.788642 18.8981C0.833684 19.0929 1.26158 19.2146 1.91467 19.2146C2.50021 19.2146 4.09917 19.4581 5.47293 19.7259C8.08532 20.2859 10.5851 20.2615 12.0715 19.7016C12.7921 19.4094 12.9047 18.7277 12.2066 18.7277C12.0039 18.7277 11.9138 18.5816 11.9814 18.3868C12.139 17.9729 10.45 17.6807 7.72499 17.6564C6.32871 17.632 5.83326 17.5347 5.51797 17.1938C5.29276 16.9747 4.81983 16.7799 4.4595 16.7799C3.87397 16.7799 3.8064 16.7068 3.91901 16.2686C4.00909 15.9521 3.94153 15.6112 3.71632 15.3434C3.01818 14.4913 2.70289 10.7905 3.13079 8.23403C3.24339 7.50362 3.40103 6.50538 3.4686 6.01844C3.53616 5.50715 3.91901 4.67935 4.36942 4.11936C5.33781 2.85331 5.40537 1.92812 4.5721 1.22205C3.98657 0.710758 3.73884 0.662064 2.74794 0.881187ZM9.88697 18.2651C10.5626 18.4355 10.4725 18.4598 9.43656 18.3625C8.76094 18.2894 7.83759 18.2407 7.4097 18.2407C6.82417 18.2407 6.71156 18.1677 6.95929 17.9972C7.2971 17.7538 8.46817 17.8512 9.88697 18.2651Z" fill="url(#paint1_linear_1_1112)"/>
  <path d="M85.8941 1.07603C85.286 1.2708 84.7005 1.41689 84.6329 1.44123C84.3177 1.46558 83.034 3.75421 82.7187 4.84984C81.7953 8.1854 83.9573 11.5453 87.3805 12.1296C88.4164 12.3001 88.7542 12.2514 90.2406 11.594C91.8621 10.8879 91.9521 10.7905 92.4476 9.57319C93.2583 7.57672 93.3484 6.14024 92.7629 4.65506C92.4926 3.97334 92.0873 3.26727 91.8846 3.09684C91.5693 2.82902 91.5693 2.82902 91.772 3.14553C91.9071 3.34031 92.1548 3.92464 92.2899 4.41159C92.9205 6.4811 92.7854 7.23586 92.0422 5.84807C91.7945 5.33678 91.5468 5.16635 91.254 5.23939C90.9387 5.33678 90.5333 4.97157 89.7226 3.87595L88.6191 2.39077L87.8309 3.19423C87.3805 3.63248 86.9751 4.07073 86.9075 4.14377C86.84 4.21681 86.5472 4.36289 86.2319 4.43593C85.8941 4.53332 85.4887 4.94722 85.2185 5.48286C84.8807 6.16458 84.1375 6.79761 83.6871 6.79761C83.6646 6.79761 83.6195 6.45675 83.597 6.04285C83.5294 5.11765 84.16 3.75421 85.0608 2.82902C85.759 2.12295 86.6373 1.78209 88.5966 1.44123C89.7451 1.2708 89.8127 1.19776 89.047 1.05168C87.6507 0.759511 86.9075 0.759511 85.8941 1.07603ZM90.3757 5.43417C90.8486 6.14024 90.8937 6.31067 90.6459 6.67587C90.3307 7.13847 89.8352 6.99239 89.8352 6.40805C89.8352 5.62895 89.4073 6.16458 88.9569 7.55237C88.6641 8.35583 88.4164 8.98885 88.3488 8.94016C88.3038 8.89147 88.3714 7.91758 88.484 6.77326C88.5966 5.65329 88.7092 4.53332 88.7092 4.28985C88.7092 3.9003 88.7542 3.9003 89.2497 4.2655C89.565 4.46028 90.0604 4.99592 90.3757 5.43417ZM86.4571 5.31243C86.4571 5.43417 86.2995 5.58025 86.1193 5.67764C85.7815 5.79938 85.6689 5.5559 85.9391 5.26374C86.1418 5.02027 86.4571 5.04461 86.4571 5.31243ZM91.9296 7.18716C91.7495 7.7228 91.4116 7.33325 91.4116 6.60283C91.4342 5.99415 91.4567 5.96981 91.7495 6.38371C91.9071 6.65153 91.9972 6.99239 91.9296 7.18716Z" fill="url(#paint2_linear_1_1112)"/>
  <path d="M98.1677 1.22216C95.5328 2.34213 94.2491 5.09336 94.9698 8.11241C95.4427 10.1576 96.4787 11.4967 98.1227 12.1784C99.6541 12.7871 100.803 12.714 102.334 11.8862C103.55 11.2289 104.316 10.2793 104.811 8.76979C105.284 7.26026 105.217 6.9681 104.676 8.2585C103.618 10.7906 101.929 11.8619 99.2037 11.6671C98.6857 11.6428 95.9157 9.57324 95.9157 9.20804C95.9157 9.0863 96.2309 9.15934 96.5913 9.35412C96.9741 9.57324 97.3795 9.67063 97.4921 9.59759C97.6047 9.52455 98.0326 9.69498 98.438 9.9628C98.8433 10.2306 99.4964 10.4497 99.8793 10.4497C100.6 10.4497 101.546 9.69498 101.546 9.11065C101.546 8.91587 101.748 8.74544 101.996 8.74544C102.266 8.74544 102.762 8.57501 103.122 8.38023C104.856 7.40635 103.798 4.04644 101.996 4.77685C101.456 4.99598 101.276 4.97163 100.96 4.58207C100.465 3.99774 99.6991 3.99774 99.2037 4.58207C98.6632 5.23945 98.9109 6.06725 99.6541 6.06725C99.9468 6.06725 100.195 5.94551 100.195 5.82378C100.195 5.6777 99.9919 5.58031 99.7442 5.58031C99.2037 5.58031 99.1361 5.2151 99.6541 4.99598C100.15 4.77685 100.42 5.02032 100.42 5.70204C100.42 6.45681 99.6766 6.72462 98.9559 6.21333C98.1902 5.6777 98.2353 4.8012 99.0685 3.9247C100.33 2.53691 102.402 2.31779 103.505 3.43776L104.001 3.9247L103.865 3.36471C103.438 1.63607 100.127 0.394361 98.1677 1.22216ZM99.4064 2.43952C99.1586 2.58561 98.6857 3.0482 98.3479 3.48645C97.92 4.02209 97.7173 4.11948 97.7173 3.85166C97.7173 3.14559 98.5956 2.1717 99.2487 2.1717C99.8117 2.19605 99.8342 2.19605 99.4064 2.43952ZM97.6272 6.57854C98.1452 7.16287 98.1902 7.28461 97.8524 7.28461C97.3119 7.28461 96.2084 6.0429 96.0057 5.23945C95.9157 4.8012 96.0057 4.3873 96.276 3.9247L96.6814 3.26733L96.839 4.55773C96.9516 5.50727 97.1768 6.06725 97.6272 6.57854ZM103.122 6.14029C103.122 6.55419 102.852 6.94375 102.334 7.21157C101.748 7.55243 100.825 7.18722 101.005 6.70028C101.118 6.40811 101.231 6.38376 101.546 6.60289C102.019 6.9194 102.762 6.67593 102.604 6.23768C102.559 6.0916 102.334 5.99421 102.109 6.01856C101.748 6.0916 101.726 6.0429 101.974 5.72639C102.199 5.43422 102.379 5.40988 102.694 5.60465C102.92 5.72639 103.122 5.96986 103.122 6.14029ZM103.212 7.55243C103.01 7.7959 102.672 8.01502 102.469 7.99068C102.221 7.99068 102.266 7.89329 102.627 7.72286C102.942 7.55243 103.212 7.13853 103.302 6.70028C103.438 6.01856 103.46 6.01856 103.528 6.5055C103.573 6.82201 103.438 7.28461 103.212 7.55243ZM96.9516 8.45327C96.9066 8.47762 96.5237 8.33154 96.0733 8.13676C95.4878 7.86894 95.24 7.60112 95.24 7.26026C95.24 6.82201 95.3301 6.84636 96.1183 7.57678C96.6138 8.01502 96.9741 8.40458 96.9516 8.45327ZM99.9694 7.84459C99.2487 8.23415 99.2262 9.0863 99.9243 9.18369C100.262 9.23238 100.42 9.13499 100.42 8.86718C100.42 8.64805 100.33 8.55066 100.195 8.6237C100.082 8.69675 99.9694 8.64805 99.9694 8.52632C99.9694 8.11241 100.645 8.2098 100.78 8.6237C101.095 9.47585 99.7442 10.1089 99.1136 9.42716C98.438 8.69675 99.0235 7.55243 100.082 7.52808C100.465 7.52808 100.465 7.57678 99.9694 7.84459Z" fill="url(#paint3_linear_1_1112)"/>
  <path d="M53.6441 5.92119L53.7567 8.23417L53.0586 8.30722C52.428 8.38026 52.3379 8.47765 52.3379 9.11067C52.3379 9.7437 52.428 9.84109 53.0586 9.91413L53.7792 9.98717L53.8468 12.9575C53.9143 15.8305 53.9369 15.9279 54.4098 16.0009C55.0854 16.0983 55.5358 15.1244 55.1755 14.394C55.0404 14.1262 54.9278 13.0062 54.9278 11.9106C54.9278 10.1333 54.9728 9.91413 55.3782 9.79239C55.6259 9.71935 55.761 9.57327 55.6935 9.45153C55.5809 9.25676 55.7835 9.20806 57.4501 9.13502C58.3284 9.08633 58.5085 8.74547 57.6528 8.74547C57.2249 8.74547 56.9771 8.64808 57.0672 8.50199C57.1573 8.35591 56.7745 8.25852 56.0763 8.25852H54.9278V6.96812C54.9278 5.36121 55.1304 5.02035 55.8961 5.23947C56.5267 5.38556 56.7069 5.09339 56.234 4.67949C55.9187 4.41167 54.0044 3.63256 53.7116 3.63256C53.599 3.63256 53.5765 4.65514 53.6441 5.92119Z" fill="url(#paint4_linear_1_1112)"/>
  <path d="M19.4576 8.94009C18.5117 9.57312 16.2822 12.0078 15.8768 12.8356C15.2688 14.126 10.8547 15.7816 9.88633 15.0999C9.6386 14.9051 9.61608 14.7104 9.79625 14.1747C9.97641 13.5904 10.1791 13.4687 11.125 13.3226C12.3411 13.1278 12.9041 12.5678 13.1293 11.3505C13.2869 10.547 12.5438 8.98878 12.0258 8.98878C11.6429 8.98878 10.1115 10.8392 9.54852 11.9591C9.30079 12.4704 8.96299 12.8843 8.80534 12.8843C8.62518 12.8843 8.58013 13.0061 8.69274 13.1765C8.78282 13.3469 8.82786 14.053 8.78282 14.7347C8.71526 16.2199 8.85038 16.366 10.4268 16.366C11.8231 16.366 12.9491 15.8547 14.2778 14.686C15.1787 13.9069 15.2913 13.8582 15.2913 14.2965C15.2913 14.5643 15.3588 14.9538 15.4264 15.173C15.6291 15.733 17.2506 15.6843 18.1739 15.0756C19.0973 14.4669 19.345 14.613 19.345 15.7086C19.345 16.1955 19.4576 16.5364 19.6378 16.5364C19.8179 16.5364 19.8404 16.6094 19.6603 16.7312C19.39 16.926 19.345 20.1885 19.6378 20.1885C19.7278 20.1885 19.7954 20.3102 19.7954 20.4563C19.7954 20.578 19.7278 20.6511 19.6378 20.6024C19.5252 20.5293 19.4351 20.7485 19.4125 21.0893C19.39 21.5519 19.4351 21.625 19.5927 21.3815C19.7278 21.1624 19.7954 21.3815 19.7954 22.0632C19.7954 22.6232 19.6828 23.1588 19.5702 23.2319C19.4351 23.3293 19.39 23.4997 19.4801 23.6214C19.8855 24.3275 20.0206 23.0614 20.0206 18.6059C19.9981 14.053 20.0431 13.5661 20.4935 12.5922C20.7413 12.0078 21.3043 11.2774 21.7322 10.9609C22.8132 10.1574 22.7231 9.64616 21.3944 9.01313C20.0656 8.40445 20.2683 8.40445 19.4576 8.94009ZM12.251 12.1539C12.3636 12.3487 11.2826 13.1278 10.8998 13.1278C10.5845 13.1278 10.8547 12.7139 11.4177 12.3487C12.1384 11.8374 12.0708 11.8618 12.251 12.1539ZM19.1198 13.2008C19.1198 14.1747 18.6243 14.7104 17.5433 14.9295C16.7326 15.0756 15.9444 14.7591 16.2822 14.4182C16.3948 14.3208 16.5299 14.3695 16.575 14.5156C16.6425 14.686 16.7776 14.8321 16.8902 14.8321C17.0254 14.8321 17.0479 14.7104 16.9578 14.5643C16.8227 14.3208 18.5568 12.4217 18.9621 12.3974C19.0522 12.3974 19.1198 12.7626 19.1198 13.2008Z" fill="url(#paint5_linear_1_1112)"/>
  <path d="M24.9085 9.47579C24.4581 9.88969 23.7149 10.8879 23.287 11.667C22.8366 12.4461 22.3636 13.1522 22.206 13.2009C22.0258 13.2983 22.0033 13.3957 22.1835 13.5418C22.3186 13.6392 22.4087 14.1504 22.4087 14.6374C22.4087 15.8547 22.7465 16.1713 24.0527 16.1469C25.1112 16.1469 27.2281 15.4408 27.2281 15.1243C27.2281 15.0269 27.5884 14.6861 28.0163 14.3696C29.1423 13.5418 28.8721 13.4931 27.3407 14.2478C26.4624 14.6861 25.6066 14.9052 24.7733 14.9296C23.5122 14.9539 23.5122 14.9539 23.5122 14.2235C23.5122 13.6878 23.6248 13.4687 23.9626 13.42C25.5165 13.1279 26.1246 12.8357 26.4399 12.154C26.9128 11.1557 26.8678 10.2062 26.2597 9.3784L25.7417 8.67233L24.9085 9.47579ZM25.8769 11.8862C25.8769 12.1783 25.6291 12.4461 25.2012 12.5922C24.3229 12.9331 24.1428 12.5679 24.8859 11.9349C25.6291 11.3018 25.8769 11.3018 25.8769 11.8862Z" fill="url(#paint6_linear_1_1112)"/>
  <path d="M29.4578 9.88972C28.6696 10.8149 28.0615 11.9105 28.3318 11.9105C28.4444 11.9105 28.602 11.8131 28.6921 11.6671C28.9398 11.2288 29.4578 11.7158 29.6154 12.5192C29.683 12.9818 29.6605 13.834 29.5254 14.4426C29.2326 15.9278 29.7281 16.1469 30.4712 14.8809C31.1018 13.7853 31.9351 13.1279 32.971 12.9575C33.9394 12.787 34.3223 13.4444 34.0971 14.9539C34.007 15.6113 34.052 16.0739 34.2097 16.1713C34.5925 16.4148 35.4483 15.7087 36.0113 14.6618L36.5068 13.7366L35.9212 14.3209C35.6059 14.6618 35.2906 14.8565 35.2456 14.8079C35.178 14.7348 35.2456 14.2235 35.3807 13.6635C35.8311 11.7158 35.1105 9.96276 33.8268 9.96276C33.3764 9.96276 32.8809 10.3767 31.8225 11.594L30.4262 13.2253L30.5388 11.2288C30.6964 8.96453 30.4712 8.69671 29.4578 9.88972Z" fill="url(#paint7_linear_1_1112)"/>
  <path d="M66.9544 9.96264C66.6841 10.0844 66.2112 10.6931 65.8734 11.3261C65.3554 12.3243 65.3329 12.4217 65.7383 12.0322C66.1436 11.6426 66.2562 11.6183 66.4139 11.9104C66.9318 12.8113 66.9544 16.2686 66.4814 20.6024C66.3688 21.6736 66.4139 21.8928 66.7066 21.8928C66.9093 21.8928 67.3372 21.4789 67.675 20.9676C69.1163 18.8737 69.792 18.825 69.792 20.8215C69.792 21.5519 69.882 22.1362 69.9721 22.1362C70.0847 22.1362 70.4 21.8684 70.7153 21.5032C71.1432 21.0163 71.1657 20.9189 70.8279 21.065C70.4 21.2354 70.4 21.2841 70.8054 19.7502C71.0081 18.9954 70.7378 17.8268 70.3325 17.6564C69.7469 17.4129 68.5308 18.1433 68.0128 19.0685C67.7201 19.5554 67.4273 19.945 67.3372 19.945C67.2697 19.945 67.3147 18.6059 67.4723 16.9503C67.8552 12.8843 67.9228 9.91395 67.6525 9.81656C67.5399 9.79221 67.2021 9.84091 66.9544 9.96264Z" fill="url(#paint8_linear_1_1112)"/>
  <path d="M62.3824 12.2027L62.4724 14.467L61.7293 14.4183C61.1437 14.3939 61.0086 14.467 61.0987 14.7591C61.1663 14.9539 61.2338 15.4408 61.2338 15.8304C61.2338 16.4634 61.3014 16.5365 61.7968 16.3904L62.3824 16.2443L62.3373 18.1677C62.3148 19.6529 62.4049 20.2616 62.6977 20.7485C62.9003 21.1137 63.1706 21.3572 63.2607 21.2842C63.3508 21.2111 63.4859 21.3329 63.576 21.5276C63.7336 21.9902 64.3867 21.9902 64.9722 21.552C65.3776 21.2111 65.3776 21.1868 64.7696 21.0407C63.8462 20.7729 63.4859 20.0425 63.4859 18.3625C63.4859 16.7799 63.8912 15.8304 64.5669 15.7817C64.8822 15.7817 64.8822 15.733 64.6119 15.6113C64.4092 15.5382 64.7245 15.3678 65.4001 15.173L66.5262 14.8809L65.2875 14.8565C63.576 14.8078 63.3958 14.6374 63.576 13.2496C63.7111 12.3001 63.666 11.9105 63.2156 11.034C62.9454 10.4497 62.6076 9.96273 62.495 9.96273C62.4049 9.96273 62.3373 10.9853 62.3824 12.2027Z" fill="url(#paint9_linear_1_1112)"/>
  <path d="M51.0995 11.6671C50.0185 12.2757 49.2979 13.0548 49.2979 13.6148C49.2979 14.2966 49.9509 16.0009 50.2662 16.1226C50.8968 16.3661 51.5049 15.8061 51.8427 14.6618C52.7435 11.7158 52.5183 10.8636 51.0995 11.6671ZM51.4373 13.6392C51.5274 13.9313 51.4824 14.2722 51.3697 14.3939C50.9869 14.8078 50.4239 14.4183 50.4239 13.7366C50.4239 12.9575 51.2121 12.8844 51.4373 13.6392Z" fill="url(#paint10_linear_1_1112)"/>
  <path d="M82.0659 13.42C80.3543 14.3696 79.2959 15.9035 79.1157 17.7295C79.0707 18.2164 78.9806 18.8495 78.913 19.166C78.7554 19.872 79.7238 22.0876 80.557 22.9398C81.4804 23.865 82.8766 24.571 83.7549 24.571C85.962 24.5224 87.651 23.5485 88.9572 21.479C89.6328 20.432 89.7004 20.1399 89.7004 18.7277C89.7004 17.7295 89.5653 16.8773 89.3175 16.4147L88.9572 15.6843L88.9347 17.2669C88.9347 18.1434 88.7996 19.1173 88.6419 19.4338C87.8312 21.1624 85.1737 21.7224 83.9801 20.432C83.3946 19.799 83.4171 19.3121 84.0477 18.8738C84.7008 18.4112 85.5566 18.6303 85.5566 19.2634C85.5566 19.5312 85.6467 19.6529 85.8043 19.5555C85.9394 19.4581 85.9845 19.0686 85.8944 18.5816C85.8043 17.9486 85.8268 17.7538 86.0971 17.7538C86.2772 17.7538 86.5025 17.8512 86.57 17.9973C86.7502 18.3138 87.133 18.3138 87.133 18.0217C87.133 17.8756 86.8853 17.486 86.57 17.1208C85.8944 16.3174 86.1421 15.733 86.9303 16.2443C87.5384 16.6582 87.651 16.5121 87.2231 15.8548C86.9979 15.5139 86.6376 15.3191 86.1646 15.2948L85.444 15.2704L86.0971 14.9783C86.6151 14.7104 86.6601 14.6374 86.3448 14.5157C84.7909 13.8583 81.7281 15.1 80.6921 16.78C80.3318 17.3643 80.0165 17.7051 79.9715 17.5591C79.8364 17.0965 80.8047 15.3435 81.5479 14.7591C82.4938 14.0287 84.2279 13.3227 85.2188 13.2983C86.5025 13.2496 85.5791 12.8844 84.2054 12.9088C83.3946 12.9088 82.6514 13.0792 82.0659 13.42ZM85.0386 15.173C84.9711 15.3678 85.0611 15.8791 85.2413 16.2687C85.5341 16.8773 85.5341 17.0721 85.2863 17.3643C85.0386 17.6564 84.9035 17.6564 84.3405 17.3399C83.9126 17.0965 83.3045 16.9991 82.5839 17.0721C81.9758 17.1452 81.5029 17.0965 81.5029 16.9747C81.5029 16.4634 82.8992 15.4165 83.9351 15.1487C84.5206 15.0026 85.0386 14.8565 85.0837 14.8565C85.1287 14.8322 85.1062 15.0026 85.0386 15.173ZM81.593 20.0912C81.7956 20.1642 81.9533 20.359 81.9533 20.4807C81.9533 20.6268 81.7956 20.6755 81.6155 20.5781C81.1651 20.4077 81.1651 21.2355 81.593 21.625C81.9983 21.9902 85.9845 22.185 86.9303 21.8929L87.6735 21.6494L87.2006 22.185C86.7502 22.6476 86.4574 22.7207 84.318 22.7207C82.201 22.745 81.8857 22.6963 81.5254 22.2581C80.3318 20.8459 80.3768 19.5799 81.593 20.0912Z" fill="url(#paint11_linear_1_1112)"/>
  <path d="M101.253 13.3957C100.149 13.8339 99.8116 14.1018 99.2936 15.0026C98.3928 16.5365 98.055 18.8982 98.4829 20.6512C99.0459 22.8911 101.365 24.571 103.888 24.571C104.789 24.571 106.725 23.7432 106.725 23.3537C106.725 23.232 106.996 22.818 107.311 22.4528C107.806 21.8929 108.527 20.432 108.527 20.0181C108.527 19.9451 108.324 19.9451 108.077 20.0181C107.536 20.1642 107.063 19.6042 107.266 19.0442C107.401 18.7034 107.378 18.679 107.153 18.8982C106.951 19.1173 106.951 19.4338 107.176 20.3103C107.401 21.1624 107.401 21.5033 107.198 21.7224C107.018 21.9172 106.951 21.9172 106.951 21.6494C106.951 21.4303 106.838 21.479 106.635 21.7955C106.185 22.4285 105.937 22.0633 106.343 21.3572C106.545 21.0164 106.68 20.1886 106.68 19.2147C106.68 17.8999 106.59 17.5347 106.117 16.926C105.825 16.5365 105.622 16.0739 105.689 15.9035C105.757 15.7087 105.689 15.5626 105.577 15.5626C105.329 15.5626 105.397 16.2687 105.712 17.0721C106.027 17.8999 105.374 17.5104 104.991 16.6582C104.699 15.9765 104.563 15.8791 104.293 16.0982C104.045 16.3417 103.91 16.293 103.64 15.9278C102.919 14.8322 103.843 13.4687 104.608 14.5157C104.924 14.9296 104.924 14.9052 104.699 14.3939C104.518 14.0044 104.518 13.8583 104.699 13.8583C105.149 13.8583 106.951 15.3191 107.333 16.0008C107.536 16.366 107.829 16.7556 107.964 16.9017C108.099 17.0234 108.392 17.5834 108.595 18.119L109 19.0929L108.842 17.8756C108.775 17.1939 108.572 16.4878 108.392 16.2687C108.212 16.0739 108.077 15.7817 108.077 15.66C108.077 15.3435 106.838 14.1018 105.96 13.5174C104.946 12.8357 102.829 12.787 101.253 13.3957ZM101.816 14.6374C101.501 14.9783 101.456 16.4391 101.748 16.6339C102.064 16.853 102.469 18.2408 102.199 18.2408C102.086 18.2408 101.996 18.046 101.996 17.8025C101.974 17.5591 101.816 17.7051 101.546 18.2408C101.208 18.9468 101.095 19.0199 100.983 18.6547C100.893 18.4356 100.87 18.0704 100.96 17.8756C101.163 17.2425 100.893 17.4617 100.577 18.1677C100.217 18.9468 100.42 20.1642 100.983 20.6755C101.163 20.8459 101.32 21.2598 101.32 21.625C101.298 22.185 101.275 22.2094 101.028 21.8442C100.757 21.479 100.712 21.479 100.465 21.8442C100.217 22.2094 100.194 22.185 100.262 21.625C100.33 21.1137 100.262 21.0164 99.9467 21.0894C99.4963 21.2355 99.2936 20.919 99.0459 19.7503C98.7306 18.2164 99.2035 16.6826 100.352 15.4409C100.893 14.8322 101.523 14.3452 101.726 14.3452C101.996 14.3452 102.019 14.4183 101.816 14.6374ZM104.113 18.606C104.563 19.5068 104.879 19.6529 105.352 19.1416C105.599 18.8982 105.622 18.9712 105.509 19.5068C105.442 19.8477 105.307 20.3103 105.239 20.5051C105.171 20.7242 105.262 20.919 105.487 20.9677C105.825 21.0407 105.825 21.1137 105.397 21.6981C105.126 22.0389 104.924 22.5746 104.924 22.8424C104.924 23.1589 104.789 23.3537 104.563 23.3537C104.293 23.3537 104.226 23.2076 104.316 22.7937C104.744 20.919 104.744 20.432 104.383 20.432C104.181 20.432 103.933 20.1886 103.82 19.8964C103.663 19.4338 103.64 19.4094 103.482 19.8233C103.415 20.0668 103.392 20.4564 103.46 20.6998C103.618 21.2355 103.347 21.3085 102.897 20.8459C102.604 20.6025 102.604 20.6025 102.852 20.8946C103.167 21.3085 103.212 22.1363 102.919 22.1363C102.807 22.1363 102.762 22.3311 102.829 22.5989C102.897 22.9154 102.784 23.0859 102.424 23.1833C101.726 23.378 101.433 23.1346 101.906 22.7694C102.199 22.5259 102.266 22.2094 102.176 21.3329C102.109 20.6998 102.131 20.2616 102.221 20.3103C102.649 20.6025 103.415 19.5068 103.437 18.6547C103.46 18.1434 103.505 17.7538 103.573 17.7538C103.64 17.7538 103.888 18.1434 104.113 18.606Z" fill="url(#paint12_linear_1_1112)"/>
  <path d="M73.1928 17.5591C72.9451 17.8513 72.6298 18.4356 72.4721 18.8982C72.337 19.3365 72.1568 19.7017 72.0667 19.7017C71.9767 19.7017 71.9541 20.1643 72.0217 20.7243C72.1568 21.7469 72.1793 21.7712 73.1027 21.8442C73.936 21.9173 74.1612 21.7955 74.9043 21.0408L75.7601 20.1643L74.8593 20.6756C74.3638 20.9434 73.6882 21.1625 73.3279 21.1625C72.382 21.1625 72.5622 20.213 73.5981 19.8234C74.4314 19.5313 74.9719 18.6548 74.7917 17.9C74.5665 16.9018 73.8684 16.7557 73.1928 17.5591ZM74.2963 18.8495C74.2963 19.2391 73.5306 19.7747 73.3279 19.5313C73.1027 19.3121 73.5981 18.4843 73.9585 18.4843C74.1386 18.4843 74.2963 18.6548 74.2963 18.8495Z" fill="url(#paint13_linear_1_1112)"/>
  <path d="M12.7698 18.4112C12.9274 18.4843 13.1301 18.4599 13.1976 18.3869C13.2877 18.3138 13.1526 18.2408 12.9049 18.2651C12.6572 18.2651 12.5896 18.3382 12.7698 18.4112Z" fill="url(#paint14_linear_1_1112)"/>
  <path d="M25.7418 18.9956C25.0211 19.3851 25.0436 20.8703 25.7643 21.0651C26.0571 21.1381 26.3498 21.3572 26.4174 21.552C26.5075 21.7955 26.7327 21.8442 27.1606 21.7468C27.6785 21.6007 27.7461 21.625 27.5434 21.9172C27.3858 22.112 27.3633 22.4529 27.4759 22.745C27.5659 23.0128 27.656 23.5972 27.656 24.0111C27.6785 24.6928 27.611 24.8145 27.138 24.8145C26.4399 24.8145 25.6517 25.8615 25.6517 26.811C25.6517 27.2006 25.8093 27.8336 25.9895 28.2475C26.3273 28.9292 26.3723 28.9535 26.8453 28.5883C27.1155 28.3936 27.4083 28.2231 27.4984 28.2231C27.6785 28.2231 27.5434 32.7517 27.3182 34.7725C27.2056 35.7708 27.1606 35.8195 26.5525 35.6734C25.9219 35.5516 25.9219 35.5516 26.1471 36.282C26.2597 36.6716 26.6651 37.1585 27.0254 37.3533C27.9263 37.8646 29.773 37.8403 30.2234 37.2803C30.6963 36.6959 30.7188 36.3794 30.4035 34.4317C30.2684 33.4821 30.1558 31.583 30.2008 30.1709L30.2684 27.6145L31.2143 27.371C31.7323 27.2249 32.2277 27.0545 32.3178 26.9327C32.4079 26.8353 33.3087 26.738 34.2996 26.7136L36.1238 26.6649L34.4347 26.5432L32.7457 26.3971L34.2095 26.178C35.0203 26.0319 35.7634 25.9588 35.876 25.9832C35.9661 26.0319 36.2139 25.9102 36.394 25.7397C36.6192 25.5449 37.9254 25.3745 40.155 25.2771L43.5556 25.131L41.1459 25.058C39.7946 25.0337 38.6236 24.9606 38.4884 24.9363C38.3758 24.9119 36.4391 24.8632 34.2095 24.8389L30.1558 24.8145V24.1572C30.1558 23.7919 30.381 23.2563 30.6513 22.9398C31.1242 22.4042 31.1242 22.3798 30.7188 21.8929C30.3135 21.4059 30.3135 21.4059 32.0701 21.4546C33.2637 21.479 33.8717 21.4059 33.9393 21.2111C34.0519 20.8459 34.6599 20.8216 34.6599 21.1868C34.6599 21.3329 34.7725 21.3572 34.9527 21.2355C35.4932 20.8459 36.8219 20.432 37.4975 20.432C37.8804 20.432 38.2632 20.359 38.3308 20.2616C38.4209 20.1886 39.8397 20.1399 41.4612 20.1642C44.8843 20.2373 45.2446 20.0425 42.0917 19.8234C38.3308 19.5799 29.4126 18.9712 27.7911 18.8495C26.8453 18.7764 26.012 18.8251 25.7418 18.9956Z" fill="url(#paint15_linear_1_1112)"/>
  <path d="M50.9195 19.7746C50.7844 19.945 50.6943 20.578 50.7168 21.2111C50.7619 22.258 50.8069 22.3554 51.415 22.4771C51.7753 22.5502 52.2933 22.6232 52.6086 22.6232C53.059 22.6232 53.1265 22.7206 53.0139 23.1101C52.9238 23.378 53.0365 23.9379 53.2166 24.3762C53.6445 25.277 53.667 25.3744 53.3292 25.1797C53.059 24.9849 53.1941 27.517 53.5094 28.0283C53.5995 28.1987 53.6895 29.2213 53.7121 30.3169C53.7121 31.3882 53.8022 32.4108 53.9148 32.6055C54.0274 32.8247 54.0048 32.9707 53.8247 33.0438C53.622 33.1168 53.5769 33.6281 53.667 34.8942C53.7346 36.1359 53.7121 36.355 53.5995 35.6489L53.4193 34.6751L53.3743 35.6976C53.3743 36.3307 53.4418 36.7446 53.5995 36.7446C53.7346 36.7446 53.8022 36.915 53.7121 37.1098C53.622 37.4019 53.7796 37.475 54.4778 37.475C55.4912 37.475 55.6939 37.2559 55.4011 36.428C55.2885 36.1115 55.1534 34.8698 55.1309 33.6768C55.0633 30.2195 55.1083 29.9274 55.5588 29.9274C55.9866 29.9274 56.8424 31.4856 56.6172 31.8751C56.5497 31.9969 56.6848 32.2403 56.955 32.4108C57.2028 32.5812 57.4054 32.8247 57.4054 32.9221C57.4054 33.3603 58.8242 35.235 59.2296 35.3568C59.5899 35.4542 59.5674 35.3568 59.0495 34.6994C57.9459 33.3603 56.6397 31.1447 56.8199 30.9743C56.91 30.8525 57.1352 30.9986 57.3154 31.2421C57.6307 31.729 58.4414 32.0456 58.1711 31.6073C58.1036 31.4856 57.9685 31.4369 57.8559 31.5099C57.7433 31.583 57.6757 31.4369 57.6757 31.2178C57.6982 30.9743 57.4505 30.3413 57.1352 29.8056C56.8199 29.27 56.4821 28.5883 56.392 28.2717C56.2569 27.7605 56.3019 27.7361 57.4054 27.7361C58.4414 27.7361 58.6666 27.6387 59.3422 26.9083C59.9953 26.2022 60.1079 25.9101 60.1079 24.9362C60.1079 23.5727 59.8602 22.9884 58.7792 21.9415C57.6307 20.7972 56.2569 20.1641 54.0274 19.7989C51.6177 19.385 51.2123 19.385 50.9195 19.7746ZM57.1352 23.4997C59.2972 24.8631 58.7792 26.5674 56.0993 26.9327L54.9732 27.0787L54.8156 25.5936C54.7255 24.7658 54.7255 23.7675 54.8156 23.3536C54.9507 22.6719 55.0408 22.5989 55.5588 22.7449C55.8966 22.818 56.5947 23.1832 57.1352 23.4997ZM59.4323 24.4736C59.4323 24.6684 59.3422 24.7658 59.2071 24.6927C59.0945 24.6197 58.9819 24.4492 58.9819 24.3032C58.9819 24.1814 59.0945 24.084 59.2071 24.084C59.3422 24.084 59.4323 24.2545 59.4323 24.4736ZM59.4323 25.6423C59.4323 25.7153 59.3422 25.837 59.2071 25.9101C59.0945 25.9831 58.9819 25.9344 58.9819 25.8127C58.9819 25.6666 59.0945 25.5449 59.2071 25.5449C59.3422 25.5449 59.4323 25.5936 59.4323 25.6423ZM57.8559 27.0057C57.8559 27.1274 57.7433 27.2492 57.6081 27.2492C57.4955 27.2492 57.4505 27.1274 57.5181 27.0057C57.5856 26.8596 57.6982 26.7622 57.7658 26.7622C57.8108 26.7622 57.8559 26.8596 57.8559 27.0057ZM55.4912 29.1969C55.5588 29.3187 55.5137 29.4404 55.4011 29.4404C55.266 29.4404 55.1534 29.3187 55.1534 29.1969C55.1534 29.0509 55.1984 28.9535 55.2435 28.9535C55.311 28.9535 55.4236 29.0509 55.4912 29.1969Z" fill="url(#paint16_linear_1_1112)"/>
  <path d="M44.6588 20.1643C44.7714 20.3591 45.92 20.2373 45.92 20.0425C45.92 19.9938 45.6047 19.9451 45.2218 19.9451C44.8615 19.9451 44.5913 20.0425 44.6588 20.1643Z" fill="url(#paint17_linear_1_1112)"/>
  <path d="M91.0063 21.4791C88.957 23.1104 88.2138 25.8859 89.0696 28.5885C89.8127 30.9988 91.3892 31.9971 94.3844 31.9971H96.3212L97.4698 30.731C98.1003 30.0249 98.6183 29.2945 98.6183 29.0754C98.6183 28.8806 98.7084 28.7102 98.821 28.7102C99.1588 28.7102 99.4966 26.4703 99.3164 25.4233C98.9111 23.1834 98.303 22.3312 96.3662 21.2843L95.578 20.8704L96.3662 21.6252C96.7941 22.0147 97.222 22.3556 97.3121 22.3799C97.5824 22.3799 98.5733 24.4008 98.7084 25.1799C98.7759 25.5694 98.7534 26.2998 98.6408 26.7624C98.4607 27.4928 98.4381 27.5415 98.4156 26.9816C98.3931 26.0564 97.8076 24.4008 97.2445 23.646C96.5239 22.6478 94.4295 22.0634 92.9206 22.4286C90.601 22.9886 89.2497 26.1781 90.1731 28.8319C90.3082 29.1971 90.2857 29.2458 90.083 29.0511C89.6776 28.6615 89.2948 26.2511 89.4749 25.2286C89.6551 24.2303 91.5919 21.5034 92.3801 21.1626C92.853 20.9678 92.853 20.9435 92.29 20.9435C91.9747 20.9191 91.4117 21.1869 91.0063 21.4791ZM93.1233 26.1781C93.1008 27.225 93.5512 27.6389 94.4069 27.3955C95.1051 27.225 95.3753 26.4946 95.015 25.7885C94.7898 25.3259 94.7898 25.3016 95.1726 25.4964C96.5464 26.2998 96.9293 28.0528 96.051 29.5624L95.4879 30.5362L95.4654 29.538C95.4654 28.8563 95.3303 28.418 95.0826 28.1989C94.7448 27.9311 94.7222 27.9311 94.97 28.2233C95.3979 28.7589 95.3078 29.8789 94.8123 30.171C93.4386 30.9501 92.1324 29.5137 93.0557 28.2233C93.1908 28.0041 93.0782 28.1015 92.808 28.4424C92.4477 28.8319 92.3125 29.2215 92.3801 29.611C92.5152 30.3658 92.3801 30.3171 91.8621 29.3676C91.164 28.1502 91.2766 27.1033 92.1774 26.1294C92.6053 25.6668 92.9881 25.3016 93.0557 25.3016C93.1008 25.3016 93.1458 25.6912 93.1233 26.1781Z" fill="url(#paint18_linear_1_1112)"/>
  <path d="M19.8638 24.0354C19.4809 24.2788 19.1882 27.0057 19.5485 27.0057C19.6836 27.0057 19.7962 27.2979 19.7962 27.6631C19.8187 28.2474 19.8413 28.2718 20.044 27.9309C20.3818 27.2979 20.2016 23.7919 19.8638 24.0354Z" fill="url(#paint19_linear_1_1112)"/>
  <path d="M43.9383 28.5153C43.4428 29.3675 42.6321 30.8527 42.1592 31.8509C40.9881 34.31 40.6278 34.4074 40.8304 32.1918C41.0106 30.1223 40.8304 29.8788 38.9387 29.7327C37.7676 29.6353 37.61 29.684 37.3623 30.1709C37.1371 30.6092 37.1821 30.7796 37.5424 31.2179C37.7902 31.51 38.3757 32.5813 38.8036 33.5795C39.7269 35.6491 40.2224 36.136 41.0556 35.7708C41.461 35.6004 41.6862 35.2108 41.979 34.1395C42.1817 33.3604 42.4069 32.5083 42.4744 32.2405C42.6321 31.6318 43.6906 29.3918 44.4563 28.0284C45.3571 26.4458 44.9517 26.811 43.9383 28.5153Z" fill="url(#paint20_linear_1_1112)"/>
  <path d="M83.1912 28.004C82.9435 28.2718 82.2228 29.0023 81.5697 29.6353C80.7139 30.4874 80.3761 31.0231 80.2635 31.7048C80.0158 33.1413 80.4212 33.4334 82.8084 33.5795L84.7676 33.7013L83.1912 34.6021C81.3896 35.6247 81.4571 35.7221 83.4614 35.0404C85.1055 34.4804 86.0288 33.9934 86.4342 33.4821C86.9071 32.8735 86.0288 32.6056 83.6867 32.6056C81.3896 32.6056 80.8716 32.3622 81.1643 31.4126C81.3445 30.7309 82.3579 29.9274 82.966 29.9274C83.3263 29.9274 83.529 30.1222 83.6191 30.5361C83.7993 31.2422 84.8127 31.6561 85.128 31.1205C85.4658 30.6092 85.2181 29.051 84.655 28.2231C84.1145 27.3953 83.8218 27.3466 83.1912 28.004ZM85.5559 33.0926C85.5559 33.2143 85.4658 33.3361 85.3307 33.3361C85.2181 33.3361 85.1055 33.2143 85.1055 33.0926C85.1055 32.9465 85.2181 32.8491 85.3307 32.8491C85.4658 32.8491 85.5559 32.9465 85.5559 33.0926Z" fill="url(#paint21_linear_1_1112)"/>
  <path d="M76.8633 28.8561C76.2777 29.197 75.4445 29.8056 75.0166 30.1952C74.6112 30.5847 74.1833 30.9013 74.0707 30.9013C73.7554 30.9013 72.6744 33.0438 72.5844 33.7742C72.4718 34.8455 72.8546 35.2837 73.9131 35.2837C74.5662 35.2837 75.1292 35.089 75.7147 34.6507C76.1877 34.3099 76.6381 34.0664 76.7056 34.1394C76.9083 34.3829 76.7957 38.9845 76.548 39.788C76.2327 40.7862 76.548 41.614 77.2461 41.614C78.0118 41.614 78.0569 41.2245 77.7641 35.9898C77.629 33.1899 77.629 33.1655 78.3046 31.8995C78.6649 31.1934 79.3405 30.3413 79.791 30.0004C80.7143 29.343 80.7368 28.9778 79.9036 28.5396C79.0478 28.0526 78.0569 28.1744 76.8633 28.8561ZM76.1877 33.9447C75.8273 34.2612 75.3769 34.4316 75.1292 34.3586C74.8139 34.2855 74.7238 34.3342 74.8364 34.5046C75.0616 34.9185 74.341 34.8698 73.9356 34.4559C73.7554 34.2612 73.6203 34.0177 73.6203 33.9203C73.6203 33.7986 73.7329 33.8473 73.8906 34.0177C74.1833 34.3342 74.5437 34.4073 74.4761 34.1151C74.386 33.8473 74.9941 33.0438 75.8724 32.2647L76.6606 31.5586L76.7282 32.4838C76.7957 33.2629 76.7056 33.5064 76.1877 33.9447Z" fill="url(#paint22_linear_1_1112)"/>
  <path d="M19.7964 28.8074C19.7964 29.0022 19.8865 29.2213 19.9991 29.3187C20.1342 29.3918 20.2018 29.2213 20.1792 28.9535C20.1567 28.3935 19.7964 28.2718 19.7964 28.8074Z" fill="url(#paint23_linear_1_1112)"/>
  <path d="M45.7398 29.5379C45.2443 30.1222 44.6137 31.0474 44.366 31.583C44.0958 32.143 43.7129 32.703 43.5102 32.8491C43.2174 33.0439 43.1949 33.1656 43.3976 33.2386C43.5553 33.3117 43.6679 33.823 43.6679 34.456C43.6679 35.4055 43.7354 35.576 44.2984 35.7951C44.9741 36.0873 46.5955 35.8925 47.609 35.4055C47.9918 35.2108 48.69 34.6995 49.1854 34.2125L50.0862 33.336L48.6449 33.9691C47.8117 34.3343 46.6856 34.6021 45.9424 34.6264C44.7488 34.6751 44.6813 34.6508 44.6813 34.0908C44.6813 33.4334 44.9741 33.2143 46.3253 32.8491C47.1811 32.6056 47.3612 32.4352 47.7441 31.51C48.1044 30.6092 48.1495 30.317 47.9243 29.8787C47.609 29.197 47.0234 28.4666 46.8207 28.4666C46.7307 28.4666 46.2352 28.9535 45.7398 29.5379ZM47.1811 31.8509C47.1135 31.9726 46.7532 32.1917 46.3703 32.3135C45.4695 32.6543 45.447 32.1187 46.3253 31.437C46.8433 31.0231 46.9559 30.9987 47.1135 31.2909C47.2036 31.4857 47.2486 31.7291 47.1811 31.8509Z" fill="url(#paint24_linear_1_1112)"/>
  <path d="M60.716 29.1969C60.6485 29.5134 60.6485 29.903 60.7611 30.0247C60.8512 30.1708 61.189 31.2421 61.4817 32.4107C61.797 33.6524 62.0898 34.4072 62.1799 34.2368C62.2925 34.0663 62.36 34.1637 62.36 34.5289C62.36 35.795 62.5627 34.7968 62.8104 32.1429C63.1032 29.0508 63.0357 28.856 61.752 29.0508C61.3241 29.1239 61.0088 29.0508 60.9412 28.8804C60.8962 28.7343 60.8061 28.856 60.716 29.1969Z" fill="url(#paint25_linear_1_1112)"/>
  <path d="M68.5983 29.5136C68.1929 29.9518 67.5173 30.8527 67.0894 31.51C66.1435 32.9465 65.6256 33.2143 65.8282 32.2161C66.1886 30.171 66.2111 29.7814 65.8733 29.3188C65.5805 28.8562 65.5355 28.8562 65.1301 29.2701C64.8824 29.4892 64.522 29.684 64.3194 29.684C63.8239 29.684 63.8464 29.8301 64.3644 30.5605C64.8824 31.2666 65.1301 33.3604 64.8599 34.6021C64.7473 35.1134 64.7247 35.5273 64.8373 35.5273C64.9274 35.5273 65.7382 34.6508 66.6165 33.5796C68.9811 30.7553 69.927 30.9744 69.7468 34.2856C69.6793 35.7708 69.7243 35.8925 70.1747 35.9656C70.5351 36.0143 70.8278 35.7465 71.3908 34.87C72.0665 33.7743 72.0665 33.75 71.526 34.2856C70.7828 35.016 70.5576 34.8456 70.8954 33.7987C71.2332 32.7518 71.2107 29.3675 70.8729 29.0023C70.3549 28.4423 69.3415 28.6614 68.5983 29.5136Z" fill="url(#paint26_linear_1_1112)"/>
  <path d="M33.5337 30.3413C33.3535 30.8526 33.1509 31.3638 33.1058 31.5099C33.0608 31.6317 33.2184 31.4856 33.4661 31.1447L33.9391 30.5604L34.0517 31.2665C34.1192 31.6804 34.2544 32.4351 34.3219 32.9708C34.5021 34.1394 35.0651 35.3568 35.3354 35.162C35.4254 35.089 35.5831 35.1864 35.6281 35.3324C35.6957 35.5029 35.7632 35.0403 35.7632 34.3099C35.7858 33.5794 35.9434 32.3621 36.1236 31.6317C36.3037 30.9013 36.4614 30.2682 36.4614 30.2439C36.4614 30.1952 36.1011 30.0004 35.6506 29.8056C34.3219 29.1969 33.894 29.3187 33.5337 30.3413Z" fill="url(#paint27_linear_1_1112)"/>
  <path d="M19.7734 29.9761C19.7508 30.1465 19.7508 31.0961 19.7734 32.0943C19.7959 33.969 19.6608 34.1882 19.323 32.8004L19.1203 31.9969L19.2329 32.9221C19.2779 33.4577 19.2329 33.7743 19.0977 33.7012C18.9851 33.6038 18.8725 33.263 18.85 32.8978C18.8275 32.5325 18.7374 33.1656 18.6473 34.3099C18.3095 38.0107 18.3095 37.9863 19.7508 37.7185C20.4715 37.5968 20.5841 37.4994 20.5391 36.9881C20.5165 36.6472 20.4265 34.8699 20.3589 33.0195C20.2688 31.1935 20.1112 29.6839 19.9986 29.6839C19.886 29.6839 19.7734 29.83 19.7734 29.9761ZM20.0211 34.1638C20.0211 34.2368 19.931 34.3586 19.7959 34.4316C19.6833 34.5047 19.5707 34.456 19.5707 34.3342C19.5707 34.1882 19.6833 34.0664 19.7959 34.0664C19.931 34.0664 20.0211 34.1151 20.0211 34.1638Z" fill="url(#paint28_linear_1_1112)"/>
  <path d="M58.1712 32.7516C58.3514 33.1655 58.6892 33.6524 58.9144 33.8229C59.2522 34.115 59.2747 34.115 59.0495 33.8229C58.8919 33.6281 58.7568 33.3846 58.7568 33.2629C58.7568 33.1655 58.8919 33.1411 59.0495 33.2385C59.2072 33.3359 59.2522 33.3116 59.1396 33.1898C59.027 33.0681 58.8468 32.9707 58.7568 32.9707C58.6442 32.9707 58.3964 32.7516 58.1937 32.4838C57.8559 32.0455 57.8559 32.0455 58.1712 32.7516Z" fill="url(#paint29_linear_1_1112)"/>
  <path d="M59.7928 35.9656C59.928 36.063 60.0856 36.3065 60.1532 36.5256C60.2433 36.7447 60.5135 36.9882 60.7837 37.0612C61.2567 37.183 61.2567 37.1586 60.6486 36.4769C60.3108 36.0874 59.9054 35.7708 59.7928 35.7708C59.6127 35.7708 59.6127 35.8439 59.7928 35.9656Z" fill="url(#paint30_linear_1_1112)"/>
  <path d="M61.6395 37.7428C61.7746 37.9619 61.8647 38.181 61.7971 38.2541C61.7296 38.3271 61.8196 38.5219 61.9998 38.668C62.6079 39.2036 62.5853 38.5219 61.9548 37.9376C61.6395 37.621 61.4818 37.5237 61.6395 37.7428Z" fill="url(#paint31_linear_1_1112)"/>
  <path d="M63.5988 39.5202C64.0942 40.0071 64.4771 40.4941 64.4546 40.6402C64.4095 40.7619 64.6122 40.981 64.8599 41.1515C65.2428 41.3462 65.3103 41.3462 65.1752 41.1271C65.0626 40.9323 65.1077 40.8593 65.3103 40.9323C65.4905 41.0054 65.6031 41.2245 65.5581 41.3949C65.513 41.5897 65.5355 41.6627 65.6256 41.5654C65.7157 41.468 66.031 41.4923 66.3238 41.6141C66.6165 41.7358 66.8643 41.8088 66.8643 41.7601C66.8643 41.6871 66.9093 41.4923 66.9769 41.2975C67.112 40.9567 66.031 40.0802 64.7248 39.4472L64.0492 39.1306L64.4771 39.6419C64.7248 39.9341 64.7924 40.1532 64.6572 40.1532C64.5221 40.1532 64.3645 40.0558 64.2744 39.9098C64.2068 39.788 63.824 39.4472 63.4186 39.1793C62.8106 38.7411 62.8331 38.7898 63.5988 39.5202Z" fill="url(#paint32_linear_1_1112)"/>
  <path d="M56.054 39.6663C55.1307 39.8368 39.9518 40.2507 37.9925 40.1776C37.5196 40.1533 37.1367 40.2507 37.1367 40.3724C37.1367 40.5185 37.8349 40.5915 38.9384 40.5428C39.9968 40.4941 40.74 40.5428 40.74 40.6889C40.74 40.8107 40.8526 40.835 41.0103 40.7376C41.1454 40.6402 41.821 40.5428 42.5191 40.4941C43.2173 40.4698 45.109 40.3724 46.7305 40.275C49.0501 40.1289 49.7257 40.1533 49.8609 40.3967C49.996 40.6159 49.9509 40.6646 49.7708 40.5185C49.3879 40.275 46.5954 40.6159 46.5954 40.908C46.5954 41.0298 48.6898 41.1272 51.5049 41.1272C54.1848 41.1515 56.6396 41.1759 56.9549 41.1759C58.2611 41.2732 59.5898 41.1028 59.9726 40.8107C60.3329 40.5185 60.3329 40.4698 59.8825 39.9585C59.3871 39.3742 58.171 39.2768 56.054 39.6663ZM51.0319 40.2994C50.9644 40.3724 50.7617 40.3967 50.604 40.3237C50.4239 40.2507 50.4914 40.1776 50.7392 40.1776C50.9869 40.1533 51.122 40.2263 51.0319 40.2994ZM49.1402 40.8107C48.9826 40.8593 48.6673 40.8593 48.4646 40.8107C48.2394 40.7376 48.3745 40.6889 48.7348 40.6889C49.1177 40.6889 49.2753 40.7376 49.1402 40.8107Z" fill="url(#paint33_linear_1_1112)"/>
  <path d="M80.8945 39.6663C80.5567 39.8124 80.4441 40.0315 80.5342 40.3723C80.6693 40.9323 80.6918 40.9323 83.079 40.8593C84.0024 40.8349 85.0833 40.8349 85.4437 40.8593C88.1912 41.0541 91.0738 41.0784 91.2765 40.9323C91.7044 40.6402 89.7001 40.4697 88.2137 40.6645C87.3804 40.7619 86.7048 40.7619 86.5697 40.6158C86.4571 40.4941 86.7949 40.3967 87.4705 40.3967C88.6416 40.3967 88.7767 40.1289 87.6057 40.1045C87.2228 40.0802 86.9075 39.9828 86.9075 39.8611C86.9075 39.7393 86.1193 39.6663 85.1734 39.6906C84.205 39.715 82.9664 39.6906 82.4034 39.5932C81.8404 39.4959 81.1648 39.5445 80.8945 39.6663ZM86.0742 40.3237C85.9166 40.3723 85.6464 40.3723 85.5112 40.3237C85.3536 40.2506 85.4662 40.2019 85.7815 40.2019C86.0968 40.2019 86.2094 40.2506 86.0742 40.3237Z" fill="url(#paint34_linear_1_1112)"/>
  <path d="M24.5475 40.5184C24.8853 40.8836 34.5916 40.8106 34.9295 40.4454C35.1321 40.2263 33.8485 40.1776 29.7497 40.2263C26.1239 40.2506 24.3898 40.348 24.5475 40.5184Z" fill="url(#paint35_linear_1_1112)"/>
  <path d="M35.853 40.4211C36.1007 40.5916 36.3709 40.5916 36.6412 40.4211C36.9565 40.202 36.8889 40.1777 36.2358 40.1777C35.5827 40.1777 35.5151 40.202 35.853 40.4211Z" fill="url(#paint36_linear_1_1112)"/>
  <path d="M2.63558 40.6159C-0.337137 40.835 -0.0218489 41.1515 3.04095 41.0054C4.50479 40.9324 8.04053 40.8593 10.8781 40.835C13.6932 40.8106 16.3957 40.7132 16.8461 40.6159C17.8145 40.4211 5.47318 40.4211 2.63558 40.6159Z" fill="url(#paint37_linear_1_1112)"/>
  <path d="M17.8821 40.6402C17.9496 40.7619 18.1523 40.8106 18.3325 40.7132C18.8054 40.5428 18.7604 40.3967 18.1973 40.3967C17.9496 40.3967 17.792 40.4941 17.8821 40.6402Z" fill="url(#paint38_linear_1_1112)"/>
  <path d="M19.7512 40.5671C19.9088 40.6401 20.1115 40.6158 20.1791 40.5428C20.2692 40.4697 20.1341 40.3967 19.8863 40.421C19.6386 40.421 19.571 40.4941 19.7512 40.5671Z" fill="url(#paint39_linear_1_1112)"/>
  <path d="M22.6115 40.6402C22.7016 40.7863 23.0394 40.8593 23.3997 40.835C24.233 40.7619 24.0303 40.3967 23.152 40.3967C22.7466 40.3967 22.5214 40.4941 22.6115 40.6402Z" fill="url(#paint40_linear_1_1112)"/>
  <path d="M92.6727 40.5914C92.3123 40.9566 93.033 41.1271 95.0373 41.1271C97.1768 41.1271 97.92 40.8593 96.7039 40.5427C96.0508 40.3723 92.8303 40.3967 92.6727 40.5914Z" fill="url(#paint41_linear_1_1112)"/>
  <path d="M97.4922 40.6888C97.4922 40.9323 97.3121 40.9323 103.55 40.9079C106.343 40.8836 108.662 40.8349 108.708 40.7618C108.775 40.6888 107.559 40.6158 106.028 40.6158C104.496 40.5914 101.951 40.5671 100.375 40.5184C98.7759 40.494 97.4922 40.5671 97.4922 40.6888Z" fill="url(#paint42_linear_1_1112)"/>
  <path d="M45.1992 40.8106C45.3343 40.8593 45.6045 40.8593 45.7622 40.8106C45.8973 40.7376 45.7847 40.6889 45.4694 40.6889C45.1541 40.6889 45.0415 40.7376 45.1992 40.8106Z" fill="url(#paint43_linear_1_1112)"/>
  <path d="M91.6367 40.8836C91.6367 41.0053 91.7493 41.1271 91.8619 41.1271C91.997 41.1271 92.0871 41.0053 92.0871 40.8836C92.0871 40.7375 91.997 40.6401 91.8619 40.6401C91.7493 40.6401 91.6367 40.7375 91.6367 40.8836Z" fill="url(#paint44_linear_1_1112)"/>
  <defs>
    <linearGradient id="paint0_linear_1_1112" x1="41.172" y1="17.9972" x2="41.172" y2="7.82013e-05" gradientUnits="userSpaceOnUse">
      <stop stop-color="#A4945E"/>
      <stop offset="1" stop-color="#E2D07C"/>
    </linearGradient>
    <linearGradient id="paint1_linear_1_1112" x1="6.33756" y1="20.1339" x2="6.33756" y2="0.757748" gradientUnits="userSpaceOnUse">
      <stop stop-color="#A4945E"/>
      <stop offset="1" stop-color="#E2D07C"/>
    </linearGradient>
    <linearGradient id="paint2_linear_1_1112" x1="87.8224" y1="12.2134" x2="87.8224" y2="0.835505" gradientUnits="userSpaceOnUse">
      <stop stop-color="#A4945E"/>
      <stop offset="1" stop-color="#E2D07C"/>
    </linearGradient>
    <linearGradient id="paint3_linear_1_1112" x1="99.9495" y1="12.5797" x2="99.9495" y2="0.959438" gradientUnits="userSpaceOnUse">
      <stop stop-color="#A4945E"/>
      <stop offset="1" stop-color="#E2D07C"/>
    </linearGradient>
    <linearGradient id="paint4_linear_1_1112" x1="55.2737" y1="16.0077" x2="55.2737" y2="3.63256" gradientUnits="userSpaceOnUse">
      <stop stop-color="#A4945E"/>
      <stop offset="1" stop-color="#E2D07C"/>
    </linearGradient>
    <linearGradient id="paint5_linear_1_1112" x1="15.5527" y1="23.8046" x2="15.5527" y2="8.54706" gradientUnits="userSpaceOnUse">
      <stop stop-color="#A4945E"/>
      <stop offset="1" stop-color="#E2D07C"/>
    </linearGradient>
    <linearGradient id="paint6_linear_1_1112" x1="25.3828" y1="16.1482" x2="25.3828" y2="8.67233" gradientUnits="userSpaceOnUse">
      <stop stop-color="#A4945E"/>
      <stop offset="1" stop-color="#E2D07C"/>
    </linearGradient>
    <linearGradient id="paint7_linear_1_1112" x1="32.3867" y1="16.2195" x2="32.3867" y2="9.1919" gradientUnits="userSpaceOnUse">
      <stop stop-color="#A4945E"/>
      <stop offset="1" stop-color="#E2D07C"/>
    </linearGradient>
    <linearGradient id="paint8_linear_1_1112" x1="68.259" y1="22.1362" x2="68.259" y2="9.81048" gradientUnits="userSpaceOnUse">
      <stop stop-color="#A4945E"/>
      <stop offset="1" stop-color="#E2D07C"/>
    </linearGradient>
    <linearGradient id="paint9_linear_1_1112" x1="63.7997" y1="21.8777" x2="63.7997" y2="9.96273" gradientUnits="userSpaceOnUse">
      <stop stop-color="#A4945E"/>
      <stop offset="1" stop-color="#E2D07C"/>
    </linearGradient>
    <linearGradient id="paint10_linear_1_1112" x1="50.8384" y1="16.1787" x2="50.8384" y2="11.3806" gradientUnits="userSpaceOnUse">
      <stop stop-color="#A4945E"/>
      <stop offset="1" stop-color="#E2D07C"/>
    </linearGradient>
    <linearGradient id="paint11_linear_1_1112" x1="84.2982" y1="24.571" x2="84.2982" y2="12.9076" gradientUnits="userSpaceOnUse">
      <stop stop-color="#A4945E"/>
      <stop offset="1" stop-color="#E2D07C"/>
    </linearGradient>
    <linearGradient id="paint12_linear_1_1112" x1="103.649" y1="24.571" x2="103.649" y2="12.9706" gradientUnits="userSpaceOnUse">
      <stop stop-color="#A4945E"/>
      <stop offset="1" stop-color="#E2D07C"/>
    </linearGradient>
    <linearGradient id="paint13_linear_1_1112" x1="73.8713" y1="21.8625" x2="73.8713" y2="17.0416" gradientUnits="userSpaceOnUse">
      <stop stop-color="#A4945E"/>
      <stop offset="1" stop-color="#E2D07C"/>
    </linearGradient>
    <linearGradient id="paint14_linear_1_1112" x1="12.9468" y1="18.4553" x2="12.9468" y2="18.2604" gradientUnits="userSpaceOnUse">
      <stop stop-color="#A4945E"/>
      <stop offset="1" stop-color="#E2D07C"/>
    </linearGradient>
    <linearGradient id="paint15_linear_1_1112" x1="34.7344" y1="37.7194" x2="34.7344" y2="18.8166" gradientUnits="userSpaceOnUse">
      <stop stop-color="#A4945E"/>
      <stop offset="1" stop-color="#E2D07C"/>
    </linearGradient>
    <linearGradient id="paint16_linear_1_1112" x1="55.4107" y1="37.475" x2="55.4107" y2="19.4854" gradientUnits="userSpaceOnUse">
      <stop stop-color="#A4945E"/>
      <stop offset="1" stop-color="#E2D07C"/>
    </linearGradient>
    <linearGradient id="paint17_linear_1_1112" x1="45.2842" y1="20.2629" x2="45.2842" y2="19.9451" gradientUnits="userSpaceOnUse">
      <stop stop-color="#A4945E"/>
      <stop offset="1" stop-color="#E2D07C"/>
    </linearGradient>
    <linearGradient id="paint18_linear_1_1112" x1="94.0434" y1="31.9971" x2="94.0434" y2="20.8704" gradientUnits="userSpaceOnUse">
      <stop stop-color="#A4945E"/>
      <stop offset="1" stop-color="#E2D07C"/>
    </linearGradient>
    <linearGradient id="paint19_linear_1_1112" x1="19.8046" y1="28.1527" x2="19.8046" y2="24.0233" gradientUnits="userSpaceOnUse">
      <stop stop-color="#A4945E"/>
      <stop offset="1" stop-color="#E2D07C"/>
    </linearGradient>
    <linearGradient id="paint20_linear_1_1112" x1="41.0902" y1="35.8818" x2="41.0902" y2="27.0187" gradientUnits="userSpaceOnUse">
      <stop stop-color="#A4945E"/>
      <stop offset="1" stop-color="#E2D07C"/>
    </linearGradient>
    <linearGradient id="paint21_linear_1_1112" x1="83.379" y1="35.4762" x2="83.379" y2="27.5521" gradientUnits="userSpaceOnUse">
      <stop stop-color="#A4945E"/>
      <stop offset="1" stop-color="#E2D07C"/>
    </linearGradient>
    <linearGradient id="paint22_linear_1_1112" x1="76.5362" y1="41.614" x2="76.5362" y2="28.2442" gradientUnits="userSpaceOnUse">
      <stop stop-color="#A4945E"/>
      <stop offset="1" stop-color="#E2D07C"/>
    </linearGradient>
    <linearGradient id="paint23_linear_1_1112" x1="19.9899" y1="29.3357" x2="19.9899" y2="28.4635" gradientUnits="userSpaceOnUse">
      <stop stop-color="#A4945E"/>
      <stop offset="1" stop-color="#E2D07C"/>
    </linearGradient>
    <linearGradient id="paint24_linear_1_1112" x1="46.6754" y1="35.9324" x2="46.6754" y2="28.4666" gradientUnits="userSpaceOnUse">
      <stop stop-color="#A4945E"/>
      <stop offset="1" stop-color="#E2D07C"/>
    </linearGradient>
    <linearGradient id="paint25_linear_1_1112" x1="61.8117" y1="35.074" x2="61.8117" y2="28.8196" gradientUnits="userSpaceOnUse">
      <stop stop-color="#A4945E"/>
      <stop offset="1" stop-color="#E2D07C"/>
    </linearGradient>
    <linearGradient id="paint26_linear_1_1112" x1="67.9386" y1="35.9711" x2="67.9386" y2="28.6933" gradientUnits="userSpaceOnUse">
      <stop stop-color="#A4945E"/>
      <stop offset="1" stop-color="#E2D07C"/>
    </linearGradient>
    <linearGradient id="paint27_linear_1_1112" x1="34.7798" y1="35.3678" x2="34.7798" y2="29.4367" gradientUnits="userSpaceOnUse">
      <stop stop-color="#A4945E"/>
      <stop offset="1" stop-color="#E2D07C"/>
    </linearGradient>
    <linearGradient id="paint28_linear_1_1112" x1="19.5053" y1="37.8229" x2="19.5053" y2="29.6839" gradientUnits="userSpaceOnUse">
      <stop stop-color="#A4945E"/>
      <stop offset="1" stop-color="#E2D07C"/>
    </linearGradient>
    <linearGradient id="paint29_linear_1_1112" x1="58.5698" y1="34.042" x2="58.5698" y2="32.1826" gradientUnits="userSpaceOnUse">
      <stop stop-color="#A4945E"/>
      <stop offset="1" stop-color="#E2D07C"/>
    </linearGradient>
    <linearGradient id="paint30_linear_1_1112" x1="60.3904" y1="37.1179" x2="60.3904" y2="35.7708" gradientUnits="userSpaceOnUse">
      <stop stop-color="#A4945E"/>
      <stop offset="1" stop-color="#E2D07C"/>
    </linearGradient>
    <linearGradient id="paint31_linear_1_1112" x1="62.0099" y1="38.8621" x2="62.0099" y2="37.6246" gradientUnits="userSpaceOnUse">
      <stop stop-color="#A4945E"/>
      <stop offset="1" stop-color="#E2D07C"/>
    </linearGradient>
    <linearGradient id="paint32_linear_1_1112" x1="64.9895" y1="41.7754" x2="64.9895" y2="38.8992" gradientUnits="userSpaceOnUse">
      <stop stop-color="#A4945E"/>
      <stop offset="1" stop-color="#E2D07C"/>
    </linearGradient>
    <linearGradient id="paint33_linear_1_1112" x1="48.6846" y1="41.2034" x2="48.6846" y2="39.4326" gradientUnits="userSpaceOnUse">
      <stop stop-color="#A4945E"/>
      <stop offset="1" stop-color="#E2D07C"/>
    </linearGradient>
    <linearGradient id="paint34_linear_1_1112" x1="85.9198" y1="41.0262" x2="85.9198" y2="39.5414" gradientUnits="userSpaceOnUse">
      <stop stop-color="#A4945E"/>
      <stop offset="1" stop-color="#E2D07C"/>
    </linearGradient>
    <linearGradient id="paint35_linear_1_1112" x1="29.7437" y1="40.7585" x2="29.7437" y2="40.209" gradientUnits="userSpaceOnUse">
      <stop stop-color="#A4945E"/>
      <stop offset="1" stop-color="#E2D07C"/>
    </linearGradient>
    <linearGradient id="paint36_linear_1_1112" x1="36.2385" y1="40.549" x2="36.2385" y2="40.1777" gradientUnits="userSpaceOnUse">
      <stop stop-color="#A4945E"/>
      <stop offset="1" stop-color="#E2D07C"/>
    </linearGradient>
    <linearGradient id="paint37_linear_1_1112" x1="8.73349" y1="41.0426" x2="8.73349" y2="40.4698" gradientUnits="userSpaceOnUse">
      <stop stop-color="#A4945E"/>
      <stop offset="1" stop-color="#E2D07C"/>
    </linearGradient>
    <linearGradient id="paint38_linear_1_1112" x1="18.2564" y1="40.765" x2="18.2564" y2="40.3967" gradientUnits="userSpaceOnUse">
      <stop stop-color="#A4945E"/>
      <stop offset="1" stop-color="#E2D07C"/>
    </linearGradient>
    <linearGradient id="paint39_linear_1_1112" x1="19.9283" y1="40.6112" x2="19.9283" y2="40.4162" gradientUnits="userSpaceOnUse">
      <stop stop-color="#A4945E"/>
      <stop offset="1" stop-color="#E2D07C"/>
    </linearGradient>
    <linearGradient id="paint40_linear_1_1112" x1="23.2603" y1="40.8396" x2="23.2603" y2="40.3967" gradientUnits="userSpaceOnUse">
      <stop stop-color="#A4945E"/>
      <stop offset="1" stop-color="#E2D07C"/>
    </linearGradient>
    <linearGradient id="paint41_linear_1_1112" x1="94.9358" y1="41.1271" x2="94.9358" y2="40.4288" gradientUnits="userSpaceOnUse">
      <stop stop-color="#A4945E"/>
      <stop offset="1" stop-color="#E2D07C"/>
    </linearGradient>
    <linearGradient id="paint42_linear_1_1112" x1="103.101" y1="40.9182" x2="103.101" y2="40.5137" gradientUnits="userSpaceOnUse">
      <stop stop-color="#A4945E"/>
      <stop offset="1" stop-color="#E2D07C"/>
    </linearGradient>
    <linearGradient id="paint43_linear_1_1112" x1="45.4734" y1="40.8472" x2="45.4734" y2="40.6889" gradientUnits="userSpaceOnUse">
      <stop stop-color="#A4945E"/>
      <stop offset="1" stop-color="#E2D07C"/>
    </linearGradient>
    <linearGradient id="paint44_linear_1_1112" x1="91.8619" y1="41.1271" x2="91.8619" y2="40.6401" gradientUnits="userSpaceOnUse">
      <stop stop-color="#A4945E"/>
      <stop offset="1" stop-color="#E2D07C"/>
    </linearGradient>
  </defs>
</svg>